ChironHeiHKVF-weight0-Master.ufo
<glyph name="cid42997" format="2">
  <advance height="1000" width="264"/>
  <unicode hex="0021"/>
  <outline>
    <contour>
      <point x="100" y="176" type="curve"/>
      <point x="100" y="176"/>
      <point x="126" y="176"/>
      <point x="126" y="176" type="curve"/>
      <point x="126" y="176"/>
      <point x="222" y="652"/>
      <point x="222" y="652" type="curve"/>
      <point x="222" y="652"/>
      <point x="235" y="721"/>
      <point x="235" y="721" type="curve"/>
      <point x="235" y="721"/>
      <point x="205" y="721"/>
      <point x="205" y="721" type="curve"/>
      <point x="205" y="721"/>
      <point x="100" y="176"/>
    </contour>
    <contour>
      <point x="76" y="-24" type="curve" smooth="yes"/>
      <point x="100" y="-24"/>
      <point x="120" y="0"/>
      <point x="120" y="24" type="curve" smooth="yes"/>
      <point x="120" y="44"/>
      <point x="111" y="59"/>
      <point x="92" y="59" type="curve" smooth="yes"/>
      <point x="68" y="59"/>
      <point x="46" y="33"/>
      <point x="46" y="9" type="curve" smooth="yes"/>
      <point x="46" y="-9"/>
      <point x="57" y="-24"/>
    </contour>
  </outline>
</glyph>
<glyph name="cid43007" format="2">
  <advance height="1000" width="353"/>
  <unicode hex="0022"/>
  <outline>
    <contour>
      <point x="146" y="510" type="curve"/>
      <point x="146" y="510"/>
      <point x="170" y="510"/>
      <point x="170" y="510" type="curve"/>
      <point x="170" y="510"/>
      <point x="203" y="652"/>
      <point x="203" y="652" type="curve"/>
      <point x="203" y="652"/>
      <point x="216" y="721"/>
      <point x="216" y="721" type="curve"/>
      <point x="216" y="721"/>
      <point x="185" y="721"/>
      <point x="185" y="721" type="curve"/>
      <point x="185" y="721"/>
      <point x="172" y="652"/>
      <point x="172" y="652" type="curve"/>
      <point x="172" y="652"/>
      <point x="146" y="510"/>
    </contour>
    <contour>
      <point x="279" y="510" type="curve"/>
      <point x="279" y="510"/>
      <point x="303" y="510"/>
      <point x="303" y="510" type="curve"/>
      <point x="303" y="510"/>
      <point x="336" y="652"/>
      <point x="336" y="652" type="curve"/>
      <point x="336" y="652"/>
      <point x="349" y="721"/>
      <point x="349" y="721" type="curve"/>
      <point x="349" y="721"/>
      <point x="318" y="721"/>
      <point x="318" y="721" type="curve"/>
      <point x="318" y="721"/>
      <point x="305" y="652"/>
      <point x="305" y="652" type="curve"/>
      <point x="305" y="652"/>
      <point x="279" y="510"/>
    </contour>
  </outline>
</glyph>
<glyph name="cid43323" format="2">
  <advance height="1000" width="499"/>
  <unicode hex="0023"/>
  <outline>
    <contour>
      <point x="46" y="-11" type="curve"/>
      <point x="46" y="-11"/>
      <point x="76" y="-11"/>
      <point x="76" y="-11" type="curve"/>
      <point x="76" y="-11"/>
      <point x="150" y="227"/>
      <point x="150" y="227" type="curve"/>
      <point x="150" y="227"/>
      <point x="310" y="227"/>
      <point x="310" y="227" type="curve"/>
      <point x="310" y="227"/>
      <point x="235" y="-11"/>
      <point x="235" y="-11" type="curve"/>
      <point x="235" y="-11"/>
      <point x="266" y="-11"/>
      <point x="266" y="-11" type="curve"/>
      <point x="266" y="-11"/>
      <point x="340" y="227"/>
      <point x="340" y="227" type="curve"/>
      <point x="340" y="227"/>
      <point x="434" y="227"/>
      <point x="434" y="227" type="curve"/>
      <point x="434" y="227"/>
      <point x="443" y="257"/>
      <point x="443" y="257" type="curve"/>
      <point x="443" y="257"/>
      <point x="351" y="257"/>
      <point x="351" y="257" type="curve"/>
      <point x="351" y="257"/>
      <point x="410" y="451"/>
      <point x="410" y="451" type="curve"/>
      <point x="410" y="451"/>
      <point x="499" y="451"/>
      <point x="499" y="451" type="curve"/>
      <point x="499" y="451"/>
      <point x="508" y="482"/>
      <point x="508" y="482" type="curve"/>
      <point x="508" y="482"/>
      <point x="419" y="482"/>
      <point x="419" y="482" type="curve"/>
      <point x="419" y="482"/>
      <point x="486" y="698"/>
      <point x="486" y="698" type="curve"/>
      <point x="486" y="698"/>
      <point x="456" y="698"/>
      <point x="456" y="698" type="curve"/>
      <point x="456" y="698"/>
      <point x="388" y="482"/>
      <point x="388" y="482" type="curve"/>
      <point x="388" y="482"/>
      <point x="229" y="482"/>
      <point x="229" y="482" type="curve"/>
      <point x="229" y="482"/>
      <point x="296" y="698"/>
      <point x="296" y="698" type="curve"/>
      <point x="296" y="698"/>
      <point x="266" y="698"/>
      <point x="266" y="698" type="curve"/>
      <point x="266" y="698"/>
      <point x="198" y="482"/>
      <point x="198" y="482" type="curve"/>
      <point x="198" y="482"/>
      <point x="105" y="482"/>
      <point x="105" y="482" type="curve"/>
      <point x="105" y="482"/>
      <point x="96" y="451"/>
      <point x="96" y="451" type="curve"/>
      <point x="96" y="451"/>
      <point x="187" y="451"/>
      <point x="187" y="451" type="curve"/>
      <point x="187" y="451"/>
      <point x="129" y="257"/>
      <point x="129" y="257" type="curve"/>
      <point x="129" y="257"/>
      <point x="39" y="257"/>
      <point x="39" y="257" type="curve"/>
      <point x="39" y="257"/>
      <point x="31" y="227"/>
      <point x="31" y="227" type="curve"/>
      <point x="31" y="227"/>
      <point x="120" y="227"/>
      <point x="120" y="227" type="curve"/>
      <point x="120" y="227"/>
      <point x="46" y="-11"/>
    </contour>
    <contour>
      <point x="159" y="257" type="curve"/>
      <point x="159" y="257"/>
      <point x="218" y="451"/>
      <point x="218" y="451" type="curve"/>
      <point x="218" y="451"/>
      <point x="379" y="451"/>
      <point x="379" y="451" type="curve"/>
      <point x="379" y="451"/>
      <point x="320" y="257"/>
      <point x="320" y="257" type="curve"/>
      <point x="320" y="257"/>
      <point x="159" y="257"/>
    </contour>
  </outline>
</glyph>
<glyph name="cid43601" format="2">
  <advance height="1000" width="497"/>
  <unicode hex="0024"/>
  <outline>
    <contour>
      <point x="211" y="-24" type="curve" smooth="yes"/>
      <point x="331" y="-24"/>
      <point x="412" y="65"/>
      <point x="412" y="174" type="curve" smooth="yes"/>
      <point x="412" y="373"/>
      <point x="170" y="375"/>
      <point x="170" y="532" type="curve" smooth="yes"/>
      <point x="170" y="615"/>
      <point x="235" y="671"/>
      <point x="320" y="671" type="curve" smooth="yes"/>
      <point x="377" y="671"/>
      <point x="423" y="634"/>
      <point x="453" y="589" type="curve"/>
      <point x="453" y="589"/>
      <point x="477" y="608"/>
      <point x="477" y="608" type="curve"/>
      <point x="447" y="656"/>
      <point x="386" y="700"/>
      <point x="323" y="700" type="curve" smooth="yes"/>
      <point x="218" y="700"/>
      <point x="140" y="626"/>
      <point x="140" y="525" type="curve" smooth="yes"/>
      <point x="140" y="357"/>
      <point x="382" y="355"/>
      <point x="382" y="168" type="curve" smooth="yes"/>
      <point x="382" y="72"/>
      <point x="307" y="4"/>
      <point x="211" y="4" type="curve" smooth="yes"/>
      <point x="140" y="4"/>
      <point x="83" y="50"/>
      <point x="50" y="96" type="curve"/>
      <point x="50" y="96"/>
      <point x="27" y="74"/>
      <point x="27" y="74" type="curve"/>
      <point x="63" y="28"/>
      <point x="131" y="-24"/>
    </contour>
    <contour>
      <point x="161" y="-131" type="curve"/>
      <point x="161" y="-131"/>
      <point x="192" y="-131"/>
      <point x="192" y="-131" type="curve"/>
      <point x="192" y="-131"/>
      <point x="214" y="-20"/>
      <point x="214" y="-20" type="curve"/>
      <point x="214" y="-20"/>
      <point x="183" y="-20"/>
      <point x="183" y="-20" type="curve"/>
      <point x="183" y="-20"/>
      <point x="161" y="-131"/>
    </contour>
    <contour>
      <point x="317" y="680" type="curve"/>
      <point x="317" y="680"/>
      <point x="348" y="680"/>
      <point x="348" y="680" type="curve"/>
      <point x="348" y="680"/>
      <point x="374" y="807"/>
      <point x="374" y="807" type="curve"/>
      <point x="374" y="807"/>
      <point x="343" y="807"/>
      <point x="343" y="807" type="curve"/>
      <point x="343" y="807"/>
      <point x="317" y="680"/>
    </contour>
  </outline>
</glyph>
<glyph name="cid43643" format="2">
  <advance height="1000" width="828"/>
  <unicode hex="0025"/>
  <outline>
    <contour>
      <point x="194" y="270" type="curve" smooth="yes"/>
      <point x="320" y="270"/>
      <point x="384" y="440"/>
      <point x="384" y="562" type="curve" smooth="yes"/>
      <point x="384" y="650"/>
      <point x="347" y="721"/>
      <point x="264" y="721" type="curve" smooth="yes"/>
      <point x="137" y="721"/>
      <point x="74" y="551"/>
      <point x="74" y="429" type="curve" smooth="yes"/>
      <point x="74" y="342"/>
      <point x="111" y="270"/>
    </contour>
    <contour>
      <point x="196" y="296" type="curve" smooth="yes"/>
      <point x="130" y="296"/>
      <point x="105" y="359"/>
      <point x="105" y="436" type="curve" smooth="yes"/>
      <point x="105" y="538"/>
      <point x="157" y="695"/>
      <point x="262" y="695" type="curve" smooth="yes"/>
      <point x="328" y="695"/>
      <point x="353" y="633"/>
      <point x="353" y="556" type="curve" smooth="yes"/>
      <point x="353" y="453"/>
      <point x="301" y="296"/>
    </contour>
    <contour>
      <point x="142" y="-24" type="curve"/>
      <point x="142" y="-24"/>
      <point x="174" y="-24"/>
      <point x="174" y="-24" type="curve"/>
      <point x="174" y="-24"/>
      <point x="711" y="721"/>
      <point x="711" y="721" type="curve"/>
      <point x="711" y="721"/>
      <point x="678" y="721"/>
      <point x="678" y="721" type="curve"/>
      <point x="678" y="721"/>
      <point x="142" y="-24"/>
    </contour>
    <contour>
      <point x="593" y="-24" type="curve" smooth="yes"/>
      <point x="719" y="-24"/>
      <point x="783" y="146"/>
      <point x="783" y="268" type="curve" smooth="yes"/>
      <point x="783" y="355"/>
      <point x="746" y="427"/>
      <point x="663" y="427" type="curve" smooth="yes"/>
      <point x="536" y="427"/>
      <point x="473" y="257"/>
      <point x="473" y="135" type="curve" smooth="yes"/>
      <point x="473" y="48"/>
      <point x="510" y="-24"/>
    </contour>
    <contour>
      <point x="595" y="2" type="curve" smooth="yes"/>
      <point x="529" y="2"/>
      <point x="504" y="64"/>
      <point x="504" y="142" type="curve" smooth="yes"/>
      <point x="504" y="244"/>
      <point x="556" y="401"/>
      <point x="661" y="401" type="curve" smooth="yes"/>
      <point x="727" y="401"/>
      <point x="752" y="339"/>
      <point x="752" y="262" type="curve" smooth="yes"/>
      <point x="752" y="159"/>
      <point x="700" y="2"/>
    </contour>
  </outline>
</glyph>
<glyph name="cid41274" format="2">
  <advance height="1000" width="591"/>
  <unicode hex="0026"/>
  <outline>
    <contour>
      <point x="178" y="-24" type="curve" smooth="yes"/>
      <point x="259" y="-24"/>
      <point x="334" y="17"/>
      <point x="397" y="81" type="curve" smooth="yes"/>
      <point x="471" y="155"/>
      <point x="532" y="254"/>
      <point x="582" y="361" type="curve"/>
      <point x="582" y="361"/>
      <point x="552" y="361"/>
      <point x="552" y="361" type="curve"/>
      <point x="504" y="258"/>
      <point x="451" y="171"/>
      <point x="378" y="100" type="curve" smooth="yes"/>
      <point x="322" y="46"/>
      <point x="253" y="4"/>
      <point x="185" y="4" type="curve" smooth="yes"/>
      <point x="108" y="4"/>
      <point x="50" y="59"/>
      <point x="50" y="142" type="curve" smooth="yes"/>
      <point x="50" y="360"/>
      <point x="451" y="403"/>
      <point x="451" y="626" type="curve" smooth="yes"/>
      <point x="451" y="676"/>
      <point x="423" y="721"/>
      <point x="358" y="721" type="curve" smooth="yes"/>
      <point x="273" y="721"/>
      <point x="192" y="640"/>
      <point x="192" y="514" type="curve" smooth="yes"/>
      <point x="192" y="368"/>
      <point x="277" y="190"/>
      <point x="374" y="81" type="curve" smooth="yes"/>
      <point x="420" y="28"/>
      <point x="465" y="-7"/>
      <point x="506" y="-24" type="curve"/>
      <point x="506" y="-24"/>
      <point x="521" y="2"/>
      <point x="521" y="2" type="curve"/>
      <point x="481" y="20"/>
      <point x="440" y="55"/>
      <point x="397" y="102" type="curve" smooth="yes"/>
      <point x="301" y="207"/>
      <point x="222" y="379"/>
      <point x="222" y="519" type="curve" smooth="yes"/>
      <point x="222" y="618"/>
      <point x="278" y="693"/>
      <point x="355" y="693" type="curve" smooth="yes"/>
      <point x="402" y="693"/>
      <point x="421" y="656"/>
      <point x="421" y="618" type="curve" smooth="yes"/>
      <point x="421" y="418"/>
      <point x="17" y="379"/>
      <point x="17" y="135" type="curve" smooth="yes"/>
      <point x="17" y="37"/>
      <point x="86" y="-24"/>
    </contour>
  </outline>
</glyph>
<glyph name="cid43202" format="2">
  <advance height="1000" width="283"/>
  <unicode hex="0028"/>
  <outline>
    <contour>
      <point x="140" y="-201" type="curve"/>
      <point x="140" y="-201"/>
      <point x="161" y="-194"/>
      <point x="161" y="-194" type="curve"/>
      <point x="126" y="-107"/>
      <point x="109" y="20"/>
      <point x="109" y="129" type="curve" smooth="yes"/>
      <point x="109" y="381"/>
      <point x="196" y="626"/>
      <point x="351" y="769" type="curve"/>
      <point x="351" y="769"/>
      <point x="331" y="785"/>
      <point x="331" y="785" type="curve"/>
      <point x="174" y="636"/>
      <point x="78" y="401"/>
      <point x="78" y="135" type="curve" smooth="yes"/>
      <point x="78" y="15"/>
      <point x="102" y="-116"/>
    </contour>
  </outline>
</glyph>
<glyph name="cid43208" format="2">
  <advance height="1000" width="286"/>
  <unicode hex="0029"/>
  <outline>
    <contour>
      <point x="-39" y="-201" type="curve"/>
      <point x="118" y="-52"/>
      <point x="214" y="183"/>
      <point x="214" y="449" type="curve" smooth="yes"/>
      <point x="214" y="569"/>
      <point x="190" y="700"/>
      <point x="153" y="785" type="curve"/>
      <point x="153" y="785"/>
      <point x="131" y="778"/>
      <point x="131" y="778" type="curve"/>
      <point x="166" y="691"/>
      <point x="183" y="565"/>
      <point x="183" y="456" type="curve" smooth="yes"/>
      <point x="183" y="203"/>
      <point x="96" y="-42"/>
      <point x="-59" y="-185" type="curve"/>
      <point x="-59" y="-185"/>
      <point x="-39" y="-201"/>
    </contour>
  </outline>
</glyph>
<glyph name="cid43226" format="2">
  <advance height="1000" width="408"/>
  <unicode hex="002A"/>
  <outline>
    <contour>
      <point x="194" y="521" type="curve"/>
      <point x="194" y="521"/>
      <point x="275" y="599"/>
      <point x="275" y="599" type="curve"/>
      <point x="275" y="599"/>
      <point x="325" y="508"/>
      <point x="325" y="508" type="curve"/>
      <point x="325" y="508"/>
      <point x="347" y="521"/>
      <point x="347" y="521" type="curve"/>
      <point x="347" y="521"/>
      <point x="305" y="619"/>
      <point x="305" y="619" type="curve"/>
      <point x="305" y="619"/>
      <point x="410" y="647"/>
      <point x="410" y="647" type="curve"/>
      <point x="410" y="647"/>
      <point x="405" y="671"/>
      <point x="405" y="671" type="curve"/>
      <point x="405" y="671"/>
      <point x="303" y="656"/>
      <point x="303" y="656" type="curve"/>
      <point x="303" y="656"/>
      <point x="312" y="763"/>
      <point x="312" y="763" type="curve"/>
      <point x="312" y="763"/>
      <point x="288" y="765"/>
      <point x="288" y="765" type="curve"/>
      <point x="288" y="765"/>
      <point x="266" y="658"/>
      <point x="266" y="658" type="curve"/>
      <point x="266" y="658"/>
      <point x="166" y="693"/>
      <point x="166" y="693" type="curve"/>
      <point x="166" y="693"/>
      <point x="157" y="671"/>
      <point x="157" y="671" type="curve"/>
      <point x="157" y="671"/>
      <point x="246" y="623"/>
      <point x="246" y="623" type="curve"/>
      <point x="246" y="623"/>
      <point x="177" y="536"/>
      <point x="177" y="536" type="curve"/>
      <point x="177" y="536"/>
      <point x="194" y="521"/>
    </contour>
  </outline>
</glyph>
<glyph name="cid43686" format="2">
  <advance height="1000" width="497"/>
  <unicode hex="002B"/>
  <outline>
    <contour>
      <point x="249" y="109" type="curve"/>
      <point x="249" y="109"/>
      <point x="279" y="109"/>
      <point x="279" y="109" type="curve"/>
      <point x="279" y="109"/>
      <point x="279" y="336"/>
      <point x="279" y="336" type="curve"/>
      <point x="279" y="336"/>
      <point x="475" y="336"/>
      <point x="475" y="336" type="curve"/>
      <point x="475" y="336"/>
      <point x="475" y="364"/>
      <point x="475" y="364" type="curve"/>
      <point x="475" y="364"/>
      <point x="279" y="364"/>
      <point x="279" y="364" type="curve"/>
      <point x="279" y="364"/>
      <point x="279" y="584"/>
      <point x="279" y="584" type="curve"/>
      <point x="279" y="584"/>
      <point x="249" y="584"/>
      <point x="249" y="584" type="curve"/>
      <point x="249" y="584"/>
      <point x="249" y="364"/>
      <point x="249" y="364" type="curve"/>
      <point x="249" y="364"/>
      <point x="52" y="364"/>
      <point x="52" y="364" type="curve"/>
      <point x="52" y="364"/>
      <point x="52" y="336"/>
      <point x="52" y="336" type="curve"/>
      <point x="52" y="336"/>
      <point x="249" y="336"/>
      <point x="249" y="336" type="curve"/>
      <point x="249" y="336"/>
      <point x="249" y="109"/>
    </contour>
  </outline>
</glyph>
<glyph name="cid42987" format="2">
  <advance height="1000" width="220"/>
  <unicode hex="002C"/>
  <outline>
    <contour>
      <point x="-28" y="-170" type="curve"/>
      <point x="48" y="-140"/>
      <point x="107" y="-68"/>
      <point x="107" y="13" type="curve" smooth="yes"/>
      <point x="107" y="39"/>
      <point x="95" y="59"/>
      <point x="72" y="59" type="curve" smooth="yes"/>
      <point x="46" y="59"/>
      <point x="28" y="35"/>
      <point x="28" y="13" type="curve" smooth="yes"/>
      <point x="28" y="-7"/>
      <point x="41" y="-20"/>
      <point x="61" y="-20" type="curve" smooth="yes"/>
      <point x="70" y="-20"/>
      <point x="85" y="-18"/>
      <point x="92" y="-7" type="curve"/>
      <point x="92" y="-7"/>
      <point x="65" y="44"/>
      <point x="65" y="44" type="curve"/>
      <point x="65" y="44"/>
      <point x="68" y="-18"/>
      <point x="68" y="-18" type="curve"/>
      <point x="61" y="-72"/>
      <point x="20" y="-118"/>
      <point x="-37" y="-144" type="curve"/>
      <point x="-37" y="-144"/>
      <point x="-28" y="-170"/>
    </contour>
  </outline>
</glyph>
<glyph name="cid42981" format="2">
  <advance height="1000" width="220"/>
  <unicode hex="002E"/>
  <outline>
    <contour>
      <point x="55" y="-24" type="curve" smooth="yes"/>
      <point x="78" y="-24"/>
      <point x="98" y="0"/>
      <point x="98" y="24" type="curve" smooth="yes"/>
      <point x="98" y="44"/>
      <point x="89" y="59"/>
      <point x="70" y="59" type="curve" smooth="yes"/>
      <point x="46" y="59"/>
      <point x="24" y="33"/>
      <point x="24" y="9" type="curve" smooth="yes"/>
      <point x="24" y="-9"/>
      <point x="35" y="-24"/>
    </contour>
  </outline>
</glyph>
<glyph name="cid43220" format="2">
  <advance height="1000" width="382"/>
  <unicode hex="002F"/>
  <outline>
    <contour>
      <point x="-81" y="-185" type="curve"/>
      <point x="-81" y="-185"/>
      <point x="-50" y="-185"/>
      <point x="-50" y="-185" type="curve"/>
      <point x="-50" y="-185"/>
      <point x="477" y="763"/>
      <point x="477" y="763" type="curve"/>
      <point x="477" y="763"/>
      <point x="447" y="763"/>
      <point x="447" y="763" type="curve"/>
      <point x="447" y="763"/>
      <point x="-81" y="-185"/>
    </contour>
  </outline>
</glyph>
<glyph name="cid42858" format="2">
  <advance height="1000" width="497"/>
  <unicode hex="0031"/>
  <outline>
    <contour>
      <point x="193" y="-11" type="curve"/>
      <point x="193" y="-11"/>
      <point x="223" y="-11"/>
      <point x="223" y="-11" type="curve"/>
      <point x="223" y="-11"/>
      <point x="364" y="687"/>
      <point x="364" y="687" type="curve"/>
      <point x="364" y="687"/>
      <point x="338" y="687"/>
      <point x="338" y="687" type="curve"/>
      <point x="305" y="667"/>
      <point x="255" y="652"/>
      <point x="203" y="645" type="curve"/>
      <point x="203" y="645"/>
      <point x="198" y="623"/>
      <point x="198" y="623" type="curve"/>
      <point x="198" y="623"/>
      <point x="320" y="623"/>
      <point x="320" y="623" type="curve"/>
      <point x="320" y="623"/>
      <point x="193" y="-11"/>
    </contour>
  </outline>
</glyph>
<glyph name="cid42865" format="2">
  <advance height="1000" width="497"/>
  <unicode hex="0033"/>
  <outline>
    <contour>
      <point x="190" y="-24" type="curve" smooth="yes"/>
      <point x="331" y="-24"/>
      <point x="432" y="65"/>
      <point x="432" y="194" type="curve" smooth="yes"/>
      <point x="432" y="272"/>
      <point x="377" y="327"/>
      <point x="301" y="349" type="curve"/>
      <point x="301" y="349"/>
      <point x="301" y="353"/>
      <point x="301" y="353" type="curve"/>
      <point x="408" y="379"/>
      <point x="473" y="458"/>
      <point x="473" y="547" type="curve" smooth="yes"/>
      <point x="473" y="639"/>
      <point x="423" y="700"/>
      <point x="314" y="700" type="curve" smooth="yes"/>
      <point x="251" y="700"/>
      <point x="185" y="671"/>
      <point x="135" y="630" type="curve"/>
      <point x="135" y="630"/>
      <point x="155" y="606"/>
      <point x="155" y="606" type="curve"/>
      <point x="194" y="645"/>
      <point x="262" y="671"/>
      <point x="312" y="671" type="curve" smooth="yes"/>
      <point x="403" y="671"/>
      <point x="443" y="617"/>
      <point x="443" y="541" type="curve" smooth="yes"/>
      <point x="443" y="469"/>
      <point x="375" y="368"/>
      <point x="181" y="368" type="curve"/>
      <point x="181" y="368"/>
      <point x="174" y="340"/>
      <point x="174" y="340" type="curve"/>
      <point x="334" y="340"/>
      <point x="401" y="272"/>
      <point x="401" y="187" type="curve" smooth="yes"/>
      <point x="401" y="85"/>
      <point x="314" y="4"/>
      <point x="194" y="4" type="curve" smooth="yes"/>
      <point x="105" y="4"/>
      <point x="52" y="61"/>
      <point x="20" y="109" type="curve"/>
      <point x="20" y="109"/>
      <point x="-4" y="91"/>
      <point x="-4" y="91" type="curve"/>
      <point x="26" y="44"/>
      <point x="89" y="-24"/>
    </contour>
  </outline>
</glyph>
<glyph name="cid42867" format="2">
  <advance height="1000" width="497"/>
  <unicode hex="0035"/>
  <outline>
    <contour>
      <point x="190" y="-24" type="curve" smooth="yes"/>
      <point x="323" y="-24"/>
      <point x="438" y="81"/>
      <point x="438" y="242" type="curve" smooth="yes"/>
      <point x="438" y="364"/>
      <point x="362" y="425"/>
      <point x="257" y="425" type="curve" smooth="yes"/>
      <point x="211" y="425"/>
      <point x="174" y="412"/>
      <point x="146" y="397" type="curve"/>
      <point x="146" y="397"/>
      <point x="218" y="658"/>
      <point x="218" y="658" type="curve"/>
      <point x="218" y="658"/>
      <point x="480" y="658"/>
      <point x="480" y="658" type="curve"/>
      <point x="480" y="658"/>
      <point x="486" y="687"/>
      <point x="486" y="687" type="curve"/>
      <point x="486" y="687"/>
      <point x="196" y="687"/>
      <point x="196" y="687" type="curve"/>
      <point x="196" y="687"/>
      <point x="109" y="373"/>
      <point x="109" y="373" type="curve"/>
      <point x="109" y="373"/>
      <point x="129" y="357"/>
      <point x="129" y="357" type="curve"/>
      <point x="172" y="381"/>
      <point x="205" y="397"/>
      <point x="257" y="397" type="curve" smooth="yes"/>
      <point x="347" y="397"/>
      <point x="408" y="344"/>
      <point x="408" y="235" type="curve" smooth="yes"/>
      <point x="408" y="98"/>
      <point x="307" y="4"/>
      <point x="196" y="4" type="curve" smooth="yes"/>
      <point x="96" y="4"/>
      <point x="55" y="61"/>
      <point x="26" y="107" type="curve"/>
      <point x="26" y="107"/>
      <point x="2" y="89"/>
      <point x="2" y="89" type="curve"/>
      <point x="31" y="39"/>
      <point x="87" y="-24"/>
    </contour>
  </outline>
</glyph>
<glyph name="cid42875" format="2">
  <advance height="1000" width="497"/>
  <unicode hex="0037"/>
  <outline>
    <contour>
      <point x="148" y="-11" type="curve"/>
      <point x="148" y="-11"/>
      <point x="183" y="-11"/>
      <point x="183" y="-11" type="curve"/>
      <point x="238" y="233"/>
      <point x="314" y="436"/>
      <point x="532" y="665" type="curve"/>
      <point x="532" y="665"/>
      <point x="536" y="687"/>
      <point x="536" y="687" type="curve"/>
      <point x="536" y="687"/>
      <point x="131" y="687"/>
      <point x="131" y="687" type="curve"/>
      <point x="131" y="687"/>
      <point x="124" y="658"/>
      <point x="124" y="658" type="curve"/>
      <point x="124" y="658"/>
      <point x="491" y="658"/>
      <point x="491" y="658" type="curve"/>
      <point x="292" y="442"/>
      <point x="209" y="244"/>
    </contour>
  </outline>
</glyph>
<glyph name="cid42992" format="2">
  <advance height="1000" width="220"/>
  <unicode hex="003A"/>
  <outline>
    <contour>
      <point x="142" y="401" type="curve" smooth="yes"/>
      <point x="166" y="401"/>
      <point x="185" y="425"/>
      <point x="185" y="449" type="curve" smooth="yes"/>
      <point x="185" y="469"/>
      <point x="177" y="484"/>
      <point x="157" y="484" type="curve" smooth="yes"/>
      <point x="133" y="484"/>
      <point x="111" y="458"/>
      <point x="111" y="434" type="curve" smooth="yes"/>
      <point x="111" y="416"/>
      <point x="122" y="401"/>
    </contour>
    <contour>
      <point x="55" y="-24" type="curve" smooth="yes"/>
      <point x="78" y="-24"/>
      <point x="98" y="0"/>
      <point x="98" y="24" type="curve" smooth="yes"/>
      <point x="98" y="44"/>
      <point x="89" y="59"/>
      <point x="70" y="59" type="curve" smooth="yes"/>
      <point x="46" y="59"/>
      <point x="24" y="33"/>
      <point x="24" y="9" type="curve" smooth="yes"/>
      <point x="24" y="-9"/>
      <point x="35" y="-24"/>
    </contour>
  </outline>
</glyph>
<glyph name="cid42994" format="2">
  <advance height="1000" width="220"/>
  <unicode hex="003B"/>
  <outline>
    <contour>
      <point x="142" y="401" type="curve" smooth="yes"/>
      <point x="166" y="401"/>
      <point x="185" y="425"/>
      <point x="185" y="449" type="curve" smooth="yes"/>
      <point x="185" y="469"/>
      <point x="177" y="484"/>
      <point x="157" y="484" type="curve" smooth="yes"/>
      <point x="133" y="484"/>
      <point x="111" y="458"/>
      <point x="111" y="434" type="curve" smooth="yes"/>
      <point x="111" y="416"/>
      <point x="122" y="401"/>
    </contour>
    <contour>
      <point x="-28" y="-170" type="curve"/>
      <point x="48" y="-140"/>
      <point x="107" y="-68"/>
      <point x="107" y="13" type="curve" smooth="yes"/>
      <point x="107" y="39"/>
      <point x="95" y="59"/>
      <point x="72" y="59" type="curve" smooth="yes"/>
      <point x="46" y="59"/>
      <point x="28" y="35"/>
      <point x="28" y="13" type="curve" smooth="yes"/>
      <point x="28" y="-7"/>
      <point x="41" y="-20"/>
      <point x="61" y="-20" type="curve" smooth="yes"/>
      <point x="70" y="-20"/>
      <point x="85" y="-18"/>
      <point x="92" y="-7" type="curve"/>
      <point x="92" y="-7"/>
      <point x="65" y="44"/>
      <point x="65" y="44" type="curve"/>
      <point x="65" y="44"/>
      <point x="68" y="-18"/>
      <point x="68" y="-18" type="curve"/>
      <point x="61" y="-72"/>
      <point x="20" y="-118"/>
      <point x="-37" y="-144" type="curve"/>
      <point x="-37" y="-144"/>
      <point x="-28" y="-170"/>
    </contour>
  </outline>
</glyph>
<glyph name="cid43699" format="2">
  <advance height="1000" width="497"/>
  <unicode hex="003D"/>
  <outline>
    <contour>
      <point x="52" y="442" type="curve"/>
      <point x="52" y="442"/>
      <point x="475" y="442"/>
      <point x="475" y="442" type="curve"/>
      <point x="475" y="442"/>
      <point x="475" y="471"/>
      <point x="475" y="471" type="curve"/>
      <point x="475" y="471"/>
      <point x="52" y="471"/>
      <point x="52" y="471" type="curve"/>
      <point x="52" y="471"/>
      <point x="52" y="442"/>
    </contour>
    <contour>
      <point x="52" y="227" type="curve"/>
      <point x="52" y="227"/>
      <point x="475" y="227"/>
      <point x="475" y="227" type="curve"/>
      <point x="475" y="227"/>
      <point x="475" y="255"/>
      <point x="475" y="255" type="curve"/>
      <point x="475" y="255"/>
      <point x="52" y="255"/>
      <point x="52" y="255" type="curve"/>
      <point x="52" y="255"/>
      <point x="52" y="227"/>
    </contour>
  </outline>
</glyph>
<glyph name="cid43311" format="2">
  <advance height="1000" width="841"/>
  <unicode hex="0040"/>
  <outline>
    <contour>
      <point x="360" y="-166" type="curve" smooth="yes"/>
      <point x="419" y="-166"/>
      <point x="480" y="-153"/>
      <point x="536" y="-120" type="curve"/>
      <point x="536" y="-120"/>
      <point x="523" y="-96"/>
      <point x="523" y="-96" type="curve"/>
      <point x="475" y="-124"/>
      <point x="425" y="-137"/>
      <point x="362" y="-137" type="curve" smooth="yes"/>
      <point x="196" y="-137"/>
      <point x="81" y="-20"/>
      <point x="81" y="174" type="curve" smooth="yes"/>
      <point x="81" y="440"/>
      <point x="290" y="643"/>
      <point x="501" y="643" type="curve" smooth="yes"/>
      <point x="676" y="643"/>
      <point x="770" y="527"/>
      <point x="770" y="353" type="curve" smooth="yes"/>
      <point x="770" y="179"/>
      <point x="682" y="76"/>
      <point x="602" y="76" type="curve" smooth="yes"/>
      <point x="536" y="76"/>
      <point x="521" y="133"/>
      <point x="538" y="207" type="curve"/>
      <point x="538" y="207"/>
      <point x="591" y="438"/>
      <point x="591" y="438" type="curve"/>
      <point x="591" y="438"/>
      <point x="565" y="438"/>
      <point x="565" y="438" type="curve"/>
      <point x="565" y="438"/>
      <point x="552" y="390"/>
      <point x="552" y="390" type="curve"/>
      <point x="552" y="390"/>
      <point x="549" y="390"/>
      <point x="549" y="390" type="curve"/>
      <point x="530" y="425"/>
      <point x="501" y="447"/>
      <point x="467" y="447" type="curve" smooth="yes"/>
      <point x="351" y="447"/>
      <point x="259" y="318"/>
      <point x="259" y="196" type="curve" smooth="yes"/>
      <point x="259" y="102"/>
      <point x="318" y="57"/>
      <point x="377" y="57" type="curve" smooth="yes"/>
      <point x="427" y="57"/>
      <point x="467" y="89"/>
      <point x="504" y="131" type="curve"/>
      <point x="504" y="131"/>
      <point x="506" y="131"/>
      <point x="506" y="131" type="curve"/>
      <point x="514" y="83"/>
      <point x="545" y="48"/>
      <point x="597" y="48" type="curve" smooth="yes"/>
      <point x="698" y="48"/>
      <point x="800" y="161"/>
      <point x="800" y="360" type="curve" smooth="yes"/>
      <point x="800" y="545"/>
      <point x="693" y="671"/>
      <point x="504" y="671" type="curve" smooth="yes"/>
      <point x="275" y="671"/>
      <point x="50" y="458"/>
      <point x="50" y="168" type="curve" smooth="yes"/>
      <point x="50" y="-37"/>
      <point x="179" y="-166"/>
    </contour>
    <contour>
      <point x="379" y="85" type="curve" smooth="yes"/>
      <point x="331" y="85"/>
      <point x="290" y="122"/>
      <point x="290" y="203" type="curve" smooth="yes"/>
      <point x="290" y="299"/>
      <point x="362" y="418"/>
      <point x="464" y="418" type="curve" smooth="yes"/>
      <point x="491" y="418"/>
      <point x="517" y="405"/>
      <point x="543" y="357" type="curve"/>
      <point x="543" y="357"/>
      <point x="499" y="163"/>
      <point x="499" y="163" type="curve"/>
      <point x="460" y="111"/>
      <point x="419" y="85"/>
    </contour>
  </outline>
</glyph>
<glyph name="cid40017" format="2">
  <advance height="1000" width="623"/>
  <unicode hex="0044"/>
  <outline>
    <contour>
      <point x="44" y="-11" type="curve"/>
      <point x="44" y="-11"/>
      <point x="211" y="-11"/>
      <point x="211" y="-11" type="curve"/>
      <point x="464" y="-11"/>
      <point x="595" y="185"/>
      <point x="595" y="429" type="curve" smooth="yes"/>
      <point x="595" y="595"/>
      <point x="499" y="708"/>
      <point x="301" y="708" type="curve"/>
      <point x="301" y="708"/>
      <point x="187" y="708"/>
      <point x="187" y="708" type="curve"/>
      <point x="187" y="708"/>
      <point x="44" y="-11"/>
    </contour>
    <contour>
      <point x="81" y="17" type="curve"/>
      <point x="81" y="17"/>
      <point x="214" y="680"/>
      <point x="214" y="680" type="curve"/>
      <point x="214" y="680"/>
      <point x="299" y="680"/>
      <point x="299" y="680" type="curve"/>
      <point x="477" y="680"/>
      <point x="562" y="575"/>
      <point x="562" y="427" type="curve" smooth="yes"/>
      <point x="562" y="209"/>
      <point x="438" y="17"/>
      <point x="214" y="17" type="curve"/>
      <point x="214" y="17"/>
      <point x="81" y="17"/>
    </contour>
  </outline>
</glyph>
<glyph name="cid40018" format="2">
  <advance height="1000" width="528"/>
  <unicode hex="0045"/>
  <outline>
    <contour>
      <point x="44" y="-11" type="curve"/>
      <point x="44" y="-11"/>
      <point x="425" y="-11"/>
      <point x="425" y="-11" type="curve"/>
      <point x="425" y="-11"/>
      <point x="432" y="17"/>
      <point x="432" y="17" type="curve"/>
      <point x="432" y="17"/>
      <point x="81" y="17"/>
      <point x="81" y="17" type="curve"/>
      <point x="81" y="17"/>
      <point x="150" y="357"/>
      <point x="150" y="357" type="curve"/>
      <point x="150" y="357"/>
      <point x="436" y="357"/>
      <point x="436" y="357" type="curve"/>
      <point x="436" y="357"/>
      <point x="443" y="386"/>
      <point x="443" y="386" type="curve"/>
      <point x="443" y="386"/>
      <point x="155" y="386"/>
      <point x="155" y="386" type="curve"/>
      <point x="155" y="386"/>
      <point x="214" y="680"/>
      <point x="214" y="680" type="curve"/>
      <point x="214" y="680"/>
      <point x="554" y="680"/>
      <point x="554" y="680" type="curve"/>
      <point x="554" y="680"/>
      <point x="560" y="708"/>
      <point x="560" y="708" type="curve"/>
      <point x="560" y="708"/>
      <point x="187" y="708"/>
      <point x="187" y="708" type="curve"/>
      <point x="187" y="708"/>
      <point x="44" y="-11"/>
    </contour>
  </outline>
</glyph>
<glyph name="cid40020" format="2">
  <advance height="1000" width="488"/>
  <unicode hex="0046"/>
  <outline>
    <contour>
      <point x="44" y="-11" type="curve"/>
      <point x="44" y="-11"/>
      <point x="76" y="-11"/>
      <point x="76" y="-11" type="curve"/>
      <point x="76" y="-11"/>
      <point x="148" y="344"/>
      <point x="148" y="344" type="curve"/>
      <point x="148" y="344"/>
      <point x="434" y="344"/>
      <point x="434" y="344" type="curve"/>
      <point x="434" y="344"/>
      <point x="440" y="373"/>
      <point x="440" y="373" type="curve"/>
      <point x="440" y="373"/>
      <point x="153" y="373"/>
      <point x="153" y="373" type="curve"/>
      <point x="153" y="373"/>
      <point x="214" y="680"/>
      <point x="214" y="680" type="curve"/>
      <point x="214" y="680"/>
      <point x="554" y="680"/>
      <point x="554" y="680" type="curve"/>
      <point x="554" y="680"/>
      <point x="560" y="708"/>
      <point x="560" y="708" type="curve"/>
      <point x="560" y="708"/>
      <point x="187" y="708"/>
      <point x="187" y="708" type="curve"/>
      <point x="187" y="708"/>
      <point x="44" y="-11"/>
    </contour>
  </outline>
</glyph>
<glyph name="cid40021" format="2">
  <advance height="1000" width="621"/>
  <unicode hex="0047"/>
  <outline>
    <contour>
      <point x="314" y="-24" type="curve" smooth="yes"/>
      <point x="390" y="-24"/>
      <point x="451" y="4"/>
      <point x="501" y="48" type="curve"/>
      <point x="501" y="48"/>
      <point x="560" y="333"/>
      <point x="560" y="333" type="curve"/>
      <point x="560" y="333"/>
      <point x="355" y="333"/>
      <point x="355" y="333" type="curve"/>
      <point x="355" y="333"/>
      <point x="349" y="305"/>
      <point x="349" y="305" type="curve"/>
      <point x="349" y="305"/>
      <point x="521" y="305"/>
      <point x="521" y="305" type="curve"/>
      <point x="521" y="305"/>
      <point x="473" y="63"/>
      <point x="473" y="63" type="curve"/>
      <point x="438" y="30"/>
      <point x="386" y="4"/>
      <point x="316" y="4" type="curve" smooth="yes"/>
      <point x="157" y="4"/>
      <point x="96" y="122"/>
      <point x="96" y="264" type="curve" smooth="yes"/>
      <point x="96" y="449"/>
      <point x="216" y="693"/>
      <point x="429" y="693" type="curve" smooth="yes"/>
      <point x="502" y="693"/>
      <point x="549" y="656"/>
      <point x="578" y="604" type="curve"/>
      <point x="578" y="604"/>
      <point x="602" y="619"/>
      <point x="602" y="619" type="curve"/>
      <point x="573" y="674"/>
      <point x="517" y="721"/>
      <point x="432" y="721" type="curve" smooth="yes"/>
      <point x="194" y="721"/>
      <point x="63" y="470"/>
      <point x="63" y="257" type="curve" smooth="yes"/>
      <point x="63" y="94"/>
      <point x="144" y="-24"/>
    </contour>
  </outline>
</glyph>
<glyph name="cid40026" format="2">
  <advance height="1000" width="467"/>
  <unicode hex="004A"/>
  <outline>
    <contour>
      <point x="159" y="-24" type="curve" smooth="yes"/>
      <point x="262" y="-24"/>
      <point x="331" y="52"/>
      <point x="353" y="172" type="curve"/>
      <point x="353" y="172"/>
      <point x="460" y="708"/>
      <point x="460" y="708" type="curve"/>
      <point x="460" y="708"/>
      <point x="427" y="708"/>
      <point x="427" y="708" type="curve"/>
      <point x="427" y="708"/>
      <point x="320" y="174"/>
      <point x="320" y="174" type="curve"/>
      <point x="301" y="74"/>
      <point x="246" y="4"/>
      <point x="161" y="4" type="curve" smooth="yes"/>
      <point x="92" y="4"/>
      <point x="50" y="35"/>
      <point x="26" y="98" type="curve"/>
      <point x="26" y="98"/>
      <point x="2" y="87"/>
      <point x="2" y="87" type="curve"/>
      <point x="24" y="20"/>
      <point x="72" y="-24"/>
    </contour>
  </outline>
</glyph>
<glyph name="cid40032" format="2">
  <advance height="1000" width="569"/>
  <unicode hex="004B"/>
  <outline>
    <contour>
      <point x="44" y="-11" type="curve"/>
      <point x="44" y="-11"/>
      <point x="76" y="-11"/>
      <point x="76" y="-11" type="curve"/>
      <point x="76" y="-11"/>
      <point x="131" y="255"/>
      <point x="131" y="255" type="curve"/>
      <point x="131" y="255"/>
      <point x="314" y="427"/>
      <point x="314" y="427" type="curve"/>
      <point x="314" y="427"/>
      <point x="471" y="-11"/>
      <point x="471" y="-11" type="curve"/>
      <point x="471" y="-11"/>
      <point x="506" y="-11"/>
      <point x="506" y="-11" type="curve"/>
      <point x="506" y="-11"/>
      <point x="340" y="449"/>
      <point x="340" y="449" type="curve"/>
      <point x="340" y="449"/>
      <point x="615" y="708"/>
      <point x="615" y="708" type="curve"/>
      <point x="615" y="708"/>
      <point x="573" y="708"/>
      <point x="573" y="708" type="curve"/>
      <point x="573" y="708"/>
      <point x="142" y="305"/>
      <point x="142" y="305" type="curve"/>
      <point x="142" y="305"/>
      <point x="140" y="305"/>
      <point x="140" y="305" type="curve"/>
      <point x="140" y="305"/>
      <point x="220" y="708"/>
      <point x="220" y="708" type="curve"/>
      <point x="220" y="708"/>
      <point x="187" y="708"/>
      <point x="187" y="708" type="curve"/>
      <point x="187" y="708"/>
      <point x="44" y="-11"/>
    </contour>
  </outline>
</glyph>
<glyph name="cid40033" format="2">
  <advance height="1000" width="471"/>
  <unicode hex="004C"/>
  <outline>
    <contour>
      <point x="44" y="-11" type="curve"/>
      <point x="44" y="-11"/>
      <point x="403" y="-11"/>
      <point x="403" y="-11" type="curve"/>
      <point x="403" y="-11"/>
      <point x="410" y="17"/>
      <point x="410" y="17" type="curve"/>
      <point x="410" y="17"/>
      <point x="83" y="17"/>
      <point x="83" y="17" type="curve"/>
      <point x="83" y="17"/>
      <point x="220" y="708"/>
      <point x="220" y="708" type="curve"/>
      <point x="220" y="708"/>
      <point x="187" y="708"/>
      <point x="187" y="708" type="curve"/>
      <point x="187" y="708"/>
      <point x="44" y="-11"/>
    </contour>
  </outline>
</glyph>
<glyph name="cid40041" format="2">
  <advance height="1000" width="667"/>
  <unicode hex="0051"/>
  <outline>
    <contour>
      <point x="299" y="-24" type="curve" smooth="yes"/>
      <point x="514" y="-24"/>
      <point x="637" y="231"/>
      <point x="637" y="423" type="curve" smooth="yes"/>
      <point x="637" y="597"/>
      <point x="562" y="721"/>
      <point x="405" y="721" type="curve" smooth="yes"/>
      <point x="190" y="721"/>
      <point x="68" y="466"/>
      <point x="68" y="275" type="curve" smooth="yes"/>
      <point x="68" y="100"/>
      <point x="142" y="-24"/>
    </contour>
    <contour>
      <point x="301" y="4" type="curve" smooth="yes"/>
      <point x="159" y="4"/>
      <point x="100" y="118"/>
      <point x="100" y="279" type="curve" smooth="yes"/>
      <point x="100" y="449"/>
      <point x="207" y="693"/>
      <point x="403" y="693" type="curve" smooth="yes"/>
      <point x="545" y="693"/>
      <point x="604" y="580"/>
      <point x="604" y="418" type="curve" smooth="yes"/>
      <point x="604" y="248"/>
      <point x="497" y="4"/>
    </contour>
    <contour>
      <point x="480" y="-174" type="curve" smooth="yes"/>
      <point x="501" y="-174"/>
      <point x="517" y="-172"/>
      <point x="536" y="-166" type="curve"/>
      <point x="536" y="-166"/>
      <point x="530" y="-137"/>
      <point x="530" y="-137" type="curve"/>
      <point x="514" y="-142"/>
      <point x="499" y="-144"/>
      <point x="482" y="-144" type="curve" smooth="yes"/>
      <point x="386" y="-144"/>
      <point x="312" y="-100"/>
      <point x="296" y="-11" type="curve"/>
      <point x="296" y="-11"/>
      <point x="264" y="-4"/>
      <point x="264" y="-4" type="curve"/>
      <point x="281" y="-122"/>
      <point x="373" y="-174"/>
    </contour>
  </outline>
</glyph>
<glyph name="cid40050" format="2">
  <advance height="1000" width="491"/>
  <unicode hex="0056"/>
  <outline>
    <contour>
      <point x="159" y="-11" type="curve"/>
      <point x="159" y="-11"/>
      <point x="196" y="-11"/>
      <point x="196" y="-11" type="curve"/>
      <point x="196" y="-11"/>
      <point x="576" y="708"/>
      <point x="576" y="708" type="curve"/>
      <point x="576" y="708"/>
      <point x="543" y="708"/>
      <point x="543" y="708" type="curve"/>
      <point x="543" y="708"/>
      <point x="314" y="272"/>
      <point x="314" y="272" type="curve"/>
      <point x="273" y="196"/>
      <point x="229" y="109"/>
      <point x="190" y="30" type="curve"/>
      <point x="190" y="30"/>
      <point x="185" y="30"/>
      <point x="185" y="30" type="curve"/>
      <point x="179" y="111"/>
      <point x="170" y="194"/>
      <point x="161" y="272" type="curve"/>
      <point x="161" y="272"/>
      <point x="122" y="708"/>
      <point x="122" y="708" type="curve"/>
      <point x="122" y="708"/>
      <point x="92" y="708"/>
      <point x="92" y="708" type="curve"/>
      <point x="92" y="708"/>
      <point x="159" y="-11"/>
    </contour>
  </outline>
</glyph>
<glyph name="cid40051" format="2">
  <advance height="1000" width="791"/>
  <unicode hex="0057"/>
  <outline>
    <contour>
      <point x="120" y="-11" type="curve"/>
      <point x="120" y="-11"/>
      <point x="161" y="-11"/>
      <point x="161" y="-11" type="curve"/>
      <point x="161" y="-11"/>
      <point x="401" y="503"/>
      <point x="401" y="503" type="curve"/>
      <point x="427" y="562"/>
      <point x="453" y="615"/>
      <point x="475" y="674" type="curve"/>
      <point x="475" y="674"/>
      <point x="480" y="674"/>
      <point x="480" y="674" type="curve"/>
      <point x="480" y="615"/>
      <point x="482" y="562"/>
      <point x="482" y="503" type="curve"/>
      <point x="482" y="503"/>
      <point x="499" y="-11"/>
      <point x="499" y="-11" type="curve"/>
      <point x="499" y="-11"/>
      <point x="541" y="-11"/>
      <point x="541" y="-11" type="curve"/>
      <point x="541" y="-11"/>
      <point x="850" y="708"/>
      <point x="850" y="708" type="curve"/>
      <point x="850" y="708"/>
      <point x="815" y="708"/>
      <point x="815" y="708" type="curve"/>
      <point x="815" y="708"/>
      <point x="632" y="272"/>
      <point x="632" y="272" type="curve"/>
      <point x="597" y="194"/>
      <point x="565" y="115"/>
      <point x="532" y="33" type="curve"/>
      <point x="532" y="33"/>
      <point x="528" y="33"/>
      <point x="528" y="33" type="curve"/>
      <point x="525" y="115"/>
      <point x="523" y="194"/>
      <point x="519" y="272" type="curve"/>
      <point x="519" y="272"/>
      <point x="504" y="708"/>
      <point x="504" y="708" type="curve"/>
      <point x="504" y="708"/>
      <point x="467" y="708"/>
      <point x="467" y="708" type="curve"/>
      <point x="467" y="708"/>
      <point x="262" y="272"/>
      <point x="262" y="272" type="curve"/>
      <point x="227" y="194"/>
      <point x="190" y="115"/>
      <point x="153" y="33" type="curve"/>
      <point x="153" y="33"/>
      <point x="148" y="33"/>
      <point x="148" y="33" type="curve"/>
      <point x="150" y="115"/>
      <point x="148" y="194"/>
      <point x="150" y="272" type="curve"/>
      <point x="150" y="272"/>
      <point x="150" y="708"/>
      <point x="150" y="708" type="curve"/>
      <point x="150" y="708"/>
      <point x="118" y="708"/>
      <point x="118" y="708" type="curve"/>
      <point x="118" y="708"/>
      <point x="120" y="-11"/>
    </contour>
  </outline>
</glyph>
<glyph name="cid40056" format="2">
  <advance height="1000" width="547"/>
  <unicode hex="005A"/>
  <outline>
    <contour>
      <point x="2" y="-11" type="curve"/>
      <point x="2" y="-11"/>
      <point x="447" y="-11"/>
      <point x="447" y="-11" type="curve"/>
      <point x="447" y="-11"/>
      <point x="453" y="17"/>
      <point x="453" y="17" type="curve"/>
      <point x="453" y="17"/>
      <point x="50" y="17"/>
      <point x="50" y="17" type="curve"/>
      <point x="50" y="17"/>
      <point x="571" y="689"/>
      <point x="571" y="689" type="curve"/>
      <point x="571" y="689"/>
      <point x="576" y="708"/>
      <point x="576" y="708" type="curve"/>
      <point x="576" y="708"/>
      <point x="172" y="708"/>
      <point x="172" y="708" type="curve"/>
      <point x="172" y="708"/>
      <point x="166" y="680"/>
      <point x="166" y="680" type="curve"/>
      <point x="166" y="680"/>
      <point x="530" y="680"/>
      <point x="530" y="680" type="curve"/>
      <point x="530" y="680"/>
      <point x="7" y="9"/>
      <point x="7" y="9" type="curve"/>
      <point x="7" y="9"/>
      <point x="2" y="-11"/>
    </contour>
  </outline>
</glyph>
<glyph name="cid43212" format="2">
  <advance height="1000" width="286"/>
  <unicode hex="005B"/>
  <outline>
    <contour>
      <point x="20" y="-177" type="curve"/>
      <point x="20" y="-177"/>
      <point x="177" y="-177"/>
      <point x="177" y="-177" type="curve"/>
      <point x="177" y="-177"/>
      <point x="183" y="-153"/>
      <point x="183" y="-153" type="curve"/>
      <point x="183" y="-153"/>
      <point x="50" y="-153"/>
      <point x="50" y="-153" type="curve"/>
      <point x="50" y="-153"/>
      <point x="227" y="737"/>
      <point x="227" y="737" type="curve"/>
      <point x="227" y="737"/>
      <point x="362" y="737"/>
      <point x="362" y="737" type="curve"/>
      <point x="362" y="737"/>
      <point x="364" y="761"/>
      <point x="364" y="761" type="curve"/>
      <point x="364" y="761"/>
      <point x="207" y="761"/>
      <point x="207" y="761" type="curve"/>
      <point x="207" y="761"/>
      <point x="20" y="-177"/>
    </contour>
  </outline>
</glyph>
<glyph name="cid43194" format="2">
  <advance height="1000" width="528"/>
  <unicode hex="005F"/>
  <outline>
    <contour>
      <point x="-28" y="-133" type="curve"/>
      <point x="-28" y="-133"/>
      <point x="471" y="-133"/>
      <point x="471" y="-133" type="curve"/>
      <point x="471" y="-133"/>
      <point x="477" y="-103"/>
      <point x="477" y="-103" type="curve"/>
      <point x="477" y="-103"/>
      <point x="-22" y="-103"/>
      <point x="-22" y="-103" type="curve"/>
      <point x="-22" y="-103"/>
      <point x="-28" y="-133"/>
    </contour>
  </outline>
</glyph>
<glyph name="cid43926" format="2">
  <advance height="1000" width="549"/>
  <unicode hex="0060"/>
  <outline>
    <contour>
      <point x="412" y="610" type="curve"/>
      <point x="412" y="610"/>
      <point x="440" y="610"/>
      <point x="440" y="610" type="curve"/>
      <point x="440" y="610"/>
      <point x="314" y="774"/>
      <point x="314" y="774" type="curve"/>
      <point x="314" y="774"/>
      <point x="279" y="774"/>
      <point x="279" y="774" type="curve"/>
      <point x="279" y="774"/>
      <point x="277" y="769"/>
      <point x="277" y="769" type="curve"/>
      <point x="277" y="769"/>
      <point x="412" y="610"/>
    </contour>
  </outline>
</glyph>
<glyph name="cid40084" format="2">
  <advance height="1000" width="567"/>
  <unicode hex="0071"/>
  <outline>
    <contour>
      <point x="338" y="-253" type="curve"/>
      <point x="338" y="-253"/>
      <point x="368" y="-253"/>
      <point x="368" y="-253" type="curve"/>
      <point x="368" y="-253"/>
      <point x="521" y="510"/>
      <point x="521" y="510" type="curve"/>
      <point x="521" y="510"/>
      <point x="495" y="510"/>
      <point x="495" y="510" type="curve"/>
      <point x="495" y="510"/>
      <point x="475" y="436"/>
      <point x="475" y="436" type="curve"/>
      <point x="475" y="436"/>
      <point x="471" y="436"/>
      <point x="471" y="436" type="curve"/>
      <point x="443" y="488"/>
      <point x="397" y="523"/>
      <point x="334" y="523" type="curve" smooth="yes"/>
      <point x="190" y="523"/>
      <point x="50" y="364"/>
      <point x="50" y="163" type="curve" smooth="yes"/>
      <point x="50" y="41"/>
      <point x="111" y="-24"/>
      <point x="203" y="-24" type="curve" smooth="yes"/>
      <point x="277" y="-24"/>
      <point x="344" y="17"/>
      <point x="401" y="76" type="curve"/>
      <point x="401" y="76"/>
      <point x="403" y="76"/>
      <point x="403" y="76" type="curve"/>
      <point x="403" y="76"/>
      <point x="377" y="-57"/>
      <point x="377" y="-57" type="curve"/>
      <point x="377" y="-57"/>
      <point x="338" y="-253"/>
    </contour>
    <contour>
      <point x="205" y="4" type="curve" smooth="yes"/>
      <point x="129" y="4"/>
      <point x="81" y="59"/>
      <point x="81" y="170" type="curve" smooth="yes"/>
      <point x="81" y="331"/>
      <point x="201" y="495"/>
      <point x="331" y="495" type="curve" smooth="yes"/>
      <point x="384" y="495"/>
      <point x="427" y="466"/>
      <point x="469" y="394" type="curve"/>
      <point x="469" y="394"/>
      <point x="412" y="122"/>
      <point x="412" y="122" type="curve"/>
      <point x="347" y="48"/>
      <point x="277" y="4"/>
    </contour>
  </outline>
</glyph>
<glyph name="cid40086" format="2">
  <advance height="1000" width="336"/>
  <unicode hex="0072"/>
  <outline>
    <contour>
      <point x="48" y="-11" type="curve"/>
      <point x="48" y="-11"/>
      <point x="78" y="-11"/>
      <point x="78" y="-11" type="curve"/>
      <point x="78" y="-11"/>
      <point x="148" y="340"/>
      <point x="148" y="340" type="curve"/>
      <point x="196" y="436"/>
      <point x="266" y="493"/>
      <point x="323" y="493" type="curve" smooth="yes"/>
      <point x="342" y="493"/>
      <point x="353" y="490"/>
      <point x="362" y="486" type="curve"/>
      <point x="362" y="486"/>
      <point x="375" y="514"/>
      <point x="375" y="514" type="curve"/>
      <point x="360" y="521"/>
      <point x="342" y="523"/>
      <point x="329" y="523" type="curve" smooth="yes"/>
      <point x="262" y="523"/>
      <point x="209" y="473"/>
      <point x="166" y="412" type="curve"/>
      <point x="166" y="412"/>
      <point x="161" y="412"/>
      <point x="161" y="412" type="curve"/>
      <point x="161" y="412"/>
      <point x="179" y="510"/>
      <point x="179" y="510" type="curve"/>
      <point x="179" y="510"/>
      <point x="153" y="510"/>
      <point x="153" y="510" type="curve"/>
      <point x="153" y="510"/>
      <point x="48" y="-11"/>
    </contour>
  </outline>
</glyph>
<glyph name="cid40092" format="2">
  <advance height="1000" width="445"/>
  <unicode hex="0076"/>
  <outline>
    <contour>
      <point x="148" y="-11" type="curve"/>
      <point x="148" y="-11"/>
      <point x="190" y="-11"/>
      <point x="190" y="-11" type="curve"/>
      <point x="190" y="-11"/>
      <point x="477" y="510"/>
      <point x="477" y="510" type="curve"/>
      <point x="477" y="510"/>
      <point x="445" y="510"/>
      <point x="445" y="510" type="curve"/>
      <point x="445" y="510"/>
      <point x="259" y="170"/>
      <point x="259" y="170" type="curve"/>
      <point x="231" y="120"/>
      <point x="203" y="67"/>
      <point x="177" y="17" type="curve"/>
      <point x="177" y="17"/>
      <point x="172" y="17"/>
      <point x="172" y="17" type="curve"/>
      <point x="164" y="65"/>
      <point x="157" y="120"/>
      <point x="148" y="170" type="curve"/>
      <point x="148" y="170"/>
      <point x="94" y="510"/>
      <point x="94" y="510" type="curve"/>
      <point x="94" y="510"/>
      <point x="63" y="510"/>
      <point x="63" y="510" type="curve"/>
      <point x="63" y="510"/>
      <point x="148" y="-11"/>
    </contour>
  </outline>
</glyph>
<glyph name="cid40099" format="2">
  <advance height="1000" width="419"/>
  <unicode hex="007A"/>
  <outline>
    <contour>
      <point x="-11" y="-11" type="curve"/>
      <point x="-11" y="-11"/>
      <point x="347" y="-11"/>
      <point x="347" y="-11" type="curve"/>
      <point x="347" y="-11"/>
      <point x="353" y="17"/>
      <point x="353" y="17" type="curve"/>
      <point x="353" y="17"/>
      <point x="35" y="17"/>
      <point x="35" y="17" type="curve"/>
      <point x="35" y="17"/>
      <point x="440" y="490"/>
      <point x="440" y="490" type="curve"/>
      <point x="440" y="490"/>
      <point x="443" y="510"/>
      <point x="443" y="510" type="curve"/>
      <point x="443" y="510"/>
      <point x="126" y="510"/>
      <point x="126" y="510" type="curve"/>
      <point x="126" y="510"/>
      <point x="120" y="482"/>
      <point x="120" y="482" type="curve"/>
      <point x="120" y="482"/>
      <point x="397" y="482"/>
      <point x="397" y="482" type="curve"/>
      <point x="397" y="482"/>
      <point x="-9" y="9"/>
      <point x="-9" y="9" type="curve"/>
      <point x="-9" y="9"/>
      <point x="-11" y="-11"/>
    </contour>
  </outline>
</glyph>
<glyph name="cid43216" format="2">
  <advance height="1000" width="283"/>
  <unicode hex="007B"/>
  <outline>
    <contour>
      <point x="142" y="-177" type="curve"/>
      <point x="142" y="-177"/>
      <point x="174" y="-177"/>
      <point x="174" y="-177" type="curve"/>
      <point x="174" y="-177"/>
      <point x="181" y="-153"/>
      <point x="181" y="-153" type="curve"/>
      <point x="181" y="-153"/>
      <point x="148" y="-153"/>
      <point x="148" y="-153" type="curve"/>
      <point x="94" y="-153"/>
      <point x="78" y="-131"/>
      <point x="78" y="-87" type="curve" smooth="yes"/>
      <point x="78" y="-13"/>
      <point x="142" y="153"/>
      <point x="142" y="229" type="curve" smooth="yes"/>
      <point x="142" y="251"/>
      <point x="137" y="273"/>
      <point x="102" y="288" type="curve"/>
      <point x="102" y="288"/>
      <point x="102" y="292"/>
      <point x="102" y="292" type="curve"/>
      <point x="148" y="305"/>
      <point x="168" y="344"/>
      <point x="181" y="408" type="curve" smooth="yes"/>
      <point x="194" y="477"/>
      <point x="203" y="554"/>
      <point x="216" y="619" type="curve" smooth="yes"/>
      <point x="231" y="698"/>
      <point x="255" y="737"/>
      <point x="323" y="737" type="curve"/>
      <point x="323" y="737"/>
      <point x="358" y="737"/>
      <point x="358" y="737" type="curve"/>
      <point x="358" y="737"/>
      <point x="362" y="761"/>
      <point x="362" y="761" type="curve"/>
      <point x="362" y="761"/>
      <point x="327" y="761"/>
      <point x="327" y="761" type="curve"/>
      <point x="250" y="761"/>
      <point x="211" y="732"/>
      <point x="190" y="623" type="curve" smooth="yes"/>
      <point x="174" y="549"/>
      <point x="166" y="464"/>
      <point x="153" y="394" type="curve" smooth="yes"/>
      <point x="144" y="351"/>
      <point x="122" y="305"/>
      <point x="46" y="305" type="curve"/>
      <point x="46" y="305"/>
      <point x="39" y="279"/>
      <point x="39" y="279" type="curve"/>
      <point x="105" y="279"/>
      <point x="116" y="248"/>
      <point x="116" y="222" type="curve" smooth="yes"/>
      <point x="116" y="150"/>
      <point x="50" y="-20"/>
      <point x="50" y="-96" type="curve" smooth="yes"/>
      <point x="50" y="-153"/>
      <point x="80" y="-177"/>
    </contour>
  </outline>
</glyph>
<glyph name="cid43222" format="2">
  <advance height="1000" width="231"/>
  <unicode hex="007C"/>
  <outline>
    <contour>
      <point x="109" y="-283" type="curve"/>
      <point x="109" y="-283"/>
      <point x="137" y="-283"/>
      <point x="137" y="-283" type="curve"/>
      <point x="137" y="-283"/>
      <point x="137" y="807"/>
      <point x="137" y="807" type="curve"/>
      <point x="137" y="807"/>
      <point x="109" y="807"/>
      <point x="109" y="807" type="curve"/>
      <point x="109" y="807"/>
      <point x="109" y="-283"/>
    </contour>
  </outline>
</glyph>
<glyph name="cid43218" format="2">
  <advance height="1000" width="286"/>
  <unicode hex="007D"/>
  <outline>
    <contour>
      <point x="-70" y="-177" type="curve"/>
      <point x="-70" y="-177"/>
      <point x="-35" y="-177"/>
      <point x="-35" y="-177" type="curve"/>
      <point x="43" y="-177"/>
      <point x="81" y="-148"/>
      <point x="102" y="-39" type="curve" smooth="yes"/>
      <point x="118" y="35"/>
      <point x="126" y="120"/>
      <point x="140" y="190" type="curve" smooth="yes"/>
      <point x="148" y="233"/>
      <point x="170" y="279"/>
      <point x="246" y="279" type="curve"/>
      <point x="246" y="279"/>
      <point x="253" y="305"/>
      <point x="253" y="305" type="curve"/>
      <point x="187" y="305"/>
      <point x="177" y="336"/>
      <point x="177" y="362" type="curve" smooth="yes"/>
      <point x="177" y="434"/>
      <point x="242" y="604"/>
      <point x="242" y="680" type="curve" smooth="yes"/>
      <point x="242" y="737"/>
      <point x="213" y="761"/>
      <point x="150" y="761" type="curve"/>
      <point x="150" y="761"/>
      <point x="118" y="761"/>
      <point x="118" y="761" type="curve"/>
      <point x="118" y="761"/>
      <point x="111" y="737"/>
      <point x="111" y="737" type="curve"/>
      <point x="111" y="737"/>
      <point x="144" y="737"/>
      <point x="144" y="737" type="curve"/>
      <point x="198" y="737"/>
      <point x="214" y="715"/>
      <point x="214" y="671" type="curve" smooth="yes"/>
      <point x="214" y="597"/>
      <point x="150" y="432"/>
      <point x="150" y="355" type="curve" smooth="yes"/>
      <point x="150" y="333"/>
      <point x="155" y="311"/>
      <point x="190" y="296" type="curve"/>
      <point x="190" y="296"/>
      <point x="190" y="292"/>
      <point x="190" y="292" type="curve"/>
      <point x="144" y="279"/>
      <point x="124" y="240"/>
      <point x="111" y="176" type="curve" smooth="yes"/>
      <point x="98" y="107"/>
      <point x="89" y="30"/>
      <point x="76" y="-35" type="curve" smooth="yes"/>
      <point x="61" y="-113"/>
      <point x="37" y="-153"/>
      <point x="-31" y="-153" type="curve"/>
      <point x="-31" y="-153"/>
      <point x="-65" y="-153"/>
      <point x="-65" y="-153" type="curve"/>
      <point x="-65" y="-153"/>
      <point x="-70" y="-177"/>
    </contour>
  </outline>
</glyph>
<glyph name="cid43719" format="2">
  <advance height="1000" width="497"/>
  <unicode hex="007E"/>
  <outline>
    <contour>
      <point x="353" y="285" type="curve" smooth="yes"/>
      <point x="392" y="285"/>
      <point x="434" y="314"/>
      <point x="462" y="371" type="curve"/>
      <point x="462" y="371"/>
      <point x="438" y="384"/>
      <point x="438" y="384" type="curve"/>
      <point x="412" y="333"/>
      <point x="386" y="314"/>
      <point x="353" y="314" type="curve" smooth="yes"/>
      <point x="294" y="314"/>
      <point x="242" y="414"/>
      <point x="164" y="414" type="curve" smooth="yes"/>
      <point x="124" y="414"/>
      <point x="83" y="386"/>
      <point x="55" y="329" type="curve"/>
      <point x="55" y="329"/>
      <point x="78" y="316"/>
      <point x="78" y="316" type="curve"/>
      <point x="105" y="366"/>
      <point x="131" y="386"/>
      <point x="164" y="386" type="curve" smooth="yes"/>
      <point x="222" y="386"/>
      <point x="275" y="285"/>
    </contour>
  </outline>
</glyph>
<glyph name="cid43602" format="2">
  <advance height="1000" width="497"/>
  <unicode hex="00A3"/>
  <outline>
    <contour>
      <point x="9" y="-11" type="curve"/>
      <point x="9" y="-11"/>
      <point x="386" y="-11"/>
      <point x="386" y="-11" type="curve"/>
      <point x="386" y="-11"/>
      <point x="390" y="17"/>
      <point x="390" y="17" type="curve"/>
      <point x="390" y="17"/>
      <point x="87" y="17"/>
      <point x="87" y="17" type="curve"/>
      <point x="87" y="17"/>
      <point x="87" y="22"/>
      <point x="87" y="22" type="curve"/>
      <point x="166" y="89"/>
      <point x="205" y="172"/>
      <point x="205" y="288" type="curve" smooth="yes"/>
      <point x="205" y="350"/>
      <point x="194" y="422"/>
      <point x="194" y="477" type="curve" smooth="yes"/>
      <point x="194" y="591"/>
      <point x="262" y="671"/>
      <point x="358" y="671" type="curve" smooth="yes"/>
      <point x="414" y="671"/>
      <point x="451" y="639"/>
      <point x="473" y="595" type="curve"/>
      <point x="473" y="595"/>
      <point x="497" y="610"/>
      <point x="497" y="610" type="curve"/>
      <point x="475" y="658"/>
      <point x="427" y="700"/>
      <point x="360" y="700" type="curve" smooth="yes"/>
      <point x="242" y="700"/>
      <point x="164" y="615"/>
      <point x="164" y="471" type="curve" smooth="yes"/>
      <point x="164" y="413"/>
      <point x="174" y="337"/>
      <point x="174" y="281" type="curve" smooth="yes"/>
      <point x="174" y="170"/>
      <point x="124" y="65"/>
      <point x="13" y="6" type="curve"/>
      <point x="13" y="6"/>
      <point x="9" y="-11"/>
    </contour>
    <contour>
      <point x="70" y="312" type="curve"/>
      <point x="70" y="312"/>
      <point x="375" y="312"/>
      <point x="375" y="312" type="curve"/>
      <point x="375" y="312"/>
      <point x="382" y="340"/>
      <point x="382" y="340" type="curve"/>
      <point x="382" y="340"/>
      <point x="174" y="340"/>
      <point x="174" y="340" type="curve"/>
      <point x="174" y="340"/>
      <point x="76" y="336"/>
      <point x="76" y="336" type="curve"/>
      <point x="76" y="336"/>
      <point x="70" y="312"/>
    </contour>
  </outline>
</glyph>
<glyph name="cid43596" format="2">
  <advance height="1000" width="497"/>
  <unicode hex="00A4"/>
  <outline>
    <contour>
      <point x="33" y="133" type="curve"/>
      <point x="33" y="133"/>
      <point x="111" y="202"/>
      <point x="111" y="202" type="curve"/>
      <point x="135" y="167"/>
      <point x="173" y="148"/>
      <point x="222" y="148" type="curve" smooth="yes"/>
      <point x="273" y="148"/>
      <point x="322" y="170"/>
      <point x="360" y="206" type="curve"/>
      <point x="360" y="206"/>
      <point x="419" y="129"/>
      <point x="419" y="129" type="curve"/>
      <point x="419" y="129"/>
      <point x="440" y="146"/>
      <point x="440" y="146" type="curve"/>
      <point x="440" y="146"/>
      <point x="379" y="227"/>
      <point x="379" y="227" type="curve"/>
      <point x="416" y="270"/>
      <point x="440" y="329"/>
      <point x="440" y="392" type="curve" smooth="yes"/>
      <point x="440" y="425"/>
      <point x="435" y="454"/>
      <point x="424" y="477" type="curve"/>
      <point x="424" y="477"/>
      <point x="508" y="551"/>
      <point x="508" y="551" type="curve"/>
      <point x="508" y="551"/>
      <point x="491" y="573"/>
      <point x="491" y="573" type="curve"/>
      <point x="491" y="573"/>
      <point x="410" y="502"/>
      <point x="410" y="502" type="curve"/>
      <point x="385" y="535"/>
      <point x="348" y="554"/>
      <point x="301" y="554" type="curve" smooth="yes"/>
      <point x="253" y="554"/>
      <point x="208" y="534"/>
      <point x="171" y="502" type="curve"/>
      <point x="171" y="502"/>
      <point x="120" y="571"/>
      <point x="120" y="571" type="curve"/>
      <point x="120" y="571"/>
      <point x="98" y="554"/>
      <point x="98" y="554" type="curve"/>
      <point x="98" y="554"/>
      <point x="150" y="483"/>
      <point x="150" y="483" type="curve"/>
      <point x="109" y="438"/>
      <point x="83" y="376"/>
      <point x="83" y="309" type="curve" smooth="yes"/>
      <point x="83" y="277"/>
      <point x="88" y="250"/>
      <point x="97" y="227" type="curve"/>
      <point x="97" y="227"/>
      <point x="15" y="155"/>
      <point x="15" y="155" type="curve"/>
      <point x="15" y="155"/>
      <point x="33" y="133"/>
    </contour>
    <contour>
      <point x="225" y="176" type="curve" smooth="yes"/>
      <point x="153" y="176"/>
      <point x="113" y="226"/>
      <point x="113" y="316" type="curve" smooth="yes"/>
      <point x="113" y="434"/>
      <point x="208" y="525"/>
      <point x="299" y="525" type="curve" smooth="yes"/>
      <point x="371" y="525"/>
      <point x="410" y="476"/>
      <point x="410" y="386" type="curve" smooth="yes"/>
      <point x="410" y="268"/>
      <point x="315" y="176"/>
    </contour>
  </outline>
</glyph>
<glyph name="cid43603" format="2">
  <advance height="1000" width="497"/>
  <unicode hex="00A5"/>
  <outline>
    <contour>
      <point x="179" y="-11" type="curve"/>
      <point x="179" y="-11"/>
      <point x="209" y="-11"/>
      <point x="209" y="-11" type="curve"/>
      <point x="209" y="-11"/>
      <point x="244" y="168"/>
      <point x="244" y="168" type="curve"/>
      <point x="244" y="168"/>
      <point x="421" y="168"/>
      <point x="421" y="168" type="curve"/>
      <point x="421" y="168"/>
      <point x="427" y="194"/>
      <point x="427" y="194" type="curve"/>
      <point x="427" y="194"/>
      <point x="251" y="194"/>
      <point x="251" y="194" type="curve"/>
      <point x="251" y="194"/>
      <point x="268" y="285"/>
      <point x="268" y="285" type="curve"/>
      <point x="268" y="285"/>
      <point x="445" y="285"/>
      <point x="445" y="285" type="curve"/>
      <point x="445" y="285"/>
      <point x="451" y="312"/>
      <point x="451" y="312" type="curve"/>
      <point x="451" y="312"/>
      <point x="288" y="312"/>
      <point x="288" y="312" type="curve"/>
      <point x="288" y="312"/>
      <point x="538" y="687"/>
      <point x="538" y="687" type="curve"/>
      <point x="538" y="687"/>
      <point x="506" y="687"/>
      <point x="506" y="687" type="curve"/>
      <point x="506" y="687"/>
      <point x="362" y="464"/>
      <point x="362" y="464" type="curve"/>
      <point x="327" y="416"/>
      <point x="296" y="368"/>
      <point x="259" y="312" type="curve"/>
      <point x="259" y="312"/>
      <point x="255" y="312"/>
      <point x="255" y="312" type="curve"/>
      <point x="242" y="368"/>
      <point x="229" y="416"/>
      <point x="216" y="464" type="curve"/>
      <point x="216" y="464"/>
      <point x="155" y="687"/>
      <point x="155" y="687" type="curve"/>
      <point x="155" y="687"/>
      <point x="124" y="687"/>
      <point x="124" y="687" type="curve"/>
      <point x="124" y="687"/>
      <point x="231" y="312"/>
      <point x="231" y="312" type="curve"/>
      <point x="231" y="312"/>
      <point x="68" y="312"/>
      <point x="68" y="312" type="curve"/>
      <point x="68" y="312"/>
      <point x="61" y="285"/>
      <point x="61" y="285" type="curve"/>
      <point x="61" y="285"/>
      <point x="238" y="285"/>
      <point x="238" y="285" type="curve"/>
      <point x="238" y="285"/>
      <point x="220" y="194"/>
      <point x="220" y="194" type="curve"/>
      <point x="220" y="194"/>
      <point x="44" y="194"/>
      <point x="44" y="194" type="curve"/>
      <point x="44" y="194"/>
      <point x="37" y="168"/>
      <point x="37" y="168" type="curve"/>
      <point x="37" y="168"/>
      <point x="214" y="168"/>
      <point x="214" y="168" type="curve"/>
      <point x="214" y="168"/>
      <point x="179" y="-11"/>
    </contour>
  </outline>
</glyph>
<glyph name="cid43224" format="2">
  <advance height="1000" width="231"/>
  <unicode hex="00A6"/>
  <outline>
    <contour>
      <point x="109" y="288" type="curve"/>
      <point x="109" y="288"/>
      <point x="137" y="288"/>
      <point x="137" y="288" type="curve"/>
      <point x="137" y="288"/>
      <point x="137" y="807"/>
      <point x="137" y="807" type="curve"/>
      <point x="137" y="807"/>
      <point x="109" y="807"/>
      <point x="109" y="807" type="curve"/>
      <point x="109" y="807"/>
      <point x="109" y="288"/>
    </contour>
    <contour>
      <point x="109" y="-283" type="curve"/>
      <point x="109" y="-283"/>
      <point x="137" y="-283"/>
      <point x="137" y="-283" type="curve"/>
      <point x="137" y="-283"/>
      <point x="137" y="229"/>
      <point x="137" y="229" type="curve"/>
      <point x="137" y="229"/>
      <point x="109" y="229"/>
      <point x="109" y="229" type="curve"/>
      <point x="109" y="229"/>
      <point x="109" y="-283"/>
    </contour>
  </outline>
</glyph>
<glyph name="cid43232" format="2">
  <advance height="1000" width="495"/>
  <unicode hex="00A7"/>
  <outline>
    <contour>
      <point x="301" y="144" type="curve"/>
      <point x="392" y="176"/>
      <point x="445" y="211"/>
      <point x="445" y="307" type="curve" smooth="yes"/>
      <point x="445" y="469"/>
      <point x="203" y="469"/>
      <point x="203" y="597" type="curve" smooth="yes"/>
      <point x="203" y="663"/>
      <point x="257" y="702"/>
      <point x="312" y="702" type="curve" smooth="yes"/>
      <point x="362" y="702"/>
      <point x="405" y="674"/>
      <point x="438" y="634" type="curve"/>
      <point x="438" y="634"/>
      <point x="462" y="656"/>
      <point x="462" y="656" type="curve"/>
      <point x="425" y="695"/>
      <point x="375" y="730"/>
      <point x="314" y="730" type="curve" smooth="yes"/>
      <point x="235" y="730"/>
      <point x="172" y="678"/>
      <point x="172" y="591" type="curve" smooth="yes"/>
      <point x="172" y="449"/>
      <point x="414" y="449"/>
      <point x="414" y="301" type="curve" smooth="yes"/>
      <point x="414" y="222"/>
      <point x="371" y="194"/>
      <point x="290" y="168" type="curve"/>
      <point x="290" y="168"/>
      <point x="301" y="144"/>
    </contour>
    <contour>
      <point x="190" y="-59" type="curve" smooth="yes"/>
      <point x="277" y="-59"/>
      <point x="344" y="9"/>
      <point x="344" y="89" type="curve" smooth="yes"/>
      <point x="344" y="244"/>
      <point x="98" y="227"/>
      <point x="98" y="373" type="curve" smooth="yes"/>
      <point x="98" y="445"/>
      <point x="146" y="486"/>
      <point x="220" y="512" type="curve"/>
      <point x="220" y="512"/>
      <point x="211" y="536"/>
      <point x="211" y="536" type="curve"/>
      <point x="129" y="510"/>
      <point x="68" y="456"/>
      <point x="68" y="366" type="curve" smooth="yes"/>
      <point x="68" y="207"/>
      <point x="314" y="224"/>
      <point x="314" y="83" type="curve" smooth="yes"/>
      <point x="314" y="17"/>
      <point x="257" y="-31"/>
      <point x="192" y="-31" type="curve" smooth="yes"/>
      <point x="140" y="-31"/>
      <point x="89" y="-4"/>
      <point x="50" y="39" type="curve"/>
      <point x="50" y="39"/>
      <point x="28" y="15"/>
      <point x="28" y="15" type="curve"/>
      <point x="74" y="-31"/>
      <point x="129" y="-59"/>
    </contour>
  </outline>
</glyph>
<glyph name="cid43940" format="2">
  <advance height="1000" width="549"/>
  <unicode hex="00A8"/>
  <outline>
    <contour>
      <point x="277" y="645" type="curve" smooth="yes"/>
      <point x="294" y="645"/>
      <point x="312" y="663"/>
      <point x="312" y="684" type="curve" smooth="yes"/>
      <point x="312" y="704"/>
      <point x="301" y="715"/>
      <point x="283" y="715" type="curve" smooth="yes"/>
      <point x="266" y="715"/>
      <point x="249" y="698"/>
      <point x="249" y="674" type="curve" smooth="yes"/>
      <point x="249" y="656"/>
      <point x="259" y="645"/>
    </contour>
    <contour>
      <point x="458" y="645" type="curve" smooth="yes"/>
      <point x="475" y="645"/>
      <point x="493" y="663"/>
      <point x="493" y="684" type="curve" smooth="yes"/>
      <point x="493" y="704"/>
      <point x="482" y="715"/>
      <point x="464" y="715" type="curve" smooth="yes"/>
      <point x="447" y="715"/>
      <point x="429" y="698"/>
      <point x="429" y="674" type="curve" smooth="yes"/>
      <point x="429" y="656"/>
      <point x="440" y="645"/>
    </contour>
  </outline>
</glyph>
<glyph name="cid43724" format="2">
  <advance height="1000" width="497"/>
  <unicode hex="00AC"/>
  <outline>
    <contour>
      <point x="445" y="109" type="curve"/>
      <point x="445" y="109"/>
      <point x="475" y="109"/>
      <point x="475" y="109" type="curve"/>
      <point x="475" y="109"/>
      <point x="475" y="364"/>
      <point x="475" y="364" type="curve"/>
      <point x="475" y="364"/>
      <point x="52" y="364"/>
      <point x="52" y="364" type="curve"/>
      <point x="52" y="364"/>
      <point x="52" y="336"/>
      <point x="52" y="336" type="curve"/>
      <point x="52" y="336"/>
      <point x="445" y="336"/>
      <point x="445" y="336" type="curve"/>
      <point x="445" y="336"/>
      <point x="445" y="109"/>
    </contour>
  </outline>
</glyph>
<glyph name="cid43285" format="2">
  <advance height="1000" width="410"/>
  <unicode hex="00AE"/>
  <outline>
    <contour>
      <point x="240" y="351" type="curve" smooth="yes"/>
      <point x="355" y="351"/>
      <point x="449" y="461"/>
      <point x="449" y="582" type="curve" smooth="yes"/>
      <point x="449" y="687"/>
      <point x="373" y="759"/>
      <point x="281" y="759" type="curve" smooth="yes"/>
      <point x="164" y="759"/>
      <point x="72" y="646"/>
      <point x="72" y="527" type="curve" smooth="yes"/>
      <point x="72" y="421"/>
      <point x="148" y="351"/>
    </contour>
    <contour>
      <point x="242" y="377" type="curve" smooth="yes"/>
      <point x="153" y="377"/>
      <point x="100" y="442"/>
      <point x="100" y="532" type="curve" smooth="yes"/>
      <point x="100" y="639"/>
      <point x="181" y="732"/>
      <point x="279" y="732" type="curve" smooth="yes"/>
      <point x="366" y="732"/>
      <point x="421" y="667"/>
      <point x="421" y="578" type="curve" smooth="yes"/>
      <point x="421" y="469"/>
      <point x="338" y="377"/>
    </contour>
    <contour>
      <point x="177" y="445" type="curve"/>
      <point x="177" y="445"/>
      <point x="205" y="445"/>
      <point x="205" y="445" type="curve"/>
      <point x="205" y="445"/>
      <point x="222" y="527"/>
      <point x="222" y="527" type="curve"/>
      <point x="222" y="527"/>
      <point x="266" y="527"/>
      <point x="266" y="527" type="curve"/>
      <point x="266" y="527"/>
      <point x="294" y="445"/>
      <point x="294" y="445" type="curve"/>
      <point x="294" y="445"/>
      <point x="325" y="445"/>
      <point x="325" y="445" type="curve"/>
      <point x="325" y="445"/>
      <point x="292" y="534"/>
      <point x="292" y="534" type="curve"/>
      <point x="323" y="545"/>
      <point x="347" y="571"/>
      <point x="347" y="606" type="curve" smooth="yes"/>
      <point x="347" y="647"/>
      <point x="323" y="669"/>
      <point x="281" y="669" type="curve"/>
      <point x="281" y="669"/>
      <point x="222" y="669"/>
      <point x="222" y="669" type="curve"/>
      <point x="222" y="669"/>
      <point x="177" y="445"/>
    </contour>
    <contour>
      <point x="229" y="554" type="curve"/>
      <point x="229" y="554"/>
      <point x="244" y="643"/>
      <point x="244" y="643" type="curve"/>
      <point x="244" y="643"/>
      <point x="277" y="643"/>
      <point x="277" y="643" type="curve"/>
      <point x="305" y="643"/>
      <point x="318" y="628"/>
      <point x="318" y="604" type="curve" smooth="yes"/>
      <point x="318" y="571"/>
      <point x="294" y="554"/>
      <point x="257" y="554" type="curve"/>
      <point x="257" y="554"/>
      <point x="229" y="554"/>
    </contour>
  </outline>
</glyph>
<glyph name="cid43942" format="2">
  <advance height="1000" width="549"/>
  <unicode hex="00AF"/>
  <outline>
    <contour>
      <point x="238" y="654" type="curve"/>
      <point x="238" y="654"/>
      <point x="491" y="654"/>
      <point x="491" y="654" type="curve"/>
      <point x="491" y="654"/>
      <point x="495" y="682"/>
      <point x="495" y="682" type="curve"/>
      <point x="495" y="682"/>
      <point x="242" y="682"/>
      <point x="242" y="682" type="curve"/>
      <point x="242" y="682"/>
      <point x="238" y="654"/>
    </contour>
  </outline>
</glyph>
<glyph name="cid43713" format="2">
  <advance height="1000" width="497"/>
  <unicode hex="00B1"/>
  <outline>
    <contour>
      <point x="249" y="109" type="curve"/>
      <point x="249" y="109"/>
      <point x="279" y="109"/>
      <point x="279" y="109" type="curve"/>
      <point x="279" y="109"/>
      <point x="279" y="336"/>
      <point x="279" y="336" type="curve"/>
      <point x="279" y="336"/>
      <point x="475" y="336"/>
      <point x="475" y="336" type="curve"/>
      <point x="475" y="336"/>
      <point x="475" y="364"/>
      <point x="475" y="364" type="curve"/>
      <point x="475" y="364"/>
      <point x="279" y="364"/>
      <point x="279" y="364" type="curve"/>
      <point x="279" y="364"/>
      <point x="279" y="584"/>
      <point x="279" y="584" type="curve"/>
      <point x="279" y="584"/>
      <point x="249" y="584"/>
      <point x="249" y="584" type="curve"/>
      <point x="249" y="584"/>
      <point x="249" y="364"/>
      <point x="249" y="364" type="curve"/>
      <point x="249" y="364"/>
      <point x="52" y="364"/>
      <point x="52" y="364" type="curve"/>
      <point x="52" y="364"/>
      <point x="52" y="336"/>
      <point x="52" y="336" type="curve"/>
      <point x="52" y="336"/>
      <point x="249" y="336"/>
      <point x="249" y="336" type="curve"/>
      <point x="249" y="336"/>
      <point x="249" y="109"/>
    </contour>
    <contour>
      <point x="52" y="-11" type="curve"/>
      <point x="52" y="-11"/>
      <point x="475" y="-11"/>
      <point x="475" y="-11" type="curve"/>
      <point x="475" y="-11"/>
      <point x="475" y="17"/>
      <point x="475" y="17" type="curve"/>
      <point x="475" y="17"/>
      <point x="52" y="17"/>
      <point x="52" y="17" type="curve"/>
      <point x="52" y="17"/>
      <point x="52" y="-11"/>
    </contour>
  </outline>
</glyph>
<glyph name="cid43332" format="2">
  <advance height="1000" width="375"/>
  <unicode hex="00B2"/>
  <outline>
    <contour>
      <point x="98" y="436" type="curve"/>
      <point x="98" y="436"/>
      <point x="362" y="436"/>
      <point x="362" y="436" type="curve"/>
      <point x="362" y="436"/>
      <point x="366" y="462"/>
      <point x="366" y="462" type="curve"/>
      <point x="366" y="462"/>
      <point x="148" y="462"/>
      <point x="148" y="462" type="curve"/>
      <point x="325" y="591"/>
      <point x="405" y="667"/>
      <point x="405" y="767" type="curve" smooth="yes"/>
      <point x="405" y="833"/>
      <point x="362" y="874"/>
      <point x="292" y="874" type="curve" smooth="yes"/>
      <point x="242" y="874"/>
      <point x="198" y="841"/>
      <point x="166" y="807" type="curve"/>
      <point x="166" y="807"/>
      <point x="185" y="787"/>
      <point x="185" y="787" type="curve"/>
      <point x="216" y="822"/>
      <point x="253" y="848"/>
      <point x="290" y="848" type="curve" smooth="yes"/>
      <point x="348" y="848"/>
      <point x="375" y="817"/>
      <point x="375" y="765" type="curve" smooth="yes"/>
      <point x="375" y="674"/>
      <point x="302" y="608"/>
      <point x="102" y="462" type="curve"/>
      <point x="102" y="462"/>
      <point x="98" y="436"/>
    </contour>
  </outline>
</glyph>
<glyph name="cid43334" format="2">
  <advance height="1000" width="375"/>
  <unicode hex="00B3"/>
  <outline>
    <contour>
      <point x="229" y="423" type="curve" smooth="yes"/>
      <point x="305" y="423"/>
      <point x="373" y="471"/>
      <point x="373" y="554" type="curve" smooth="yes"/>
      <point x="373" y="591"/>
      <point x="347" y="636"/>
      <point x="290" y="652" type="curve"/>
      <point x="355" y="669"/>
      <point x="399" y="719"/>
      <point x="399" y="772" type="curve" smooth="yes"/>
      <point x="399" y="837"/>
      <point x="353" y="874"/>
      <point x="288" y="874" type="curve" smooth="yes"/>
      <point x="244" y="874"/>
      <point x="203" y="859"/>
      <point x="166" y="828" type="curve"/>
      <point x="166" y="828"/>
      <point x="181" y="805"/>
      <point x="181" y="805" type="curve"/>
      <point x="214" y="833"/>
      <point x="252" y="848"/>
      <point x="286" y="848" type="curve" smooth="yes"/>
      <point x="338" y="848"/>
      <point x="368" y="817"/>
      <point x="368" y="772" type="curve" smooth="yes"/>
      <point x="368" y="724"/>
      <point x="325" y="669"/>
      <point x="214" y="669" type="curve"/>
      <point x="214" y="669"/>
      <point x="207" y="643"/>
      <point x="207" y="643" type="curve"/>
      <point x="296" y="643"/>
      <point x="342" y="597"/>
      <point x="342" y="547" type="curve" smooth="yes"/>
      <point x="342" y="484"/>
      <point x="290" y="449"/>
      <point x="231" y="449" type="curve" smooth="yes"/>
      <point x="172" y="449"/>
      <point x="140" y="484"/>
      <point x="118" y="525" type="curve"/>
      <point x="118" y="525"/>
      <point x="94" y="510"/>
      <point x="94" y="510" type="curve"/>
      <point x="116" y="466"/>
      <point x="164" y="423"/>
    </contour>
  </outline>
</glyph>
<glyph name="cid43932" format="2">
  <advance height="1000" width="549"/>
  <unicode hex="00B4"/>
  <outline>
    <contour>
      <point x="277" y="610" type="curve"/>
      <point x="277" y="610"/>
      <point x="310" y="610"/>
      <point x="310" y="610" type="curve"/>
      <point x="310" y="610"/>
      <point x="495" y="769"/>
      <point x="495" y="769" type="curve"/>
      <point x="495" y="769"/>
      <point x="493" y="774"/>
      <point x="493" y="774" type="curve"/>
      <point x="493" y="774"/>
      <point x="451" y="774"/>
      <point x="451" y="774" type="curve"/>
      <point x="451" y="774"/>
      <point x="277" y="610"/>
    </contour>
  </outline>
</glyph>
<glyph name="cid43234" format="2">
  <advance height="1000" width="519"/>
  <unicode hex="00B6"/>
  <outline>
    <contour>
      <point x="314" y="-98" type="curve"/>
      <point x="314" y="-98"/>
      <point x="344" y="-98"/>
      <point x="344" y="-98" type="curve"/>
      <point x="344" y="-98"/>
      <point x="506" y="708"/>
      <point x="506" y="708" type="curve"/>
      <point x="506" y="708"/>
      <point x="475" y="708"/>
      <point x="475" y="708" type="curve"/>
      <point x="475" y="708"/>
      <point x="314" y="-98"/>
    </contour>
    <contour>
      <point x="327" y="259" type="curve"/>
      <point x="327" y="259"/>
      <point x="329" y="259"/>
      <point x="329" y="259" type="curve"/>
      <point x="329" y="259"/>
      <point x="421" y="708"/>
      <point x="421" y="708" type="curve"/>
      <point x="421" y="708"/>
      <point x="364" y="708"/>
      <point x="364" y="708" type="curve"/>
      <point x="222" y="708"/>
      <point x="83" y="619"/>
      <point x="83" y="445" type="curve" smooth="yes"/>
      <point x="83" y="323"/>
      <point x="194" y="259"/>
    </contour>
  </outline>
</glyph>
<glyph name="cid43152" format="2">
  <advance height="1000" width="220"/>
  <unicode hex="00B7"/>
  <outline>
    <contour>
      <point x="120" y="307" type="curve" smooth="yes"/>
      <point x="144" y="307"/>
      <point x="164" y="331"/>
      <point x="164" y="355" type="curve" smooth="yes"/>
      <point x="164" y="375"/>
      <point x="155" y="390"/>
      <point x="135" y="390" type="curve" smooth="yes"/>
      <point x="111" y="390"/>
      <point x="89" y="364"/>
      <point x="89" y="340" type="curve" smooth="yes"/>
      <point x="89" y="323"/>
      <point x="100" y="307"/>
    </contour>
  </outline>
</glyph>
<glyph name="cid43952" format="2">
  <advance height="1000" width="549"/>
  <unicode hex="00B8"/>
  <outline>
    <contour>
      <point x="100" y="-246" type="curve"/>
      <point x="198" y="-244"/>
      <point x="266" y="-208"/>
      <point x="266" y="-146" type="curve" smooth="yes"/>
      <point x="266" y="-116"/>
      <point x="255" y="-98"/>
      <point x="205" y="-85" type="curve"/>
      <point x="205" y="-85"/>
      <point x="251" y="-9"/>
      <point x="251" y="-9" type="curve"/>
      <point x="251" y="-9"/>
      <point x="220" y="-9"/>
      <point x="220" y="-9" type="curve"/>
      <point x="220" y="-9"/>
      <point x="159" y="-105"/>
      <point x="159" y="-105" type="curve"/>
      <point x="208" y="-109"/>
      <point x="233" y="-122"/>
      <point x="233" y="-155" type="curve" smooth="yes"/>
      <point x="233" y="-191"/>
      <point x="187" y="-218"/>
      <point x="98" y="-220" type="curve"/>
      <point x="98" y="-220"/>
      <point x="100" y="-246"/>
    </contour>
  </outline>
</glyph>
<glyph name="cid43330" format="2">
  <advance height="1000" width="371"/>
  <unicode hex="00B9"/>
  <outline>
    <contour>
      <point x="225" y="436" type="curve"/>
      <point x="225" y="436"/>
      <point x="253" y="436"/>
      <point x="253" y="436" type="curve"/>
      <point x="253" y="436"/>
      <point x="338" y="861"/>
      <point x="338" y="861" type="curve"/>
      <point x="338" y="861"/>
      <point x="314" y="861"/>
      <point x="314" y="861" type="curve"/>
      <point x="283" y="839"/>
      <point x="255" y="830"/>
      <point x="201" y="822" type="curve"/>
      <point x="201" y="822"/>
      <point x="196" y="800"/>
      <point x="196" y="800" type="curve"/>
      <point x="196" y="800"/>
      <point x="296" y="800"/>
      <point x="296" y="800" type="curve"/>
      <point x="296" y="800"/>
      <point x="225" y="436"/>
    </contour>
  </outline>
</glyph>
<glyph name="cid43456" format="2">
  <advance height="1000" width="371"/>
  <unicode hex="00BA"/>
  <outline>
    <contour>
      <point x="218" y="427" type="curve" smooth="yes"/>
      <point x="310" y="427"/>
      <point x="405" y="517"/>
      <point x="405" y="654" type="curve" smooth="yes"/>
      <point x="405" y="739"/>
      <point x="362" y="789"/>
      <point x="288" y="789" type="curve" smooth="yes"/>
      <point x="196" y="789"/>
      <point x="100" y="700"/>
      <point x="100" y="562" type="curve" smooth="yes"/>
      <point x="100" y="477"/>
      <point x="144" y="427"/>
    </contour>
    <contour>
      <point x="220" y="453" type="curve" smooth="yes"/>
      <point x="161" y="453"/>
      <point x="129" y="495"/>
      <point x="129" y="567" type="curve" smooth="yes"/>
      <point x="129" y="671"/>
      <point x="205" y="763"/>
      <point x="286" y="763" type="curve" smooth="yes"/>
      <point x="344" y="763"/>
      <point x="377" y="721"/>
      <point x="377" y="650" type="curve" smooth="yes"/>
      <point x="377" y="545"/>
      <point x="301" y="453"/>
    </contour>
  </outline>
</glyph>
<glyph name="cid43133" format="2">
  <advance height="1000" width="405"/>
  <unicode hex="00BB"/>
  <outline>
    <contour>
      <point x="39" y="70" type="curve"/>
      <point x="39" y="70"/>
      <point x="211" y="240"/>
      <point x="211" y="240" type="curve"/>
      <point x="211" y="240"/>
      <point x="218" y="275"/>
      <point x="218" y="275" type="curve"/>
      <point x="218" y="275"/>
      <point x="107" y="456"/>
      <point x="107" y="456" type="curve"/>
      <point x="107" y="456"/>
      <point x="85" y="442"/>
      <point x="85" y="442" type="curve"/>
      <point x="85" y="442"/>
      <point x="183" y="262"/>
      <point x="183" y="262" type="curve"/>
      <point x="183" y="262"/>
      <point x="22" y="87"/>
      <point x="22" y="87" type="curve"/>
      <point x="22" y="87"/>
      <point x="39" y="70"/>
    </contour>
    <contour>
      <point x="187" y="70" type="curve"/>
      <point x="187" y="70"/>
      <point x="360" y="240"/>
      <point x="360" y="240" type="curve"/>
      <point x="360" y="240"/>
      <point x="366" y="275"/>
      <point x="366" y="275" type="curve"/>
      <point x="366" y="275"/>
      <point x="255" y="456"/>
      <point x="255" y="456" type="curve"/>
      <point x="255" y="456"/>
      <point x="233" y="442"/>
      <point x="233" y="442" type="curve"/>
      <point x="233" y="442"/>
      <point x="331" y="262"/>
      <point x="331" y="262" type="curve"/>
      <point x="331" y="262"/>
      <point x="170" y="87"/>
      <point x="170" y="87" type="curve"/>
      <point x="170" y="87"/>
      <point x="187" y="70"/>
    </contour>
  </outline>
</glyph>
<glyph name="cid43654" format="2">
  <advance height="1000" width="789"/>
  <unicode hex="00BC"/>
  <outline>
    <contour>
      <point x="170" y="283" type="curve"/>
      <point x="170" y="283"/>
      <point x="198" y="283"/>
      <point x="198" y="283" type="curve"/>
      <point x="198" y="283"/>
      <point x="283" y="708"/>
      <point x="283" y="708" type="curve"/>
      <point x="283" y="708"/>
      <point x="259" y="708"/>
      <point x="259" y="708" type="curve"/>
      <point x="229" y="687"/>
      <point x="201" y="678"/>
      <point x="146" y="669" type="curve"/>
      <point x="146" y="669"/>
      <point x="142" y="647"/>
      <point x="142" y="647" type="curve"/>
      <point x="142" y="647"/>
      <point x="242" y="647"/>
      <point x="242" y="647" type="curve"/>
      <point x="242" y="647"/>
      <point x="170" y="283"/>
    </contour>
    <contour>
      <point x="131" y="-24" type="curve"/>
      <point x="131" y="-24"/>
      <point x="164" y="-24"/>
      <point x="164" y="-24" type="curve"/>
      <point x="164" y="-24"/>
      <point x="700" y="721"/>
      <point x="700" y="721" type="curve"/>
      <point x="700" y="721"/>
      <point x="667" y="721"/>
      <point x="667" y="721" type="curve"/>
      <point x="667" y="721"/>
      <point x="131" y="-24"/>
    </contour>
    <contour>
      <point x="593" y="-11" type="curve"/>
      <point x="593" y="-11"/>
      <point x="621" y="-11"/>
      <point x="621" y="-11" type="curve"/>
      <point x="621" y="-11"/>
      <point x="706" y="414"/>
      <point x="706" y="414" type="curve"/>
      <point x="706" y="414"/>
      <point x="687" y="414"/>
      <point x="687" y="414" type="curve"/>
      <point x="687" y="414"/>
      <point x="438" y="139"/>
      <point x="438" y="139" type="curve"/>
      <point x="438" y="139"/>
      <point x="434" y="120"/>
      <point x="434" y="120" type="curve"/>
      <point x="434" y="120"/>
      <point x="709" y="120"/>
      <point x="709" y="120" type="curve"/>
      <point x="709" y="120"/>
      <point x="715" y="146"/>
      <point x="715" y="146" type="curve"/>
      <point x="715" y="146"/>
      <point x="477" y="146"/>
      <point x="477" y="146" type="curve"/>
      <point x="477" y="146"/>
      <point x="589" y="270"/>
      <point x="589" y="270" type="curve"/>
      <point x="589" y="270"/>
      <point x="667" y="360"/>
      <point x="667" y="360" type="curve"/>
      <point x="667" y="360"/>
      <point x="671" y="360"/>
      <point x="671" y="360" type="curve"/>
      <point x="671" y="360"/>
      <point x="645" y="253"/>
      <point x="645" y="253" type="curve"/>
      <point x="645" y="253"/>
      <point x="593" y="-11"/>
    </contour>
  </outline>
</glyph>
<glyph name="cid43656" format="2">
  <advance height="1000" width="807"/>
  <unicode hex="00BD"/>
  <outline>
    <contour>
      <point x="166" y="283" type="curve"/>
      <point x="166" y="283"/>
      <point x="194" y="283"/>
      <point x="194" y="283" type="curve"/>
      <point x="194" y="283"/>
      <point x="279" y="708"/>
      <point x="279" y="708" type="curve"/>
      <point x="279" y="708"/>
      <point x="255" y="708"/>
      <point x="255" y="708" type="curve"/>
      <point x="225" y="687"/>
      <point x="196" y="678"/>
      <point x="142" y="669" type="curve"/>
      <point x="142" y="669"/>
      <point x="137" y="647"/>
      <point x="137" y="647" type="curve"/>
      <point x="137" y="647"/>
      <point x="238" y="647"/>
      <point x="238" y="647" type="curve"/>
      <point x="238" y="647"/>
      <point x="166" y="283"/>
    </contour>
    <contour>
      <point x="98" y="-24" type="curve"/>
      <point x="98" y="-24"/>
      <point x="131" y="-24"/>
      <point x="131" y="-24" type="curve"/>
      <point x="131" y="-24"/>
      <point x="667" y="721"/>
      <point x="667" y="721" type="curve"/>
      <point x="667" y="721"/>
      <point x="634" y="721"/>
      <point x="634" y="721" type="curve"/>
      <point x="634" y="721"/>
      <point x="98" y="-24"/>
    </contour>
    <contour>
      <point x="438" y="-11" type="curve"/>
      <point x="438" y="-11"/>
      <point x="702" y="-11"/>
      <point x="702" y="-11" type="curve"/>
      <point x="702" y="-11"/>
      <point x="706" y="15"/>
      <point x="706" y="15" type="curve"/>
      <point x="706" y="15"/>
      <point x="488" y="15"/>
      <point x="488" y="15" type="curve"/>
      <point x="665" y="144"/>
      <point x="746" y="220"/>
      <point x="746" y="320" type="curve" smooth="yes"/>
      <point x="746" y="386"/>
      <point x="702" y="427"/>
      <point x="632" y="427" type="curve" smooth="yes"/>
      <point x="582" y="427"/>
      <point x="538" y="394"/>
      <point x="506" y="360" type="curve"/>
      <point x="506" y="360"/>
      <point x="525" y="340"/>
      <point x="525" y="340" type="curve"/>
      <point x="556" y="375"/>
      <point x="593" y="401"/>
      <point x="630" y="401" type="curve" smooth="yes"/>
      <point x="688" y="401"/>
      <point x="715" y="371"/>
      <point x="715" y="318" type="curve" smooth="yes"/>
      <point x="715" y="227"/>
      <point x="642" y="161"/>
      <point x="443" y="15" type="curve"/>
      <point x="443" y="15"/>
      <point x="438" y="-11"/>
    </contour>
  </outline>
</glyph>
<glyph name="cid43002" format="2">
  <advance height="1000" width="414"/>
  <unicode hex="00BF"/>
  <outline>
    <contour>
      <point x="133" y="-231" type="curve" smooth="yes"/>
      <point x="198" y="-231"/>
      <point x="259" y="-196"/>
      <point x="294" y="-157" type="curve"/>
      <point x="294" y="-157"/>
      <point x="275" y="-135"/>
      <point x="275" y="-135" type="curve"/>
      <point x="240" y="-174"/>
      <point x="187" y="-203"/>
      <point x="135" y="-203" type="curve" smooth="yes"/>
      <point x="65" y="-203"/>
      <point x="24" y="-159"/>
      <point x="24" y="-85" type="curve" smooth="yes"/>
      <point x="24" y="74"/>
      <point x="251" y="129"/>
      <point x="257" y="320" type="curve"/>
      <point x="257" y="320"/>
      <point x="229" y="323"/>
      <point x="229" y="323" type="curve"/>
      <point x="220" y="144"/>
      <point x="-7" y="89"/>
      <point x="-7" y="-92" type="curve" smooth="yes"/>
      <point x="-7" y="-179"/>
      <point x="46" y="-231"/>
    </contour>
    <contour>
      <point x="262" y="442" type="curve" smooth="yes"/>
      <point x="286" y="442"/>
      <point x="307" y="469"/>
      <point x="307" y="493" type="curve" smooth="yes"/>
      <point x="307" y="510"/>
      <point x="296" y="525"/>
      <point x="277" y="525" type="curve" smooth="yes"/>
      <point x="253" y="525"/>
      <point x="233" y="501"/>
      <point x="233" y="477" type="curve" smooth="yes"/>
      <point x="233" y="458"/>
      <point x="242" y="442"/>
    </contour>
  </outline>
</glyph>
<glyph name="cid40102" format="2">
  <advance height="1000" width="523"/>
  <unicode hex="00C1"/>
  <outline>
    <contour>
      <point x="-46" y="-11" type="curve"/>
      <point x="-46" y="-11"/>
      <point x="-13" y="-11"/>
      <point x="-13" y="-11" type="curve"/>
      <point x="-13" y="-11"/>
      <point x="222" y="421"/>
      <point x="222" y="421" type="curve"/>
      <point x="268" y="506"/>
      <point x="312" y="582"/>
      <point x="355" y="671" type="curve"/>
      <point x="355" y="671"/>
      <point x="360" y="671"/>
      <point x="360" y="671" type="curve"/>
      <point x="368" y="584"/>
      <point x="379" y="501"/>
      <point x="388" y="421" type="curve"/>
      <point x="388" y="421"/>
      <point x="440" y="-11"/>
      <point x="440" y="-11" type="curve"/>
      <point x="440" y="-11"/>
      <point x="473" y="-11"/>
      <point x="473" y="-11" type="curve"/>
      <point x="473" y="-11"/>
      <point x="382" y="708"/>
      <point x="382" y="708" type="curve"/>
      <point x="382" y="708"/>
      <point x="349" y="708"/>
      <point x="349" y="708" type="curve"/>
      <point x="349" y="708"/>
      <point x="-46" y="-11"/>
    </contour>
    <contour>
      <point x="113" y="248" type="curve"/>
      <point x="113" y="248"/>
      <point x="421" y="248"/>
      <point x="421" y="248" type="curve"/>
      <point x="421" y="248"/>
      <point x="427" y="277"/>
      <point x="427" y="277" type="curve"/>
      <point x="427" y="277"/>
      <point x="122" y="277"/>
      <point x="122" y="277" type="curve"/>
      <point x="122" y="277"/>
      <point x="113" y="248"/>
    </contour>
    <contour>
      <point x="283" y="763" type="curve"/>
      <point x="283" y="763"/>
      <point x="320" y="763"/>
      <point x="320" y="763" type="curve"/>
      <point x="320" y="763"/>
      <point x="512" y="889"/>
      <point x="512" y="889" type="curve"/>
      <point x="512" y="889"/>
      <point x="510" y="894"/>
      <point x="510" y="894" type="curve"/>
      <point x="510" y="894"/>
      <point x="458" y="894"/>
      <point x="458" y="894" type="curve"/>
      <point x="458" y="894"/>
      <point x="283" y="763"/>
    </contour>
  </outline>
</glyph>
<glyph name="cid40105" format="2">
  <advance height="1000" width="523"/>
  <unicode hex="00C3"/>
  <outline>
    <contour>
      <point x="-46" y="-11" type="curve"/>
      <point x="-46" y="-11"/>
      <point x="-13" y="-11"/>
      <point x="-13" y="-11" type="curve"/>
      <point x="-13" y="-11"/>
      <point x="222" y="421"/>
      <point x="222" y="421" type="curve"/>
      <point x="268" y="506"/>
      <point x="312" y="582"/>
      <point x="355" y="671" type="curve"/>
      <point x="355" y="671"/>
      <point x="360" y="671"/>
      <point x="360" y="671" type="curve"/>
      <point x="368" y="584"/>
      <point x="379" y="501"/>
      <point x="388" y="421" type="curve"/>
      <point x="388" y="421"/>
      <point x="440" y="-11"/>
      <point x="440" y="-11" type="curve"/>
      <point x="440" y="-11"/>
      <point x="473" y="-11"/>
      <point x="473" y="-11" type="curve"/>
      <point x="473" y="-11"/>
      <point x="382" y="708"/>
      <point x="382" y="708" type="curve"/>
      <point x="382" y="708"/>
      <point x="349" y="708"/>
      <point x="349" y="708" type="curve"/>
      <point x="349" y="708"/>
      <point x="-46" y="-11"/>
    </contour>
    <contour>
      <point x="113" y="248" type="curve"/>
      <point x="113" y="248"/>
      <point x="421" y="248"/>
      <point x="421" y="248" type="curve"/>
      <point x="421" y="248"/>
      <point x="427" y="277"/>
      <point x="427" y="277" type="curve"/>
      <point x="427" y="277"/>
      <point x="122" y="277"/>
      <point x="122" y="277" type="curve"/>
      <point x="122" y="277"/>
      <point x="113" y="248"/>
    </contour>
    <contour>
      <point x="453" y="776" type="curve" smooth="yes"/>
      <point x="510" y="776"/>
      <point x="552" y="826"/>
      <point x="562" y="892" type="curve"/>
      <point x="562" y="892"/>
      <point x="538" y="894"/>
      <point x="538" y="894" type="curve"/>
      <point x="521" y="840"/>
      <point x="494" y="804"/>
      <point x="460" y="804" type="curve" smooth="yes"/>
      <point x="400" y="804"/>
      <point x="388" y="896"/>
      <point x="314" y="896" type="curve" smooth="yes"/>
      <point x="257" y="896"/>
      <point x="216" y="846"/>
      <point x="205" y="780" type="curve"/>
      <point x="205" y="780"/>
      <point x="229" y="778"/>
      <point x="229" y="778" type="curve"/>
      <point x="244" y="832"/>
      <point x="274" y="868"/>
      <point x="307" y="868" type="curve" smooth="yes"/>
      <point x="366" y="868"/>
      <point x="379" y="776"/>
    </contour>
  </outline>
</glyph>
<glyph name="cid40106" format="2">
  <advance height="1000" width="523"/>
  <unicode hex="00C4"/>
  <outline>
    <contour>
      <point x="-46" y="-11" type="curve"/>
      <point x="-46" y="-11"/>
      <point x="-13" y="-11"/>
      <point x="-13" y="-11" type="curve"/>
      <point x="-13" y="-11"/>
      <point x="222" y="421"/>
      <point x="222" y="421" type="curve"/>
      <point x="268" y="506"/>
      <point x="312" y="582"/>
      <point x="355" y="671" type="curve"/>
      <point x="355" y="671"/>
      <point x="360" y="671"/>
      <point x="360" y="671" type="curve"/>
      <point x="368" y="584"/>
      <point x="379" y="501"/>
      <point x="388" y="421" type="curve"/>
      <point x="388" y="421"/>
      <point x="440" y="-11"/>
      <point x="440" y="-11" type="curve"/>
      <point x="440" y="-11"/>
      <point x="473" y="-11"/>
      <point x="473" y="-11" type="curve"/>
      <point x="473" y="-11"/>
      <point x="382" y="708"/>
      <point x="382" y="708" type="curve"/>
      <point x="382" y="708"/>
      <point x="349" y="708"/>
      <point x="349" y="708" type="curve"/>
      <point x="349" y="708"/>
      <point x="-46" y="-11"/>
    </contour>
    <contour>
      <point x="113" y="248" type="curve"/>
      <point x="113" y="248"/>
      <point x="421" y="248"/>
      <point x="421" y="248" type="curve"/>
      <point x="421" y="248"/>
      <point x="427" y="277"/>
      <point x="427" y="277" type="curve"/>
      <point x="427" y="277"/>
      <point x="122" y="277"/>
      <point x="122" y="277" type="curve"/>
      <point x="122" y="277"/>
      <point x="113" y="248"/>
    </contour>
    <contour>
      <point x="277" y="780" type="curve" smooth="yes"/>
      <point x="294" y="780"/>
      <point x="312" y="798"/>
      <point x="312" y="820" type="curve" smooth="yes"/>
      <point x="312" y="839"/>
      <point x="301" y="850"/>
      <point x="283" y="850" type="curve" smooth="yes"/>
      <point x="266" y="850"/>
      <point x="249" y="833"/>
      <point x="249" y="809" type="curve" smooth="yes"/>
      <point x="249" y="791"/>
      <point x="259" y="780"/>
    </contour>
    <contour>
      <point x="475" y="780" type="curve" smooth="yes"/>
      <point x="493" y="780"/>
      <point x="510" y="798"/>
      <point x="510" y="820" type="curve" smooth="yes"/>
      <point x="510" y="839"/>
      <point x="499" y="850"/>
      <point x="482" y="850" type="curve" smooth="yes"/>
      <point x="464" y="850"/>
      <point x="447" y="833"/>
      <point x="447" y="809" type="curve" smooth="yes"/>
      <point x="447" y="791"/>
      <point x="458" y="780"/>
    </contour>
  </outline>
</glyph>
<glyph name="cid40146" format="2">
  <advance height="1000" width="844"/>
  <unicode hex="00C6"/>
  <outline>
    <contour>
      <point x="-35" y="-11" type="curve"/>
      <point x="-35" y="-11"/>
      <point x="4" y="-11"/>
      <point x="4" y="-11" type="curve"/>
      <point x="4" y="-11"/>
      <point x="318" y="416"/>
      <point x="318" y="416" type="curve"/>
      <point x="382" y="503"/>
      <point x="445" y="591"/>
      <point x="508" y="678" type="curve"/>
      <point x="508" y="678"/>
      <point x="512" y="678"/>
      <point x="512" y="678" type="curve"/>
      <point x="512" y="678"/>
      <point x="375" y="-11"/>
      <point x="375" y="-11" type="curve"/>
      <point x="375" y="-11"/>
      <point x="741" y="-11"/>
      <point x="741" y="-11" type="curve"/>
      <point x="741" y="-11"/>
      <point x="748" y="17"/>
      <point x="748" y="17" type="curve"/>
      <point x="748" y="17"/>
      <point x="412" y="17"/>
      <point x="412" y="17" type="curve"/>
      <point x="412" y="17"/>
      <point x="482" y="357"/>
      <point x="482" y="357" type="curve"/>
      <point x="482" y="357"/>
      <point x="752" y="357"/>
      <point x="752" y="357" type="curve"/>
      <point x="752" y="357"/>
      <point x="759" y="386"/>
      <point x="759" y="386" type="curve"/>
      <point x="759" y="386"/>
      <point x="486" y="386"/>
      <point x="486" y="386" type="curve"/>
      <point x="486" y="386"/>
      <point x="545" y="680"/>
      <point x="545" y="680" type="curve"/>
      <point x="545" y="680"/>
      <point x="870" y="680"/>
      <point x="870" y="680" type="curve"/>
      <point x="870" y="680"/>
      <point x="876" y="708"/>
      <point x="876" y="708" type="curve"/>
      <point x="876" y="708"/>
      <point x="499" y="708"/>
      <point x="499" y="708" type="curve"/>
      <point x="499" y="708"/>
      <point x="-35" y="-11"/>
    </contour>
    <contour>
      <point x="166" y="235" type="curve"/>
      <point x="166" y="235"/>
      <point x="447" y="235"/>
      <point x="447" y="235" type="curve"/>
      <point x="447" y="235"/>
      <point x="456" y="264"/>
      <point x="456" y="264" type="curve"/>
      <point x="456" y="264"/>
      <point x="174" y="264"/>
      <point x="174" y="264" type="curve"/>
      <point x="174" y="264"/>
      <point x="166" y="235"/>
    </contour>
  </outline>
</glyph>
<glyph name="cid40160" format="2">
  <advance height="1000" width="584"/>
  <unicode hex="00C7"/>
  <outline>
    <contour>
      <point x="303" y="-24" type="curve" smooth="yes"/>
      <point x="382" y="-24"/>
      <point x="440" y="4"/>
      <point x="499" y="57" type="curve"/>
      <point x="499" y="57"/>
      <point x="484" y="74"/>
      <point x="484" y="74" type="curve"/>
      <point x="434" y="32"/>
      <point x="375" y="4"/>
      <point x="305" y="4" type="curve" smooth="yes"/>
      <point x="159" y="4"/>
      <point x="96" y="118"/>
      <point x="96" y="264" type="curve" smooth="yes"/>
      <point x="96" y="447"/>
      <point x="214" y="693"/>
      <point x="423" y="693" type="curve" smooth="yes"/>
      <point x="493" y="693"/>
      <point x="541" y="660"/>
      <point x="567" y="606" type="curve"/>
      <point x="567" y="606"/>
      <point x="591" y="617"/>
      <point x="591" y="617" type="curve"/>
      <point x="567" y="676"/>
      <point x="506" y="721"/>
      <point x="425" y="721" type="curve" smooth="yes"/>
      <point x="196" y="721"/>
      <point x="63" y="466"/>
      <point x="63" y="257" type="curve" smooth="yes"/>
      <point x="63" y="98"/>
      <point x="142" y="-24"/>
    </contour>
    <contour>
      <point x="166" y="-246" type="curve"/>
      <point x="264" y="-244"/>
      <point x="331" y="-208"/>
      <point x="331" y="-146" type="curve" smooth="yes"/>
      <point x="331" y="-116"/>
      <point x="320" y="-98"/>
      <point x="270" y="-85" type="curve"/>
      <point x="270" y="-85"/>
      <point x="316" y="-9"/>
      <point x="316" y="-9" type="curve"/>
      <point x="316" y="-9"/>
      <point x="286" y="-9"/>
      <point x="286" y="-9" type="curve"/>
      <point x="286" y="-9"/>
      <point x="225" y="-105"/>
      <point x="225" y="-105" type="curve"/>
      <point x="274" y="-109"/>
      <point x="299" y="-122"/>
      <point x="299" y="-155" type="curve" smooth="yes"/>
      <point x="299" y="-191"/>
      <point x="253" y="-218"/>
      <point x="164" y="-220" type="curve"/>
      <point x="164" y="-220"/>
      <point x="166" y="-246"/>
    </contour>
  </outline>
</glyph>
<glyph name="cid40182" format="2">
  <advance height="1000" width="528"/>
  <unicode hex="00C8"/>
  <outline>
    <contour>
      <point x="44" y="-11" type="curve"/>
      <point x="44" y="-11"/>
      <point x="425" y="-11"/>
      <point x="425" y="-11" type="curve"/>
      <point x="425" y="-11"/>
      <point x="432" y="17"/>
      <point x="432" y="17" type="curve"/>
      <point x="432" y="17"/>
      <point x="81" y="17"/>
      <point x="81" y="17" type="curve"/>
      <point x="81" y="17"/>
      <point x="150" y="357"/>
      <point x="150" y="357" type="curve"/>
      <point x="150" y="357"/>
      <point x="436" y="357"/>
      <point x="436" y="357" type="curve"/>
      <point x="436" y="357"/>
      <point x="443" y="386"/>
      <point x="443" y="386" type="curve"/>
      <point x="443" y="386"/>
      <point x="155" y="386"/>
      <point x="155" y="386" type="curve"/>
      <point x="155" y="386"/>
      <point x="214" y="680"/>
      <point x="214" y="680" type="curve"/>
      <point x="214" y="680"/>
      <point x="554" y="680"/>
      <point x="554" y="680" type="curve"/>
      <point x="554" y="680"/>
      <point x="560" y="708"/>
      <point x="560" y="708" type="curve"/>
      <point x="560" y="708"/>
      <point x="187" y="708"/>
      <point x="187" y="708" type="curve"/>
      <point x="187" y="708"/>
      <point x="44" y="-11"/>
    </contour>
    <contour>
      <point x="436" y="763" type="curve"/>
      <point x="436" y="763"/>
      <point x="469" y="763"/>
      <point x="469" y="763" type="curve"/>
      <point x="469" y="763"/>
      <point x="331" y="894"/>
      <point x="331" y="894" type="curve"/>
      <point x="331" y="894"/>
      <point x="286" y="894"/>
      <point x="286" y="894" type="curve"/>
      <point x="286" y="894"/>
      <point x="283" y="889"/>
      <point x="283" y="889" type="curve"/>
      <point x="283" y="889"/>
      <point x="436" y="763"/>
    </contour>
  </outline>
</glyph>
<glyph name="cid40185" format="2">
  <advance height="1000" width="528"/>
  <unicode hex="00CA"/>
  <outline>
    <contour>
      <point x="44" y="-11" type="curve"/>
      <point x="44" y="-11"/>
      <point x="425" y="-11"/>
      <point x="425" y="-11" type="curve"/>
      <point x="425" y="-11"/>
      <point x="432" y="17"/>
      <point x="432" y="17" type="curve"/>
      <point x="432" y="17"/>
      <point x="81" y="17"/>
      <point x="81" y="17" type="curve"/>
      <point x="81" y="17"/>
      <point x="150" y="357"/>
      <point x="150" y="357" type="curve"/>
      <point x="150" y="357"/>
      <point x="436" y="357"/>
      <point x="436" y="357" type="curve"/>
      <point x="436" y="357"/>
      <point x="443" y="386"/>
      <point x="443" y="386" type="curve"/>
      <point x="443" y="386"/>
      <point x="155" y="386"/>
      <point x="155" y="386" type="curve"/>
      <point x="155" y="386"/>
      <point x="214" y="680"/>
      <point x="214" y="680" type="curve"/>
      <point x="214" y="680"/>
      <point x="554" y="680"/>
      <point x="554" y="680" type="curve"/>
      <point x="554" y="680"/>
      <point x="560" y="708"/>
      <point x="560" y="708" type="curve"/>
      <point x="560" y="708"/>
      <point x="187" y="708"/>
      <point x="187" y="708" type="curve"/>
      <point x="187" y="708"/>
      <point x="44" y="-11"/>
    </contour>
    <contour>
      <point x="229" y="765" type="curve"/>
      <point x="229" y="765"/>
      <point x="266" y="765"/>
      <point x="266" y="765" type="curve"/>
      <point x="266" y="765"/>
      <point x="410" y="863"/>
      <point x="410" y="863" type="curve"/>
      <point x="410" y="863"/>
      <point x="414" y="863"/>
      <point x="414" y="863" type="curve"/>
      <point x="414" y="863"/>
      <point x="512" y="765"/>
      <point x="512" y="765" type="curve"/>
      <point x="512" y="765"/>
      <point x="545" y="765"/>
      <point x="545" y="765" type="curve"/>
      <point x="545" y="765"/>
      <point x="425" y="896"/>
      <point x="425" y="896" type="curve"/>
      <point x="425" y="896"/>
      <point x="403" y="896"/>
      <point x="403" y="896" type="curve"/>
      <point x="403" y="896"/>
      <point x="229" y="765"/>
    </contour>
  </outline>
</glyph>
<glyph name="cid40248" format="2">
  <advance height="1000" width="231"/>
  <unicode hex="00CC"/>
  <outline>
    <contour>
      <point x="44" y="-11" type="curve"/>
      <point x="44" y="-11"/>
      <point x="76" y="-11"/>
      <point x="76" y="-11" type="curve"/>
      <point x="76" y="-11"/>
      <point x="220" y="708"/>
      <point x="220" y="708" type="curve"/>
      <point x="220" y="708"/>
      <point x="187" y="708"/>
      <point x="187" y="708" type="curve"/>
      <point x="187" y="708"/>
      <point x="44" y="-11"/>
    </contour>
    <contour>
      <point x="262" y="763" type="curve"/>
      <point x="262" y="763"/>
      <point x="294" y="763"/>
      <point x="294" y="763" type="curve"/>
      <point x="294" y="763"/>
      <point x="157" y="894"/>
      <point x="157" y="894" type="curve"/>
      <point x="157" y="894"/>
      <point x="111" y="894"/>
      <point x="111" y="894" type="curve"/>
      <point x="111" y="894"/>
      <point x="109" y="889"/>
      <point x="109" y="889" type="curve"/>
      <point x="109" y="889"/>
      <point x="262" y="763"/>
    </contour>
  </outline>
</glyph>
<glyph name="cid40250" format="2">
  <advance height="1000" width="231"/>
  <unicode hex="00CD"/>
  <outline>
    <contour>
      <point x="44" y="-11" type="curve"/>
      <point x="44" y="-11"/>
      <point x="76" y="-11"/>
      <point x="76" y="-11" type="curve"/>
      <point x="76" y="-11"/>
      <point x="220" y="708"/>
      <point x="220" y="708" type="curve"/>
      <point x="220" y="708"/>
      <point x="187" y="708"/>
      <point x="187" y="708" type="curve"/>
      <point x="187" y="708"/>
      <point x="44" y="-11"/>
    </contour>
    <contour>
      <point x="131" y="763" type="curve"/>
      <point x="131" y="763"/>
      <point x="168" y="763"/>
      <point x="168" y="763" type="curve"/>
      <point x="168" y="763"/>
      <point x="360" y="889"/>
      <point x="360" y="889" type="curve"/>
      <point x="360" y="889"/>
      <point x="358" y="894"/>
      <point x="358" y="894" type="curve"/>
      <point x="358" y="894"/>
      <point x="305" y="894"/>
      <point x="305" y="894" type="curve"/>
      <point x="305" y="894"/>
      <point x="131" y="763"/>
    </contour>
  </outline>
</glyph>
<glyph name="cid40251" format="2">
  <advance height="1000" width="231"/>
  <unicode hex="00CE"/>
  <outline>
    <contour>
      <point x="44" y="-11" type="curve"/>
      <point x="44" y="-11"/>
      <point x="76" y="-11"/>
      <point x="76" y="-11" type="curve"/>
      <point x="76" y="-11"/>
      <point x="220" y="708"/>
      <point x="220" y="708" type="curve"/>
      <point x="220" y="708"/>
      <point x="187" y="708"/>
      <point x="187" y="708" type="curve"/>
      <point x="187" y="708"/>
      <point x="44" y="-11"/>
    </contour>
    <contour>
      <point x="55" y="765" type="curve"/>
      <point x="55" y="765"/>
      <point x="92" y="765"/>
      <point x="92" y="765" type="curve"/>
      <point x="92" y="765"/>
      <point x="235" y="863"/>
      <point x="235" y="863" type="curve"/>
      <point x="235" y="863"/>
      <point x="240" y="863"/>
      <point x="240" y="863" type="curve"/>
      <point x="240" y="863"/>
      <point x="338" y="765"/>
      <point x="338" y="765" type="curve"/>
      <point x="338" y="765"/>
      <point x="371" y="765"/>
      <point x="371" y="765" type="curve"/>
      <point x="371" y="765"/>
      <point x="251" y="896"/>
      <point x="251" y="896" type="curve"/>
      <point x="251" y="896"/>
      <point x="229" y="896"/>
      <point x="229" y="896" type="curve"/>
      <point x="229" y="896"/>
      <point x="55" y="765"/>
    </contour>
  </outline>
</glyph>
<glyph name="cid40307" format="2">
  <advance height="1000" width="654"/>
  <unicode hex="00D1"/>
  <outline>
    <contour>
      <point x="44" y="-11" type="curve"/>
      <point x="44" y="-11"/>
      <point x="76" y="-11"/>
      <point x="76" y="-11" type="curve"/>
      <point x="76" y="-11"/>
      <point x="170" y="464"/>
      <point x="170" y="464" type="curve"/>
      <point x="183" y="530"/>
      <point x="196" y="595"/>
      <point x="207" y="665" type="curve"/>
      <point x="207" y="665"/>
      <point x="211" y="665"/>
      <point x="211" y="665" type="curve"/>
      <point x="229" y="615"/>
      <point x="249" y="562"/>
      <point x="266" y="517" type="curve"/>
      <point x="266" y="517"/>
      <point x="464" y="-11"/>
      <point x="464" y="-11" type="curve"/>
      <point x="464" y="-11"/>
      <point x="499" y="-11"/>
      <point x="499" y="-11" type="curve"/>
      <point x="499" y="-11"/>
      <point x="643" y="708"/>
      <point x="643" y="708" type="curve"/>
      <point x="643" y="708"/>
      <point x="610" y="708"/>
      <point x="610" y="708" type="curve"/>
      <point x="610" y="708"/>
      <point x="517" y="240"/>
      <point x="517" y="240" type="curve"/>
      <point x="504" y="174"/>
      <point x="491" y="109"/>
      <point x="480" y="39" type="curve"/>
      <point x="480" y="39"/>
      <point x="475" y="39"/>
      <point x="475" y="39" type="curve"/>
      <point x="458" y="89"/>
      <point x="438" y="142"/>
      <point x="421" y="187" type="curve"/>
      <point x="421" y="187"/>
      <point x="225" y="708"/>
      <point x="225" y="708" type="curve"/>
      <point x="225" y="708"/>
      <point x="187" y="708"/>
      <point x="187" y="708" type="curve"/>
      <point x="187" y="708"/>
      <point x="44" y="-11"/>
    </contour>
    <contour>
      <point x="519" y="776" type="curve" smooth="yes"/>
      <point x="576" y="776"/>
      <point x="617" y="826"/>
      <point x="628" y="892" type="curve"/>
      <point x="628" y="892"/>
      <point x="604" y="894"/>
      <point x="604" y="894" type="curve"/>
      <point x="586" y="840"/>
      <point x="559" y="804"/>
      <point x="525" y="804" type="curve" smooth="yes"/>
      <point x="465" y="804"/>
      <point x="453" y="896"/>
      <point x="379" y="896" type="curve" smooth="yes"/>
      <point x="323" y="896"/>
      <point x="281" y="846"/>
      <point x="270" y="780" type="curve"/>
      <point x="270" y="780"/>
      <point x="294" y="778"/>
      <point x="294" y="778" type="curve"/>
      <point x="310" y="832"/>
      <point x="339" y="868"/>
      <point x="373" y="868" type="curve" smooth="yes"/>
      <point x="432" y="868"/>
      <point x="445" y="776"/>
    </contour>
  </outline>
</glyph>
<glyph name="cid40320" format="2">
  <advance height="1000" width="667"/>
  <unicode hex="00D4"/>
  <outline>
    <contour>
      <point x="299" y="-24" type="curve" smooth="yes"/>
      <point x="514" y="-24"/>
      <point x="637" y="231"/>
      <point x="637" y="423" type="curve" smooth="yes"/>
      <point x="637" y="597"/>
      <point x="562" y="721"/>
      <point x="405" y="721" type="curve" smooth="yes"/>
      <point x="190" y="721"/>
      <point x="68" y="466"/>
      <point x="68" y="275" type="curve" smooth="yes"/>
      <point x="68" y="100"/>
      <point x="142" y="-24"/>
    </contour>
    <contour>
      <point x="301" y="4" type="curve" smooth="yes"/>
      <point x="159" y="4"/>
      <point x="100" y="118"/>
      <point x="100" y="279" type="curve" smooth="yes"/>
      <point x="100" y="449"/>
      <point x="207" y="693"/>
      <point x="403" y="693" type="curve" smooth="yes"/>
      <point x="545" y="693"/>
      <point x="604" y="580"/>
      <point x="604" y="418" type="curve" smooth="yes"/>
      <point x="604" y="248"/>
      <point x="497" y="4"/>
    </contour>
    <contour>
      <point x="283" y="765" type="curve"/>
      <point x="283" y="765"/>
      <point x="320" y="765"/>
      <point x="320" y="765" type="curve"/>
      <point x="320" y="765"/>
      <point x="464" y="863"/>
      <point x="464" y="863" type="curve"/>
      <point x="464" y="863"/>
      <point x="469" y="863"/>
      <point x="469" y="863" type="curve"/>
      <point x="469" y="863"/>
      <point x="567" y="765"/>
      <point x="567" y="765" type="curve"/>
      <point x="567" y="765"/>
      <point x="600" y="765"/>
      <point x="600" y="765" type="curve"/>
      <point x="600" y="765"/>
      <point x="480" y="896"/>
      <point x="480" y="896" type="curve"/>
      <point x="480" y="896"/>
      <point x="458" y="896"/>
      <point x="458" y="896" type="curve"/>
      <point x="458" y="896"/>
      <point x="283" y="765"/>
    </contour>
  </outline>
</glyph>
<glyph name="cid40321" format="2">
  <advance height="1000" width="667"/>
  <unicode hex="00D5"/>
  <outline>
    <contour>
      <point x="299" y="-24" type="curve" smooth="yes"/>
      <point x="514" y="-24"/>
      <point x="637" y="231"/>
      <point x="637" y="423" type="curve" smooth="yes"/>
      <point x="637" y="597"/>
      <point x="562" y="721"/>
      <point x="405" y="721" type="curve" smooth="yes"/>
      <point x="190" y="721"/>
      <point x="68" y="466"/>
      <point x="68" y="275" type="curve" smooth="yes"/>
      <point x="68" y="100"/>
      <point x="142" y="-24"/>
    </contour>
    <contour>
      <point x="301" y="4" type="curve" smooth="yes"/>
      <point x="159" y="4"/>
      <point x="100" y="118"/>
      <point x="100" y="279" type="curve" smooth="yes"/>
      <point x="100" y="449"/>
      <point x="207" y="693"/>
      <point x="403" y="693" type="curve" smooth="yes"/>
      <point x="545" y="693"/>
      <point x="604" y="580"/>
      <point x="604" y="418" type="curve" smooth="yes"/>
      <point x="604" y="248"/>
      <point x="497" y="4"/>
    </contour>
    <contour>
      <point x="530" y="776" type="curve" smooth="yes"/>
      <point x="586" y="776"/>
      <point x="628" y="826"/>
      <point x="639" y="892" type="curve"/>
      <point x="639" y="892"/>
      <point x="615" y="894"/>
      <point x="615" y="894" type="curve"/>
      <point x="597" y="840"/>
      <point x="570" y="804"/>
      <point x="536" y="804" type="curve" smooth="yes"/>
      <point x="476" y="804"/>
      <point x="464" y="896"/>
      <point x="390" y="896" type="curve" smooth="yes"/>
      <point x="334" y="896"/>
      <point x="292" y="846"/>
      <point x="281" y="780" type="curve"/>
      <point x="281" y="780"/>
      <point x="305" y="778"/>
      <point x="305" y="778" type="curve"/>
      <point x="320" y="832"/>
      <point x="350" y="868"/>
      <point x="384" y="868" type="curve" smooth="yes"/>
      <point x="443" y="868"/>
      <point x="456" y="776"/>
    </contour>
  </outline>
</glyph>
<glyph name="cid40483" format="2">
  <advance height="1000" width="584"/>
  <unicode hex="00DE"/>
  <outline>
    <contour>
      <point x="44" y="-11" type="curve"/>
      <point x="44" y="-11"/>
      <point x="76" y="-11"/>
      <point x="76" y="-11" type="curve"/>
      <point x="76" y="-11"/>
      <point x="113" y="174"/>
      <point x="113" y="174" type="curve"/>
      <point x="113" y="174"/>
      <point x="251" y="174"/>
      <point x="251" y="174" type="curve"/>
      <point x="436" y="174"/>
      <point x="552" y="253"/>
      <point x="552" y="410" type="curve" smooth="yes"/>
      <point x="552" y="523"/>
      <point x="473" y="573"/>
      <point x="342" y="573" type="curve"/>
      <point x="342" y="573"/>
      <point x="194" y="573"/>
      <point x="194" y="573" type="curve"/>
      <point x="194" y="573"/>
      <point x="220" y="708"/>
      <point x="220" y="708" type="curve"/>
      <point x="220" y="708"/>
      <point x="187" y="708"/>
      <point x="187" y="708" type="curve"/>
      <point x="187" y="708"/>
      <point x="44" y="-11"/>
    </contour>
    <contour>
      <point x="120" y="203" type="curve"/>
      <point x="120" y="203"/>
      <point x="187" y="545"/>
      <point x="187" y="545" type="curve"/>
      <point x="187" y="545"/>
      <point x="323" y="545"/>
      <point x="323" y="545" type="curve"/>
      <point x="451" y="545"/>
      <point x="519" y="506"/>
      <point x="519" y="408" type="curve" smooth="yes"/>
      <point x="519" y="272"/>
      <point x="425" y="203"/>
      <point x="244" y="203" type="curve"/>
      <point x="244" y="203"/>
      <point x="120" y="203"/>
    </contour>
  </outline>
</glyph>
<glyph name="cid40945" format="2">
  <advance height="1000" width="558"/>
  <unicode hex="00DF"/>
  <outline>
    <contour>
      <point x="338" y="-24" type="curve" smooth="yes"/>
      <point x="434" y="-24"/>
      <point x="501" y="46"/>
      <point x="501" y="131" type="curve" smooth="yes"/>
      <point x="501" y="270"/>
      <point x="336" y="279"/>
      <point x="336" y="384" type="curve" smooth="yes"/>
      <point x="336" y="486"/>
      <point x="508" y="514"/>
      <point x="508" y="660" type="curve" smooth="yes"/>
      <point x="508" y="743"/>
      <point x="458" y="789"/>
      <point x="377" y="789" type="curve" smooth="yes"/>
      <point x="268" y="789"/>
      <point x="189" y="691"/>
      <point x="166" y="578" type="curve"/>
      <point x="166" y="578"/>
      <point x="48" y="-11"/>
      <point x="48" y="-11" type="curve"/>
      <point x="48" y="-11"/>
      <point x="78" y="-11"/>
      <point x="78" y="-11" type="curve"/>
      <point x="78" y="-11"/>
      <point x="194" y="567"/>
      <point x="194" y="567" type="curve"/>
      <point x="216" y="674"/>
      <point x="286" y="761"/>
      <point x="375" y="761" type="curve" smooth="yes"/>
      <point x="447" y="761"/>
      <point x="477" y="717"/>
      <point x="477" y="660" type="curve" smooth="yes"/>
      <point x="477" y="530"/>
      <point x="305" y="503"/>
      <point x="305" y="377" type="curve" smooth="yes"/>
      <point x="305" y="266"/>
      <point x="471" y="253"/>
      <point x="471" y="124" type="curve" smooth="yes"/>
      <point x="471" y="54"/>
      <point x="410" y="4"/>
      <point x="340" y="4" type="curve" smooth="yes"/>
      <point x="290" y="4"/>
      <point x="249" y="22"/>
      <point x="211" y="54" type="curve"/>
      <point x="211" y="54"/>
      <point x="194" y="35"/>
      <point x="194" y="35" type="curve"/>
      <point x="233" y="-4"/>
      <point x="288" y="-24"/>
    </contour>
  </outline>
</glyph>
<glyph name="cid40541" format="2">
  <advance height="1000" width="571"/>
  <unicode hex="00E5"/>
  <outline>
    <contour>
      <point x="203" y="-24" type="curve" smooth="yes"/>
      <point x="277" y="-24"/>
      <point x="344" y="17"/>
      <point x="399" y="74" type="curve"/>
      <point x="399" y="74"/>
      <point x="403" y="74"/>
      <point x="403" y="74" type="curve"/>
      <point x="403" y="74"/>
      <point x="390" y="-11"/>
      <point x="390" y="-11" type="curve"/>
      <point x="390" y="-11"/>
      <point x="416" y="-11"/>
      <point x="416" y="-11" type="curve"/>
      <point x="416" y="-11"/>
      <point x="521" y="510"/>
      <point x="521" y="510" type="curve"/>
      <point x="521" y="510"/>
      <point x="495" y="510"/>
      <point x="495" y="510" type="curve"/>
      <point x="495" y="510"/>
      <point x="475" y="436"/>
      <point x="475" y="436" type="curve"/>
      <point x="475" y="436"/>
      <point x="471" y="436"/>
      <point x="471" y="436" type="curve"/>
      <point x="443" y="488"/>
      <point x="397" y="523"/>
      <point x="334" y="523" type="curve" smooth="yes"/>
      <point x="190" y="523"/>
      <point x="50" y="364"/>
      <point x="50" y="163" type="curve" smooth="yes"/>
      <point x="50" y="41"/>
      <point x="111" y="-24"/>
    </contour>
    <contour>
      <point x="205" y="4" type="curve" smooth="yes"/>
      <point x="129" y="4"/>
      <point x="81" y="59"/>
      <point x="81" y="170" type="curve" smooth="yes"/>
      <point x="81" y="331"/>
      <point x="201" y="495"/>
      <point x="331" y="495" type="curve" smooth="yes"/>
      <point x="384" y="495"/>
      <point x="427" y="466"/>
      <point x="469" y="394" type="curve"/>
      <point x="469" y="394"/>
      <point x="412" y="122"/>
      <point x="412" y="122" type="curve"/>
      <point x="347" y="48"/>
      <point x="277" y="4"/>
    </contour>
    <contour>
      <point x="355" y="586" type="curve" smooth="yes"/>
      <point x="421" y="586"/>
      <point x="467" y="639"/>
      <point x="467" y="700" type="curve" smooth="yes"/>
      <point x="467" y="756"/>
      <point x="424" y="787"/>
      <point x="379" y="787" type="curve" smooth="yes"/>
      <point x="314" y="787"/>
      <point x="268" y="735"/>
      <point x="268" y="674" type="curve" smooth="yes"/>
      <point x="268" y="617"/>
      <point x="310" y="586"/>
    </contour>
    <contour>
      <point x="358" y="610" type="curve" smooth="yes"/>
      <point x="323" y="610"/>
      <point x="296" y="636"/>
      <point x="296" y="676" type="curve" smooth="yes"/>
      <point x="296" y="724"/>
      <point x="334" y="763"/>
      <point x="377" y="763" type="curve" smooth="yes"/>
      <point x="412" y="763"/>
      <point x="438" y="737"/>
      <point x="438" y="698" type="curve" smooth="yes"/>
      <point x="438" y="650"/>
      <point x="401" y="610"/>
    </contour>
  </outline>
</glyph>
<glyph name="cid40573" format="2">
  <advance height="1000" width="835"/>
  <unicode hex="00E6"/>
  <outline>
    <contour>
      <point x="172" y="-24" type="curve" smooth="yes"/>
      <point x="251" y="-24"/>
      <point x="329" y="20"/>
      <point x="403" y="94" type="curve"/>
      <point x="425" y="26"/>
      <point x="491" y="-24"/>
      <point x="567" y="-24" type="curve" smooth="yes"/>
      <point x="634" y="-24"/>
      <point x="682" y="2"/>
      <point x="722" y="33" type="curve"/>
      <point x="722" y="33"/>
      <point x="706" y="52"/>
      <point x="706" y="52" type="curve"/>
      <point x="667" y="24"/>
      <point x="628" y="4"/>
      <point x="569" y="4" type="curve" smooth="yes"/>
      <point x="460" y="4"/>
      <point x="397" y="109"/>
      <point x="425" y="253" type="curve"/>
      <point x="425" y="253"/>
      <point x="783" y="253"/>
      <point x="783" y="253" type="curve"/>
      <point x="789" y="275"/>
      <point x="796" y="305"/>
      <point x="796" y="340" type="curve" smooth="yes"/>
      <point x="796" y="447"/>
      <point x="752" y="523"/>
      <point x="641" y="523" type="curve" smooth="yes"/>
      <point x="567" y="523"/>
      <point x="493" y="473"/>
      <point x="443" y="394" type="curve"/>
      <point x="438" y="482"/>
      <point x="386" y="523"/>
      <point x="307" y="523" type="curve" smooth="yes"/>
      <point x="249" y="523"/>
      <point x="183" y="497"/>
      <point x="135" y="469" type="curve"/>
      <point x="135" y="469"/>
      <point x="150" y="445"/>
      <point x="150" y="445" type="curve"/>
      <point x="196" y="473"/>
      <point x="259" y="495"/>
      <point x="305" y="495" type="curve" smooth="yes"/>
      <point x="384" y="495"/>
      <point x="412" y="451"/>
      <point x="412" y="377" type="curve" smooth="yes"/>
      <point x="412" y="355"/>
      <point x="410" y="338"/>
      <point x="403" y="309" type="curve"/>
      <point x="185" y="301"/>
      <point x="44" y="244"/>
      <point x="44" y="100" type="curve" smooth="yes"/>
      <point x="44" y="17"/>
      <point x="105" y="-24"/>
    </contour>
    <contour>
      <point x="179" y="4" type="curve" smooth="yes"/>
      <point x="120" y="4"/>
      <point x="74" y="39"/>
      <point x="74" y="107" type="curve" smooth="yes"/>
      <point x="74" y="222"/>
      <point x="205" y="277"/>
      <point x="399" y="281" type="curve"/>
      <point x="388" y="222"/>
      <point x="386" y="183"/>
      <point x="395" y="122" type="curve"/>
      <point x="316" y="41"/>
      <point x="235" y="4"/>
    </contour>
    <contour>
      <point x="432" y="281" type="curve"/>
      <point x="460" y="405"/>
      <point x="554" y="495"/>
      <point x="639" y="495" type="curve" smooth="yes"/>
      <point x="732" y="495"/>
      <point x="765" y="421"/>
      <point x="765" y="347" type="curve" smooth="yes"/>
      <point x="765" y="323"/>
      <point x="763" y="303"/>
      <point x="759" y="281" type="curve"/>
      <point x="759" y="281"/>
      <point x="432" y="281"/>
    </contour>
  </outline>
</glyph>
<glyph name="cid40585" format="2">
  <advance height="1000" width="467"/>
  <unicode hex="00E7"/>
  <outline>
    <contour>
      <point x="229" y="-24" type="curve" smooth="yes"/>
      <point x="296" y="-24"/>
      <point x="355" y="9"/>
      <point x="390" y="39" type="curve"/>
      <point x="390" y="39"/>
      <point x="375" y="59"/>
      <point x="375" y="59" type="curve"/>
      <point x="340" y="30"/>
      <point x="281" y="4"/>
      <point x="231" y="4" type="curve" smooth="yes"/>
      <point x="129" y="4"/>
      <point x="78" y="67"/>
      <point x="78" y="187" type="curve" smooth="yes"/>
      <point x="78" y="353"/>
      <point x="201" y="495"/>
      <point x="323" y="495" type="curve" smooth="yes"/>
      <point x="375" y="495"/>
      <point x="408" y="480"/>
      <point x="436" y="445" type="curve"/>
      <point x="436" y="445"/>
      <point x="456" y="460"/>
      <point x="456" y="460" type="curve"/>
      <point x="427" y="499"/>
      <point x="386" y="523"/>
      <point x="325" y="523" type="curve" smooth="yes"/>
      <point x="190" y="523"/>
      <point x="48" y="386"/>
      <point x="48" y="181" type="curve" smooth="yes"/>
      <point x="48" y="50"/>
      <point x="118" y="-24"/>
    </contour>
    <contour>
      <point x="89" y="-246" type="curve"/>
      <point x="187" y="-244"/>
      <point x="255" y="-208"/>
      <point x="255" y="-146" type="curve" smooth="yes"/>
      <point x="255" y="-116"/>
      <point x="244" y="-98"/>
      <point x="194" y="-85" type="curve"/>
      <point x="194" y="-85"/>
      <point x="240" y="-9"/>
      <point x="240" y="-9" type="curve"/>
      <point x="240" y="-9"/>
      <point x="209" y="-9"/>
      <point x="209" y="-9" type="curve"/>
      <point x="209" y="-9"/>
      <point x="148" y="-105"/>
      <point x="148" y="-105" type="curve"/>
      <point x="197" y="-109"/>
      <point x="222" y="-122"/>
      <point x="222" y="-155" type="curve" smooth="yes"/>
      <point x="222" y="-191"/>
      <point x="177" y="-218"/>
      <point x="87" y="-220" type="curve"/>
      <point x="87" y="-220"/>
      <point x="89" y="-246"/>
    </contour>
  </outline>
</glyph>
<glyph name="cid40726" format="2">
  <advance height="1000" width="233"/>
  <unicode hex="00EC"/>
  <outline>
    <contour>
      <point x="48" y="-11" type="curve"/>
      <point x="48" y="-11"/>
      <point x="78" y="-11"/>
      <point x="78" y="-11" type="curve"/>
      <point x="78" y="-11"/>
      <point x="183" y="510"/>
      <point x="183" y="510" type="curve"/>
      <point x="183" y="510"/>
      <point x="153" y="510"/>
      <point x="153" y="510" type="curve"/>
      <point x="153" y="510"/>
      <point x="48" y="-11"/>
    </contour>
    <contour>
      <point x="244" y="610" type="curve"/>
      <point x="244" y="610"/>
      <point x="273" y="610"/>
      <point x="273" y="610" type="curve"/>
      <point x="273" y="610"/>
      <point x="146" y="774"/>
      <point x="146" y="774" type="curve"/>
      <point x="146" y="774"/>
      <point x="111" y="774"/>
      <point x="111" y="774" type="curve"/>
      <point x="111" y="774"/>
      <point x="109" y="769"/>
      <point x="109" y="769" type="curve"/>
      <point x="109" y="769"/>
      <point x="244" y="610"/>
    </contour>
  </outline>
</glyph>
<glyph name="cid40729" format="2">
  <advance height="1000" width="233"/>
  <unicode hex="00ED"/>
  <outline>
    <contour>
      <point x="48" y="-11" type="curve"/>
      <point x="48" y="-11"/>
      <point x="78" y="-11"/>
      <point x="78" y="-11" type="curve"/>
      <point x="78" y="-11"/>
      <point x="183" y="510"/>
      <point x="183" y="510" type="curve"/>
      <point x="183" y="510"/>
      <point x="153" y="510"/>
      <point x="153" y="510" type="curve"/>
      <point x="153" y="510"/>
      <point x="48" y="-11"/>
    </contour>
    <contour>
      <point x="109" y="610" type="curve"/>
      <point x="109" y="610"/>
      <point x="142" y="610"/>
      <point x="142" y="610" type="curve"/>
      <point x="142" y="610"/>
      <point x="327" y="769"/>
      <point x="327" y="769" type="curve"/>
      <point x="327" y="769"/>
      <point x="325" y="774"/>
      <point x="325" y="774" type="curve"/>
      <point x="325" y="774"/>
      <point x="283" y="774"/>
      <point x="283" y="774" type="curve"/>
      <point x="283" y="774"/>
      <point x="109" y="610"/>
    </contour>
  </outline>
</glyph>
<glyph name="cid40736" format="2">
  <advance height="1000" width="233"/>
  <unicode hex="00EE"/>
  <outline>
    <contour>
      <point x="48" y="-11" type="curve"/>
      <point x="48" y="-11"/>
      <point x="78" y="-11"/>
      <point x="78" y="-11" type="curve"/>
      <point x="78" y="-11"/>
      <point x="183" y="510"/>
      <point x="183" y="510" type="curve"/>
      <point x="183" y="510"/>
      <point x="153" y="510"/>
      <point x="153" y="510" type="curve"/>
      <point x="153" y="510"/>
      <point x="48" y="-11"/>
    </contour>
    <contour>
      <point x="33" y="610" type="curve"/>
      <point x="33" y="610"/>
      <point x="65" y="610"/>
      <point x="65" y="610" type="curve"/>
      <point x="65" y="610"/>
      <point x="211" y="741"/>
      <point x="211" y="741" type="curve"/>
      <point x="211" y="741"/>
      <point x="216" y="741"/>
      <point x="216" y="741" type="curve"/>
      <point x="216" y="741"/>
      <point x="310" y="610"/>
      <point x="310" y="610" type="curve"/>
      <point x="310" y="610"/>
      <point x="338" y="610"/>
      <point x="338" y="610" type="curve"/>
      <point x="338" y="610"/>
      <point x="229" y="778"/>
      <point x="229" y="778" type="curve"/>
      <point x="229" y="778"/>
      <point x="207" y="778"/>
      <point x="207" y="778" type="curve"/>
      <point x="207" y="778"/>
      <point x="33" y="610"/>
    </contour>
  </outline>
</glyph>
<glyph name="cid41046" format="2">
  <advance height="1000" width="560"/>
  <unicode hex="00F0"/>
  <outline>
    <contour>
      <point x="229" y="-24" type="curve" smooth="yes"/>
      <point x="384" y="-24"/>
      <point x="488" y="146"/>
      <point x="488" y="360" type="curve" smooth="yes"/>
      <point x="488" y="569"/>
      <point x="399" y="689"/>
      <point x="242" y="776" type="curve"/>
      <point x="242" y="776"/>
      <point x="225" y="754"/>
      <point x="225" y="754" type="curve"/>
      <point x="379" y="665"/>
      <point x="458" y="558"/>
      <point x="458" y="353" type="curve" smooth="yes"/>
      <point x="458" y="172"/>
      <point x="368" y="4"/>
      <point x="235" y="4" type="curve" smooth="yes"/>
      <point x="140" y="4"/>
      <point x="85" y="83"/>
      <point x="85" y="172" type="curve" smooth="yes"/>
      <point x="85" y="307"/>
      <point x="174" y="440"/>
      <point x="307" y="440" type="curve" smooth="yes"/>
      <point x="379" y="440"/>
      <point x="427" y="384"/>
      <point x="462" y="327" type="curve"/>
      <point x="462" y="327"/>
      <point x="471" y="360"/>
      <point x="471" y="360" type="curve"/>
      <point x="432" y="423"/>
      <point x="375" y="469"/>
      <point x="310" y="469" type="curve" smooth="yes"/>
      <point x="155" y="469"/>
      <point x="55" y="323"/>
      <point x="55" y="168" type="curve" smooth="yes"/>
      <point x="55" y="63"/>
      <point x="126" y="-24"/>
    </contour>
    <contour>
      <point x="205" y="562" type="curve"/>
      <point x="205" y="562"/>
      <point x="547" y="708"/>
      <point x="547" y="708" type="curve"/>
      <point x="547" y="708"/>
      <point x="538" y="732"/>
      <point x="538" y="732" type="curve"/>
      <point x="538" y="732"/>
      <point x="196" y="586"/>
      <point x="196" y="586" type="curve"/>
      <point x="196" y="586"/>
      <point x="205" y="562"/>
    </contour>
  </outline>
</glyph>
<glyph name="cid40830" format="2">
  <advance height="1000" width="549"/>
  <unicode hex="00F1"/>
  <outline>
    <contour>
      <point x="48" y="-11" type="curve"/>
      <point x="48" y="-11"/>
      <point x="78" y="-11"/>
      <point x="78" y="-11" type="curve"/>
      <point x="78" y="-11"/>
      <point x="157" y="379"/>
      <point x="157" y="379" type="curve"/>
      <point x="240" y="460"/>
      <point x="305" y="495"/>
      <point x="353" y="495" type="curve" smooth="yes"/>
      <point x="423" y="495"/>
      <point x="451" y="460"/>
      <point x="451" y="392" type="curve" smooth="yes"/>
      <point x="451" y="371"/>
      <point x="449" y="355"/>
      <point x="443" y="323" type="curve"/>
      <point x="443" y="323"/>
      <point x="375" y="-11"/>
      <point x="375" y="-11" type="curve"/>
      <point x="375" y="-11"/>
      <point x="405" y="-11"/>
      <point x="405" y="-11" type="curve"/>
      <point x="405" y="-11"/>
      <point x="473" y="327"/>
      <point x="473" y="327" type="curve"/>
      <point x="480" y="357"/>
      <point x="482" y="371"/>
      <point x="482" y="397" type="curve" smooth="yes"/>
      <point x="482" y="471"/>
      <point x="447" y="523"/>
      <point x="358" y="523" type="curve" smooth="yes"/>
      <point x="294" y="523"/>
      <point x="231" y="482"/>
      <point x="170" y="425" type="curve"/>
      <point x="170" y="425"/>
      <point x="166" y="425"/>
      <point x="166" y="425" type="curve"/>
      <point x="166" y="425"/>
      <point x="179" y="510"/>
      <point x="179" y="510" type="curve"/>
      <point x="179" y="510"/>
      <point x="153" y="510"/>
      <point x="153" y="510" type="curve"/>
      <point x="153" y="510"/>
      <point x="48" y="-11"/>
    </contour>
    <contour>
      <point x="451" y="621" type="curve" smooth="yes"/>
      <point x="518" y="621"/>
      <point x="547" y="693"/>
      <point x="562" y="754" type="curve"/>
      <point x="562" y="754"/>
      <point x="534" y="756"/>
      <point x="534" y="756" type="curve"/>
      <point x="521" y="699"/>
      <point x="497" y="647"/>
      <point x="456" y="647" type="curve" smooth="yes"/>
      <point x="391" y="647"/>
      <point x="389" y="759"/>
      <point x="312" y="759" type="curve" smooth="yes"/>
      <point x="245" y="759"/>
      <point x="216" y="689"/>
      <point x="201" y="626" type="curve"/>
      <point x="201" y="626"/>
      <point x="229" y="623"/>
      <point x="229" y="623" type="curve"/>
      <point x="242" y="683"/>
      <point x="266" y="732"/>
      <point x="307" y="732" type="curve" smooth="yes"/>
      <point x="372" y="732"/>
      <point x="374" y="621"/>
    </contour>
  </outline>
</glyph>
<glyph name="cid40854" format="2">
  <advance height="1000" width="545"/>
  <unicode hex="00F5"/>
  <outline>
    <contour>
      <point x="222" y="-24" type="curve" smooth="yes"/>
      <point x="360" y="-24"/>
      <point x="495" y="124"/>
      <point x="495" y="318" type="curve" smooth="yes"/>
      <point x="495" y="449"/>
      <point x="429" y="523"/>
      <point x="323" y="523" type="curve" smooth="yes"/>
      <point x="185" y="523"/>
      <point x="50" y="375"/>
      <point x="50" y="181" type="curve" smooth="yes"/>
      <point x="50" y="50"/>
      <point x="116" y="-24"/>
    </contour>
    <contour>
      <point x="225" y="4" type="curve" smooth="yes"/>
      <point x="133" y="4"/>
      <point x="81" y="67"/>
      <point x="81" y="187" type="curve" smooth="yes"/>
      <point x="81" y="353"/>
      <point x="203" y="495"/>
      <point x="320" y="495" type="curve" smooth="yes"/>
      <point x="412" y="495"/>
      <point x="464" y="432"/>
      <point x="464" y="312" type="curve" smooth="yes"/>
      <point x="464" y="146"/>
      <point x="342" y="4"/>
    </contour>
    <contour>
      <point x="445" y="621" type="curve" smooth="yes"/>
      <point x="511" y="621"/>
      <point x="541" y="693"/>
      <point x="556" y="754" type="curve"/>
      <point x="556" y="754"/>
      <point x="528" y="756"/>
      <point x="528" y="756" type="curve"/>
      <point x="514" y="699"/>
      <point x="491" y="647"/>
      <point x="449" y="647" type="curve" smooth="yes"/>
      <point x="385" y="647"/>
      <point x="383" y="759"/>
      <point x="305" y="759" type="curve" smooth="yes"/>
      <point x="239" y="759"/>
      <point x="209" y="689"/>
      <point x="194" y="626" type="curve"/>
      <point x="194" y="626"/>
      <point x="222" y="623"/>
      <point x="222" y="623" type="curve"/>
      <point x="235" y="683"/>
      <point x="259" y="732"/>
      <point x="301" y="732" type="curve" smooth="yes"/>
      <point x="365" y="732"/>
      <point x="367" y="621"/>
    </contour>
  </outline>
</glyph>
<glyph name="cid40858" format="2">
  <advance height="1000" width="545"/>
  <unicode hex="00F6"/>
  <outline>
    <contour>
      <point x="222" y="-24" type="curve" smooth="yes"/>
      <point x="360" y="-24"/>
      <point x="495" y="124"/>
      <point x="495" y="318" type="curve" smooth="yes"/>
      <point x="495" y="449"/>
      <point x="429" y="523"/>
      <point x="323" y="523" type="curve" smooth="yes"/>
      <point x="185" y="523"/>
      <point x="50" y="375"/>
      <point x="50" y="181" type="curve" smooth="yes"/>
      <point x="50" y="50"/>
      <point x="116" y="-24"/>
    </contour>
    <contour>
      <point x="225" y="4" type="curve" smooth="yes"/>
      <point x="133" y="4"/>
      <point x="81" y="67"/>
      <point x="81" y="187" type="curve" smooth="yes"/>
      <point x="81" y="353"/>
      <point x="203" y="495"/>
      <point x="320" y="495" type="curve" smooth="yes"/>
      <point x="412" y="495"/>
      <point x="464" y="432"/>
      <point x="464" y="312" type="curve" smooth="yes"/>
      <point x="464" y="146"/>
      <point x="342" y="4"/>
    </contour>
    <contour>
      <point x="273" y="645" type="curve" smooth="yes"/>
      <point x="290" y="645"/>
      <point x="307" y="663"/>
      <point x="307" y="684" type="curve" smooth="yes"/>
      <point x="307" y="704"/>
      <point x="296" y="715"/>
      <point x="279" y="715" type="curve" smooth="yes"/>
      <point x="262" y="715"/>
      <point x="244" y="698"/>
      <point x="244" y="674" type="curve" smooth="yes"/>
      <point x="244" y="656"/>
      <point x="255" y="645"/>
    </contour>
    <contour>
      <point x="453" y="645" type="curve" smooth="yes"/>
      <point x="471" y="645"/>
      <point x="488" y="663"/>
      <point x="488" y="684" type="curve" smooth="yes"/>
      <point x="488" y="704"/>
      <point x="477" y="715"/>
      <point x="460" y="715" type="curve" smooth="yes"/>
      <point x="443" y="715"/>
      <point x="425" y="698"/>
      <point x="425" y="674" type="curve" smooth="yes"/>
      <point x="425" y="656"/>
      <point x="436" y="645"/>
    </contour>
  </outline>
</glyph>
<glyph name="cid43689" format="2">
  <advance height="1000" width="497"/>
  <unicode hex="00F7"/>
  <outline>
    <contour>
      <point x="52" y="336" type="curve"/>
      <point x="52" y="336"/>
      <point x="475" y="336"/>
      <point x="475" y="336" type="curve"/>
      <point x="475" y="336"/>
      <point x="475" y="364"/>
      <point x="475" y="364" type="curve"/>
      <point x="475" y="364"/>
      <point x="52" y="364"/>
      <point x="52" y="364" type="curve"/>
      <point x="52" y="364"/>
      <point x="52" y="336"/>
    </contour>
    <contour>
      <point x="264" y="113" type="curve" smooth="yes"/>
      <point x="283" y="113"/>
      <point x="296" y="131"/>
      <point x="296" y="150" type="curve" smooth="yes"/>
      <point x="296" y="170"/>
      <point x="283" y="185"/>
      <point x="264" y="185" type="curve" smooth="yes"/>
      <point x="244" y="185"/>
      <point x="231" y="170"/>
      <point x="231" y="150" type="curve" smooth="yes"/>
      <point x="231" y="131"/>
      <point x="244" y="113"/>
    </contour>
    <contour>
      <point x="264" y="510" type="curve" smooth="yes"/>
      <point x="283" y="510"/>
      <point x="296" y="527"/>
      <point x="296" y="547" type="curve" smooth="yes"/>
      <point x="296" y="567"/>
      <point x="283" y="582"/>
      <point x="264" y="582" type="curve" smooth="yes"/>
      <point x="244" y="582"/>
      <point x="231" y="567"/>
      <point x="231" y="547" type="curve" smooth="yes"/>
      <point x="231" y="527"/>
      <point x="244" y="510"/>
    </contour>
  </outline>
</glyph>
<glyph name="cid41048" format="2">
  <advance height="1000" width="567"/>
  <unicode hex="00FE"/>
  <outline>
    <contour>
      <point x="0" y="-253" type="curve"/>
      <point x="0" y="-253"/>
      <point x="31" y="-253"/>
      <point x="31" y="-253" type="curve"/>
      <point x="31" y="-253"/>
      <point x="68" y="-57"/>
      <point x="68" y="-57" type="curve"/>
      <point x="68" y="-57"/>
      <point x="92" y="63"/>
      <point x="92" y="63" type="curve"/>
      <point x="92" y="63"/>
      <point x="94" y="63"/>
      <point x="94" y="63" type="curve"/>
      <point x="125" y="13"/>
      <point x="172" y="-24"/>
      <point x="235" y="-24" type="curve" smooth="yes"/>
      <point x="379" y="-24"/>
      <point x="519" y="135"/>
      <point x="519" y="336" type="curve" smooth="yes"/>
      <point x="519" y="457"/>
      <point x="458" y="523"/>
      <point x="366" y="523" type="curve" smooth="yes"/>
      <point x="292" y="523"/>
      <point x="225" y="480"/>
      <point x="168" y="434" type="curve"/>
      <point x="168" y="434"/>
      <point x="166" y="434"/>
      <point x="166" y="434" type="curve"/>
      <point x="166" y="434"/>
      <point x="187" y="541"/>
      <point x="187" y="541" type="curve"/>
      <point x="187" y="541"/>
      <point x="235" y="776"/>
      <point x="235" y="776" type="curve"/>
      <point x="235" y="776"/>
      <point x="205" y="776"/>
      <point x="205" y="776" type="curve"/>
      <point x="205" y="776"/>
      <point x="0" y="-253"/>
    </contour>
    <contour>
      <point x="238" y="4" type="curve" smooth="yes"/>
      <point x="185" y="4"/>
      <point x="142" y="30"/>
      <point x="100" y="100" type="curve"/>
      <point x="100" y="100"/>
      <point x="159" y="394"/>
      <point x="159" y="394" type="curve"/>
      <point x="222" y="451"/>
      <point x="303" y="495"/>
      <point x="364" y="495" type="curve" smooth="yes"/>
      <point x="440" y="495"/>
      <point x="488" y="439"/>
      <point x="488" y="329" type="curve" smooth="yes"/>
      <point x="488" y="168"/>
      <point x="368" y="4"/>
    </contour>
  </outline>
</glyph>
<glyph name="cid41026" format="2">
  <advance height="1000" width="445"/>
  <unicode hex="00FF"/>
  <outline>
    <contour>
      <point x="-44" y="-253" type="curve" smooth="yes"/>
      <point x="39" y="-253"/>
      <point x="98" y="-181"/>
      <point x="150" y="-85" type="curve"/>
      <point x="150" y="-85"/>
      <point x="477" y="510"/>
      <point x="477" y="510" type="curve"/>
      <point x="477" y="510"/>
      <point x="445" y="510"/>
      <point x="445" y="510" type="curve"/>
      <point x="445" y="510"/>
      <point x="259" y="170"/>
      <point x="259" y="170" type="curve"/>
      <point x="231" y="120"/>
      <point x="203" y="67"/>
      <point x="177" y="17" type="curve"/>
      <point x="177" y="17"/>
      <point x="172" y="17"/>
      <point x="172" y="17" type="curve"/>
      <point x="164" y="65"/>
      <point x="157" y="120"/>
      <point x="148" y="170" type="curve"/>
      <point x="148" y="170"/>
      <point x="94" y="510"/>
      <point x="94" y="510" type="curve"/>
      <point x="94" y="510"/>
      <point x="63" y="510"/>
      <point x="63" y="510" type="curve"/>
      <point x="63" y="510"/>
      <point x="150" y="-22"/>
      <point x="150" y="-22" type="curve"/>
      <point x="150" y="-22"/>
      <point x="126" y="-70"/>
      <point x="126" y="-70" type="curve"/>
      <point x="80" y="-164"/>
      <point x="24" y="-225"/>
      <point x="-41" y="-225" type="curve" smooth="yes"/>
      <point x="-57" y="-225"/>
      <point x="-70" y="-222"/>
      <point x="-81" y="-218" type="curve"/>
      <point x="-81" y="-218"/>
      <point x="-92" y="-242"/>
      <point x="-92" y="-242" type="curve"/>
      <point x="-76" y="-251"/>
      <point x="-59" y="-253"/>
    </contour>
    <contour>
      <point x="201" y="645" type="curve" smooth="yes"/>
      <point x="218" y="645"/>
      <point x="235" y="663"/>
      <point x="235" y="684" type="curve" smooth="yes"/>
      <point x="235" y="704"/>
      <point x="225" y="715"/>
      <point x="207" y="715" type="curve" smooth="yes"/>
      <point x="190" y="715"/>
      <point x="172" y="698"/>
      <point x="172" y="674" type="curve" smooth="yes"/>
      <point x="172" y="656"/>
      <point x="183" y="645"/>
    </contour>
    <contour>
      <point x="382" y="645" type="curve" smooth="yes"/>
      <point x="399" y="645"/>
      <point x="416" y="663"/>
      <point x="416" y="684" type="curve" smooth="yes"/>
      <point x="416" y="704"/>
      <point x="405" y="715"/>
      <point x="388" y="715" type="curve" smooth="yes"/>
      <point x="371" y="715"/>
      <point x="353" y="698"/>
      <point x="353" y="674" type="curve" smooth="yes"/>
      <point x="353" y="656"/>
      <point x="364" y="645"/>
    </contour>
  </outline>
</glyph>
<glyph name="cid40116" format="2">
  <advance height="1000" width="523"/>
  <unicode hex="0104"/>
  <outline>
    <contour>
      <point x="421" y="-244" type="curve" smooth="yes"/>
      <point x="449" y="-244"/>
      <point x="473" y="-233"/>
      <point x="499" y="-209" type="curve"/>
      <point x="499" y="-209"/>
      <point x="486" y="-192"/>
      <point x="486" y="-192" type="curve"/>
      <point x="462" y="-209"/>
      <point x="447" y="-216"/>
      <point x="425" y="-216" type="curve" smooth="yes"/>
      <point x="395" y="-216"/>
      <point x="373" y="-196"/>
      <point x="373" y="-166" type="curve" smooth="yes"/>
      <point x="373" y="-109"/>
      <point x="425" y="-55"/>
      <point x="473" y="-11" type="curve"/>
      <point x="473" y="-11"/>
      <point x="382" y="708"/>
      <point x="382" y="708" type="curve"/>
      <point x="382" y="708"/>
      <point x="349" y="708"/>
      <point x="349" y="708" type="curve"/>
      <point x="349" y="708"/>
      <point x="-50" y="-11"/>
      <point x="-50" y="-11" type="curve"/>
      <point x="-50" y="-11"/>
      <point x="-13" y="-11"/>
      <point x="-13" y="-11" type="curve"/>
      <point x="-13" y="-11"/>
      <point x="222" y="421"/>
      <point x="222" y="421" type="curve"/>
      <point x="268" y="506"/>
      <point x="312" y="582"/>
      <point x="355" y="671" type="curve"/>
      <point x="355" y="671"/>
      <point x="360" y="671"/>
      <point x="360" y="671" type="curve"/>
      <point x="368" y="584"/>
      <point x="379" y="501"/>
      <point x="388" y="421" type="curve"/>
      <point x="388" y="421"/>
      <point x="440" y="-11"/>
      <point x="440" y="-11" type="curve"/>
      <point x="440" y="-11"/>
      <point x="443" y="-11"/>
      <point x="443" y="-11" type="curve"/>
      <point x="399" y="-46"/>
      <point x="340" y="-109"/>
      <point x="340" y="-172" type="curve" smooth="yes"/>
      <point x="340" y="-220"/>
      <point x="375" y="-244"/>
    </contour>
    <contour>
      <point x="113" y="248" type="curve"/>
      <point x="113" y="248"/>
      <point x="421" y="248"/>
      <point x="421" y="248" type="curve"/>
      <point x="421" y="248"/>
      <point x="427" y="277"/>
      <point x="427" y="277" type="curve"/>
      <point x="427" y="277"/>
      <point x="122" y="277"/>
      <point x="122" y="277" type="curve"/>
      <point x="122" y="277"/>
      <point x="113" y="248"/>
    </contour>
  </outline>
</glyph>
<glyph name="cid40161" format="2">
  <advance height="1000" width="584"/>
  <unicode hex="0106"/>
  <outline>
    <contour>
      <point x="303" y="-24" type="curve" smooth="yes"/>
      <point x="382" y="-24"/>
      <point x="440" y="4"/>
      <point x="499" y="57" type="curve"/>
      <point x="499" y="57"/>
      <point x="484" y="74"/>
      <point x="484" y="74" type="curve"/>
      <point x="434" y="32"/>
      <point x="375" y="4"/>
      <point x="305" y="4" type="curve" smooth="yes"/>
      <point x="159" y="4"/>
      <point x="96" y="118"/>
      <point x="96" y="264" type="curve" smooth="yes"/>
      <point x="96" y="447"/>
      <point x="214" y="693"/>
      <point x="423" y="693" type="curve" smooth="yes"/>
      <point x="493" y="693"/>
      <point x="541" y="660"/>
      <point x="567" y="606" type="curve"/>
      <point x="567" y="606"/>
      <point x="591" y="617"/>
      <point x="591" y="617" type="curve"/>
      <point x="567" y="676"/>
      <point x="506" y="721"/>
      <point x="425" y="721" type="curve" smooth="yes"/>
      <point x="196" y="721"/>
      <point x="63" y="466"/>
      <point x="63" y="257" type="curve" smooth="yes"/>
      <point x="63" y="98"/>
      <point x="142" y="-24"/>
    </contour>
    <contour>
      <point x="360" y="763" type="curve"/>
      <point x="360" y="763"/>
      <point x="397" y="763"/>
      <point x="397" y="763" type="curve"/>
      <point x="397" y="763"/>
      <point x="589" y="889"/>
      <point x="589" y="889" type="curve"/>
      <point x="589" y="889"/>
      <point x="586" y="894"/>
      <point x="586" y="894" type="curve"/>
      <point x="586" y="894"/>
      <point x="534" y="894"/>
      <point x="534" y="894" type="curve"/>
      <point x="534" y="894"/>
      <point x="360" y="763"/>
    </contour>
  </outline>
</glyph>
<glyph name="cid40588" format="2">
  <advance height="1000" width="467"/>
  <unicode hex="0109"/>
  <outline>
    <contour>
      <point x="229" y="-24" type="curve" smooth="yes"/>
      <point x="296" y="-24"/>
      <point x="355" y="9"/>
      <point x="390" y="39" type="curve"/>
      <point x="390" y="39"/>
      <point x="375" y="59"/>
      <point x="375" y="59" type="curve"/>
      <point x="340" y="30"/>
      <point x="281" y="4"/>
      <point x="231" y="4" type="curve" smooth="yes"/>
      <point x="129" y="4"/>
      <point x="78" y="67"/>
      <point x="78" y="187" type="curve" smooth="yes"/>
      <point x="78" y="353"/>
      <point x="201" y="495"/>
      <point x="323" y="495" type="curve" smooth="yes"/>
      <point x="375" y="495"/>
      <point x="408" y="480"/>
      <point x="436" y="445" type="curve"/>
      <point x="436" y="445"/>
      <point x="456" y="460"/>
      <point x="456" y="460" type="curve"/>
      <point x="427" y="499"/>
      <point x="386" y="523"/>
      <point x="325" y="523" type="curve" smooth="yes"/>
      <point x="190" y="523"/>
      <point x="48" y="386"/>
      <point x="48" y="181" type="curve" smooth="yes"/>
      <point x="48" y="50"/>
      <point x="118" y="-24"/>
    </contour>
    <contour>
      <point x="183" y="610" type="curve"/>
      <point x="183" y="610"/>
      <point x="216" y="610"/>
      <point x="216" y="610" type="curve"/>
      <point x="216" y="610"/>
      <point x="362" y="741"/>
      <point x="362" y="741" type="curve"/>
      <point x="362" y="741"/>
      <point x="366" y="741"/>
      <point x="366" y="741" type="curve"/>
      <point x="366" y="741"/>
      <point x="460" y="610"/>
      <point x="460" y="610" type="curve"/>
      <point x="460" y="610"/>
      <point x="488" y="610"/>
      <point x="488" y="610" type="curve"/>
      <point x="488" y="610"/>
      <point x="379" y="778"/>
      <point x="379" y="778" type="curve"/>
      <point x="379" y="778"/>
      <point x="358" y="778"/>
      <point x="358" y="778" type="curve"/>
      <point x="358" y="778"/>
      <point x="183" y="610"/>
    </contour>
  </outline>
</glyph>
<glyph name="cid40165" format="2">
  <advance height="1000" width="584"/>
  <unicode hex="010A"/>
  <outline>
    <contour>
      <point x="303" y="-24" type="curve" smooth="yes"/>
      <point x="382" y="-24"/>
      <point x="440" y="4"/>
      <point x="499" y="57" type="curve"/>
      <point x="499" y="57"/>
      <point x="484" y="74"/>
      <point x="484" y="74" type="curve"/>
      <point x="434" y="32"/>
      <point x="375" y="4"/>
      <point x="305" y="4" type="curve" smooth="yes"/>
      <point x="159" y="4"/>
      <point x="96" y="118"/>
      <point x="96" y="264" type="curve" smooth="yes"/>
      <point x="96" y="447"/>
      <point x="214" y="693"/>
      <point x="423" y="693" type="curve" smooth="yes"/>
      <point x="493" y="693"/>
      <point x="541" y="660"/>
      <point x="567" y="606" type="curve"/>
      <point x="567" y="606"/>
      <point x="591" y="617"/>
      <point x="591" y="617" type="curve"/>
      <point x="567" y="676"/>
      <point x="506" y="721"/>
      <point x="425" y="721" type="curve" smooth="yes"/>
      <point x="196" y="721"/>
      <point x="63" y="466"/>
      <point x="63" y="257" type="curve" smooth="yes"/>
      <point x="63" y="98"/>
      <point x="142" y="-24"/>
    </contour>
    <contour>
      <point x="451" y="780" type="curve" smooth="yes"/>
      <point x="471" y="780"/>
      <point x="491" y="798"/>
      <point x="491" y="822" type="curve" smooth="yes"/>
      <point x="491" y="841"/>
      <point x="477" y="854"/>
      <point x="460" y="854" type="curve" smooth="yes"/>
      <point x="440" y="854"/>
      <point x="421" y="837"/>
      <point x="421" y="811" type="curve" smooth="yes"/>
      <point x="421" y="793"/>
      <point x="434" y="780"/>
    </contour>
  </outline>
</glyph>
<glyph name="cid40166" format="2">
  <advance height="1000" width="584"/>
  <unicode hex="010C"/>
  <outline>
    <contour>
      <point x="303" y="-24" type="curve" smooth="yes"/>
      <point x="382" y="-24"/>
      <point x="440" y="4"/>
      <point x="499" y="57" type="curve"/>
      <point x="499" y="57"/>
      <point x="484" y="74"/>
      <point x="484" y="74" type="curve"/>
      <point x="434" y="32"/>
      <point x="375" y="4"/>
      <point x="305" y="4" type="curve" smooth="yes"/>
      <point x="159" y="4"/>
      <point x="96" y="118"/>
      <point x="96" y="264" type="curve" smooth="yes"/>
      <point x="96" y="447"/>
      <point x="214" y="693"/>
      <point x="423" y="693" type="curve" smooth="yes"/>
      <point x="493" y="693"/>
      <point x="541" y="660"/>
      <point x="567" y="606" type="curve"/>
      <point x="567" y="606"/>
      <point x="591" y="617"/>
      <point x="591" y="617" type="curve"/>
      <point x="567" y="676"/>
      <point x="506" y="721"/>
      <point x="425" y="721" type="curve" smooth="yes"/>
      <point x="196" y="721"/>
      <point x="63" y="466"/>
      <point x="63" y="257" type="curve" smooth="yes"/>
      <point x="63" y="98"/>
      <point x="142" y="-24"/>
    </contour>
    <contour>
      <point x="429" y="765" type="curve"/>
      <point x="429" y="765"/>
      <point x="458" y="765"/>
      <point x="458" y="765" type="curve"/>
      <point x="458" y="765"/>
      <point x="632" y="896"/>
      <point x="632" y="896" type="curve"/>
      <point x="632" y="896"/>
      <point x="595" y="896"/>
      <point x="595" y="896" type="curve"/>
      <point x="595" y="896"/>
      <point x="447" y="798"/>
      <point x="447" y="798" type="curve"/>
      <point x="447" y="798"/>
      <point x="443" y="798"/>
      <point x="443" y="798" type="curve"/>
      <point x="443" y="798"/>
      <point x="349" y="896"/>
      <point x="349" y="896" type="curve"/>
      <point x="349" y="896"/>
      <point x="316" y="896"/>
      <point x="316" y="896" type="curve"/>
      <point x="316" y="896"/>
      <point x="429" y="765"/>
    </contour>
  </outline>
</glyph>
<glyph name="cid40171" format="2">
  <advance height="1000" width="623"/>
  <unicode hex="010E"/>
  <outline>
    <contour>
      <point x="44" y="-11" type="curve"/>
      <point x="44" y="-11"/>
      <point x="211" y="-11"/>
      <point x="211" y="-11" type="curve"/>
      <point x="464" y="-11"/>
      <point x="595" y="185"/>
      <point x="595" y="429" type="curve" smooth="yes"/>
      <point x="595" y="595"/>
      <point x="499" y="708"/>
      <point x="301" y="708" type="curve"/>
      <point x="301" y="708"/>
      <point x="187" y="708"/>
      <point x="187" y="708" type="curve"/>
      <point x="187" y="708"/>
      <point x="44" y="-11"/>
    </contour>
    <contour>
      <point x="81" y="17" type="curve"/>
      <point x="81" y="17"/>
      <point x="214" y="680"/>
      <point x="214" y="680" type="curve"/>
      <point x="214" y="680"/>
      <point x="299" y="680"/>
      <point x="299" y="680" type="curve"/>
      <point x="477" y="680"/>
      <point x="562" y="575"/>
      <point x="562" y="427" type="curve" smooth="yes"/>
      <point x="562" y="209"/>
      <point x="438" y="17"/>
      <point x="214" y="17" type="curve"/>
      <point x="214" y="17"/>
      <point x="81" y="17"/>
    </contour>
    <contour>
      <point x="390" y="765" type="curve"/>
      <point x="390" y="765"/>
      <point x="419" y="765"/>
      <point x="419" y="765" type="curve"/>
      <point x="419" y="765"/>
      <point x="593" y="896"/>
      <point x="593" y="896" type="curve"/>
      <point x="593" y="896"/>
      <point x="556" y="896"/>
      <point x="556" y="896" type="curve"/>
      <point x="556" y="896"/>
      <point x="408" y="798"/>
      <point x="408" y="798" type="curve"/>
      <point x="408" y="798"/>
      <point x="403" y="798"/>
      <point x="403" y="798" type="curve"/>
      <point x="403" y="798"/>
      <point x="310" y="896"/>
      <point x="310" y="896" type="curve"/>
      <point x="310" y="896"/>
      <point x="277" y="896"/>
      <point x="277" y="896" type="curve"/>
      <point x="277" y="896"/>
      <point x="390" y="765"/>
    </contour>
  </outline>
</glyph>
<glyph name="cid40178" format="2">
  <advance height="1000" width="645"/>
  <unicode hex="0110"/>
  <outline>
    <contour>
      <point x="59" y="357" type="curve"/>
      <point x="59" y="357"/>
      <point x="355" y="357"/>
      <point x="355" y="357" type="curve"/>
      <point x="355" y="357"/>
      <point x="362" y="386"/>
      <point x="362" y="386" type="curve"/>
      <point x="362" y="386"/>
      <point x="146" y="386"/>
      <point x="146" y="386" type="curve"/>
      <point x="146" y="386"/>
      <point x="65" y="381"/>
      <point x="65" y="381" type="curve"/>
      <point x="65" y="381"/>
      <point x="59" y="357"/>
    </contour>
    <contour>
      <point x="65" y="-11" type="curve"/>
      <point x="65" y="-11"/>
      <point x="233" y="-11"/>
      <point x="233" y="-11" type="curve"/>
      <point x="486" y="-11"/>
      <point x="617" y="185"/>
      <point x="617" y="429" type="curve" smooth="yes"/>
      <point x="617" y="595"/>
      <point x="521" y="708"/>
      <point x="323" y="708" type="curve"/>
      <point x="323" y="708"/>
      <point x="209" y="708"/>
      <point x="209" y="708" type="curve"/>
      <point x="209" y="708"/>
      <point x="65" y="-11"/>
    </contour>
    <contour>
      <point x="102" y="17" type="curve"/>
      <point x="102" y="17"/>
      <point x="235" y="680"/>
      <point x="235" y="680" type="curve"/>
      <point x="235" y="680"/>
      <point x="320" y="680"/>
      <point x="320" y="680" type="curve"/>
      <point x="499" y="680"/>
      <point x="584" y="575"/>
      <point x="584" y="427" type="curve" smooth="yes"/>
      <point x="584" y="209"/>
      <point x="460" y="17"/>
      <point x="235" y="17" type="curve"/>
      <point x="235" y="17"/>
      <point x="102" y="17"/>
    </contour>
  </outline>
</glyph>
<glyph name="cid40601" format="2">
  <advance height="1000" width="569"/>
  <unicode hex="0111"/>
  <outline>
    <contour>
      <point x="203" y="-24" type="curve" smooth="yes"/>
      <point x="277" y="-24"/>
      <point x="344" y="17"/>
      <point x="399" y="74" type="curve"/>
      <point x="399" y="74"/>
      <point x="403" y="74"/>
      <point x="403" y="74" type="curve"/>
      <point x="403" y="74"/>
      <point x="390" y="-11"/>
      <point x="390" y="-11" type="curve"/>
      <point x="390" y="-11"/>
      <point x="416" y="-11"/>
      <point x="416" y="-11" type="curve"/>
      <point x="416" y="-11"/>
      <point x="576" y="776"/>
      <point x="576" y="776" type="curve"/>
      <point x="576" y="776"/>
      <point x="545" y="776"/>
      <point x="545" y="776" type="curve"/>
      <point x="545" y="776"/>
      <point x="493" y="519"/>
      <point x="493" y="519" type="curve"/>
      <point x="493" y="519"/>
      <point x="471" y="414"/>
      <point x="471" y="414" type="curve"/>
      <point x="471" y="414"/>
      <point x="467" y="414"/>
      <point x="467" y="414" type="curve"/>
      <point x="440" y="466"/>
      <point x="395" y="501"/>
      <point x="331" y="501" type="curve" smooth="yes"/>
      <point x="187" y="501"/>
      <point x="50" y="342"/>
      <point x="50" y="163" type="curve" smooth="yes"/>
      <point x="50" y="41"/>
      <point x="111" y="-24"/>
    </contour>
    <contour>
      <point x="205" y="4" type="curve" smooth="yes"/>
      <point x="129" y="4"/>
      <point x="81" y="59"/>
      <point x="81" y="170" type="curve" smooth="yes"/>
      <point x="81" y="312"/>
      <point x="198" y="473"/>
      <point x="329" y="473" type="curve" smooth="yes"/>
      <point x="382" y="473"/>
      <point x="425" y="445"/>
      <point x="464" y="373" type="curve"/>
      <point x="464" y="373"/>
      <point x="412" y="122"/>
      <point x="412" y="122" type="curve"/>
      <point x="347" y="48"/>
      <point x="277" y="4"/>
    </contour>
    <contour>
      <point x="334" y="626" type="curve"/>
      <point x="334" y="626"/>
      <point x="545" y="626"/>
      <point x="545" y="626" type="curve"/>
      <point x="545" y="626"/>
      <point x="626" y="630"/>
      <point x="626" y="630" type="curve"/>
      <point x="626" y="630"/>
      <point x="632" y="654"/>
      <point x="632" y="654" type="curve"/>
      <point x="632" y="654"/>
      <point x="340" y="654"/>
      <point x="340" y="654" type="curve"/>
      <point x="340" y="654"/>
      <point x="334" y="626"/>
    </contour>
  </outline>
</glyph>
<glyph name="cid40189" format="2">
  <advance height="1000" width="528"/>
  <unicode hex="0112"/>
  <outline>
    <contour>
      <point x="44" y="-11" type="curve"/>
      <point x="44" y="-11"/>
      <point x="425" y="-11"/>
      <point x="425" y="-11" type="curve"/>
      <point x="425" y="-11"/>
      <point x="432" y="17"/>
      <point x="432" y="17" type="curve"/>
      <point x="432" y="17"/>
      <point x="81" y="17"/>
      <point x="81" y="17" type="curve"/>
      <point x="81" y="17"/>
      <point x="150" y="357"/>
      <point x="150" y="357" type="curve"/>
      <point x="150" y="357"/>
      <point x="436" y="357"/>
      <point x="436" y="357" type="curve"/>
      <point x="436" y="357"/>
      <point x="443" y="386"/>
      <point x="443" y="386" type="curve"/>
      <point x="443" y="386"/>
      <point x="155" y="386"/>
      <point x="155" y="386" type="curve"/>
      <point x="155" y="386"/>
      <point x="214" y="680"/>
      <point x="214" y="680" type="curve"/>
      <point x="214" y="680"/>
      <point x="554" y="680"/>
      <point x="554" y="680" type="curve"/>
      <point x="554" y="680"/>
      <point x="560" y="708"/>
      <point x="560" y="708" type="curve"/>
      <point x="560" y="708"/>
      <point x="187" y="708"/>
      <point x="187" y="708" type="curve"/>
      <point x="187" y="708"/>
      <point x="44" y="-11"/>
    </contour>
    <contour>
      <point x="273" y="804" type="curve"/>
      <point x="273" y="804"/>
      <point x="523" y="804"/>
      <point x="523" y="804" type="curve"/>
      <point x="523" y="804"/>
      <point x="530" y="833"/>
      <point x="530" y="833" type="curve"/>
      <point x="530" y="833"/>
      <point x="279" y="833"/>
      <point x="279" y="833" type="curve"/>
      <point x="279" y="833"/>
      <point x="273" y="804"/>
    </contour>
  </outline>
</glyph>
<glyph name="cid40191" format="2">
  <advance height="1000" width="528"/>
  <unicode hex="0114"/>
  <outline>
    <contour>
      <point x="44" y="-11" type="curve"/>
      <point x="44" y="-11"/>
      <point x="425" y="-11"/>
      <point x="425" y="-11" type="curve"/>
      <point x="425" y="-11"/>
      <point x="432" y="17"/>
      <point x="432" y="17" type="curve"/>
      <point x="432" y="17"/>
      <point x="81" y="17"/>
      <point x="81" y="17" type="curve"/>
      <point x="81" y="17"/>
      <point x="150" y="357"/>
      <point x="150" y="357" type="curve"/>
      <point x="150" y="357"/>
      <point x="436" y="357"/>
      <point x="436" y="357" type="curve"/>
      <point x="436" y="357"/>
      <point x="443" y="386"/>
      <point x="443" y="386" type="curve"/>
      <point x="443" y="386"/>
      <point x="155" y="386"/>
      <point x="155" y="386" type="curve"/>
      <point x="155" y="386"/>
      <point x="214" y="680"/>
      <point x="214" y="680" type="curve"/>
      <point x="214" y="680"/>
      <point x="554" y="680"/>
      <point x="554" y="680" type="curve"/>
      <point x="554" y="680"/>
      <point x="560" y="708"/>
      <point x="560" y="708" type="curve"/>
      <point x="560" y="708"/>
      <point x="187" y="708"/>
      <point x="187" y="708" type="curve"/>
      <point x="187" y="708"/>
      <point x="44" y="-11"/>
    </contour>
    <contour>
      <point x="390" y="765" type="curve" smooth="yes"/>
      <point x="486" y="765"/>
      <point x="543" y="839"/>
      <point x="560" y="898" type="curve"/>
      <point x="560" y="898"/>
      <point x="532" y="902"/>
      <point x="532" y="902" type="curve"/>
      <point x="510" y="846"/>
      <point x="467" y="793"/>
      <point x="397" y="793" type="curve" smooth="yes"/>
      <point x="323" y="793"/>
      <point x="301" y="841"/>
      <point x="301" y="902" type="curve"/>
      <point x="301" y="902"/>
      <point x="273" y="898"/>
      <point x="273" y="898" type="curve"/>
      <point x="273" y="837"/>
      <point x="294" y="765"/>
    </contour>
  </outline>
</glyph>
<glyph name="cid40192" format="2">
  <advance height="1000" width="528"/>
  <unicode hex="0116"/>
  <outline>
    <contour>
      <point x="44" y="-11" type="curve"/>
      <point x="44" y="-11"/>
      <point x="425" y="-11"/>
      <point x="425" y="-11" type="curve"/>
      <point x="425" y="-11"/>
      <point x="432" y="17"/>
      <point x="432" y="17" type="curve"/>
      <point x="432" y="17"/>
      <point x="81" y="17"/>
      <point x="81" y="17" type="curve"/>
      <point x="81" y="17"/>
      <point x="150" y="357"/>
      <point x="150" y="357" type="curve"/>
      <point x="150" y="357"/>
      <point x="436" y="357"/>
      <point x="436" y="357" type="curve"/>
      <point x="436" y="357"/>
      <point x="443" y="386"/>
      <point x="443" y="386" type="curve"/>
      <point x="443" y="386"/>
      <point x="155" y="386"/>
      <point x="155" y="386" type="curve"/>
      <point x="155" y="386"/>
      <point x="214" y="680"/>
      <point x="214" y="680" type="curve"/>
      <point x="214" y="680"/>
      <point x="554" y="680"/>
      <point x="554" y="680" type="curve"/>
      <point x="554" y="680"/>
      <point x="560" y="708"/>
      <point x="560" y="708" type="curve"/>
      <point x="560" y="708"/>
      <point x="187" y="708"/>
      <point x="187" y="708" type="curve"/>
      <point x="187" y="708"/>
      <point x="44" y="-11"/>
    </contour>
    <contour>
      <point x="397" y="780" type="curve" smooth="yes"/>
      <point x="416" y="780"/>
      <point x="436" y="798"/>
      <point x="436" y="822" type="curve" smooth="yes"/>
      <point x="436" y="841"/>
      <point x="423" y="854"/>
      <point x="405" y="854" type="curve" smooth="yes"/>
      <point x="386" y="854"/>
      <point x="366" y="837"/>
      <point x="366" y="811" type="curve" smooth="yes"/>
      <point x="366" y="793"/>
      <point x="379" y="780"/>
    </contour>
  </outline>
</glyph>
<glyph name="cid40196" format="2">
  <advance height="1000" width="528"/>
  <unicode hex="0118"/>
  <outline>
    <contour>
      <point x="338" y="-244" type="curve" smooth="yes"/>
      <point x="366" y="-244"/>
      <point x="390" y="-233"/>
      <point x="416" y="-209" type="curve"/>
      <point x="416" y="-209"/>
      <point x="403" y="-192"/>
      <point x="403" y="-192" type="curve"/>
      <point x="379" y="-209"/>
      <point x="364" y="-216"/>
      <point x="342" y="-216" type="curve" smooth="yes"/>
      <point x="312" y="-216"/>
      <point x="290" y="-196"/>
      <point x="290" y="-166" type="curve" smooth="yes"/>
      <point x="290" y="-100"/>
      <point x="371" y="-11"/>
      <point x="425" y="-11" type="curve"/>
      <point x="425" y="-11"/>
      <point x="432" y="17"/>
      <point x="432" y="17" type="curve"/>
      <point x="432" y="17"/>
      <point x="81" y="17"/>
      <point x="81" y="17" type="curve"/>
      <point x="81" y="17"/>
      <point x="150" y="357"/>
      <point x="150" y="357" type="curve"/>
      <point x="150" y="357"/>
      <point x="436" y="357"/>
      <point x="436" y="357" type="curve"/>
      <point x="436" y="357"/>
      <point x="443" y="386"/>
      <point x="443" y="386" type="curve"/>
      <point x="443" y="386"/>
      <point x="155" y="386"/>
      <point x="155" y="386" type="curve"/>
      <point x="155" y="386"/>
      <point x="214" y="680"/>
      <point x="214" y="680" type="curve"/>
      <point x="214" y="680"/>
      <point x="554" y="680"/>
      <point x="554" y="680" type="curve"/>
      <point x="554" y="680"/>
      <point x="560" y="708"/>
      <point x="560" y="708" type="curve"/>
      <point x="560" y="708"/>
      <point x="187" y="708"/>
      <point x="187" y="708" type="curve"/>
      <point x="187" y="708"/>
      <point x="44" y="-11"/>
      <point x="44" y="-11" type="curve"/>
      <point x="44" y="-11"/>
      <point x="360" y="-11"/>
      <point x="360" y="-11" type="curve"/>
      <point x="316" y="-46"/>
      <point x="257" y="-109"/>
      <point x="257" y="-172" type="curve" smooth="yes"/>
      <point x="257" y="-220"/>
      <point x="292" y="-244"/>
    </contour>
  </outline>
</glyph>
<glyph name="cid40628" format="2">
  <advance height="1000" width="510"/>
  <unicode hex="0119"/>
  <outline>
    <contour>
      <point x="279" y="-242" type="curve" smooth="yes"/>
      <point x="307" y="-242"/>
      <point x="331" y="-231"/>
      <point x="358" y="-207" type="curve"/>
      <point x="358" y="-207"/>
      <point x="344" y="-190"/>
      <point x="344" y="-190" type="curve"/>
      <point x="320" y="-207"/>
      <point x="305" y="-214"/>
      <point x="283" y="-214" type="curve" smooth="yes"/>
      <point x="255" y="-214"/>
      <point x="235" y="-194"/>
      <point x="235" y="-161" type="curve" smooth="yes"/>
      <point x="235" y="-107"/>
      <point x="281" y="-46"/>
      <point x="397" y="33" type="curve"/>
      <point x="397" y="33"/>
      <point x="382" y="52"/>
      <point x="382" y="52" type="curve"/>
      <point x="342" y="24"/>
      <point x="301" y="4"/>
      <point x="246" y="4" type="curve" smooth="yes"/>
      <point x="157" y="4"/>
      <point x="78" y="54"/>
      <point x="78" y="192" type="curve" smooth="yes"/>
      <point x="78" y="364"/>
      <point x="198" y="495"/>
      <point x="314" y="495" type="curve" smooth="yes"/>
      <point x="408" y="495"/>
      <point x="440" y="421"/>
      <point x="440" y="347" type="curve" smooth="yes"/>
      <point x="440" y="323"/>
      <point x="438" y="303"/>
      <point x="434" y="281" type="curve"/>
      <point x="434" y="281"/>
      <point x="81" y="281"/>
      <point x="81" y="281" type="curve"/>
      <point x="81" y="281"/>
      <point x="74" y="253"/>
      <point x="74" y="253" type="curve"/>
      <point x="74" y="253"/>
      <point x="458" y="253"/>
      <point x="458" y="253" type="curve"/>
      <point x="464" y="275"/>
      <point x="471" y="305"/>
      <point x="471" y="340" type="curve" smooth="yes"/>
      <point x="471" y="447"/>
      <point x="427" y="523"/>
      <point x="316" y="523" type="curve" smooth="yes"/>
      <point x="183" y="523"/>
      <point x="48" y="386"/>
      <point x="48" y="190" type="curve" smooth="yes"/>
      <point x="48" y="50"/>
      <point x="124" y="-24"/>
      <point x="244" y="-24" type="curve" smooth="yes"/>
      <point x="262" y="-24"/>
      <point x="286" y="-20"/>
      <point x="305" y="-13" type="curve"/>
      <point x="305" y="-13"/>
      <point x="307" y="-7"/>
      <point x="307" y="-7" type="curve"/>
      <point x="242" y="-57"/>
      <point x="203" y="-109"/>
      <point x="203" y="-168" type="curve" smooth="yes"/>
      <point x="203" y="-218"/>
      <point x="235" y="-242"/>
    </contour>
  </outline>
</glyph>
<glyph name="cid40193" format="2">
  <advance height="1000" width="528"/>
  <unicode hex="011A"/>
  <outline>
    <contour>
      <point x="44" y="-11" type="curve"/>
      <point x="44" y="-11"/>
      <point x="425" y="-11"/>
      <point x="425" y="-11" type="curve"/>
      <point x="425" y="-11"/>
      <point x="432" y="17"/>
      <point x="432" y="17" type="curve"/>
      <point x="432" y="17"/>
      <point x="81" y="17"/>
      <point x="81" y="17" type="curve"/>
      <point x="81" y="17"/>
      <point x="150" y="357"/>
      <point x="150" y="357" type="curve"/>
      <point x="150" y="357"/>
      <point x="436" y="357"/>
      <point x="436" y="357" type="curve"/>
      <point x="436" y="357"/>
      <point x="443" y="386"/>
      <point x="443" y="386" type="curve"/>
      <point x="443" y="386"/>
      <point x="155" y="386"/>
      <point x="155" y="386" type="curve"/>
      <point x="155" y="386"/>
      <point x="214" y="680"/>
      <point x="214" y="680" type="curve"/>
      <point x="214" y="680"/>
      <point x="554" y="680"/>
      <point x="554" y="680" type="curve"/>
      <point x="554" y="680"/>
      <point x="560" y="708"/>
      <point x="560" y="708" type="curve"/>
      <point x="560" y="708"/>
      <point x="187" y="708"/>
      <point x="187" y="708" type="curve"/>
      <point x="187" y="708"/>
      <point x="44" y="-11"/>
    </contour>
    <contour>
      <point x="375" y="765" type="curve"/>
      <point x="375" y="765"/>
      <point x="403" y="765"/>
      <point x="403" y="765" type="curve"/>
      <point x="403" y="765"/>
      <point x="578" y="896"/>
      <point x="578" y="896" type="curve"/>
      <point x="578" y="896"/>
      <point x="541" y="896"/>
      <point x="541" y="896" type="curve"/>
      <point x="541" y="896"/>
      <point x="392" y="798"/>
      <point x="392" y="798" type="curve"/>
      <point x="392" y="798"/>
      <point x="388" y="798"/>
      <point x="388" y="798" type="curve"/>
      <point x="388" y="798"/>
      <point x="294" y="896"/>
      <point x="294" y="896" type="curve"/>
      <point x="294" y="896"/>
      <point x="262" y="896"/>
      <point x="262" y="896" type="curve"/>
      <point x="262" y="896"/>
      <point x="375" y="765"/>
    </contour>
  </outline>
</glyph>
<glyph name="cid40671" format="2">
  <advance height="1000" width="565"/>
  <unicode hex="011D"/>
  <outline>
    <contour>
      <point x="181" y="-266" type="curve" smooth="yes"/>
      <point x="299" y="-266"/>
      <point x="373" y="-188"/>
      <point x="399" y="-63" type="curve"/>
      <point x="399" y="-63"/>
      <point x="514" y="510"/>
      <point x="514" y="510" type="curve"/>
      <point x="514" y="510"/>
      <point x="488" y="510"/>
      <point x="488" y="510" type="curve"/>
      <point x="488" y="510"/>
      <point x="469" y="436"/>
      <point x="469" y="436" type="curve"/>
      <point x="469" y="436"/>
      <point x="464" y="436"/>
      <point x="464" y="436" type="curve"/>
      <point x="436" y="488"/>
      <point x="389" y="523"/>
      <point x="327" y="523" type="curve" smooth="yes"/>
      <point x="190" y="523"/>
      <point x="50" y="364"/>
      <point x="50" y="170" type="curve" smooth="yes"/>
      <point x="50" y="50"/>
      <point x="111" y="-15"/>
      <point x="201" y="-15" type="curve" smooth="yes"/>
      <point x="275" y="-15"/>
      <point x="338" y="24"/>
      <point x="399" y="83" type="curve"/>
      <point x="399" y="83"/>
      <point x="373" y="-44"/>
      <point x="373" y="-44" type="curve"/>
      <point x="349" y="-159"/>
      <point x="290" y="-238"/>
      <point x="183" y="-238" type="curve" smooth="yes"/>
      <point x="122" y="-238"/>
      <point x="63" y="-212"/>
      <point x="26" y="-174" type="curve"/>
      <point x="26" y="-174"/>
      <point x="7" y="-194"/>
      <point x="7" y="-194" type="curve"/>
      <point x="48" y="-238"/>
      <point x="109" y="-266"/>
    </contour>
    <contour>
      <point x="203" y="13" type="curve" smooth="yes"/>
      <point x="126" y="13"/>
      <point x="81" y="67"/>
      <point x="81" y="176" type="curve" smooth="yes"/>
      <point x="81" y="331"/>
      <point x="201" y="495"/>
      <point x="325" y="495" type="curve" smooth="yes"/>
      <point x="377" y="495"/>
      <point x="420" y="466"/>
      <point x="462" y="394" type="curve"/>
      <point x="462" y="394"/>
      <point x="405" y="124"/>
      <point x="405" y="124" type="curve"/>
      <point x="342" y="57"/>
      <point x="264" y="13"/>
    </contour>
    <contour>
      <point x="194" y="610" type="curve"/>
      <point x="194" y="610"/>
      <point x="227" y="610"/>
      <point x="227" y="610" type="curve"/>
      <point x="227" y="610"/>
      <point x="373" y="741"/>
      <point x="373" y="741" type="curve"/>
      <point x="373" y="741"/>
      <point x="377" y="741"/>
      <point x="377" y="741" type="curve"/>
      <point x="377" y="741"/>
      <point x="471" y="610"/>
      <point x="471" y="610" type="curve"/>
      <point x="471" y="610"/>
      <point x="499" y="610"/>
      <point x="499" y="610" type="curve"/>
      <point x="499" y="610"/>
      <point x="390" y="778"/>
      <point x="390" y="778" type="curve"/>
      <point x="390" y="778"/>
      <point x="368" y="778"/>
      <point x="368" y="778" type="curve"/>
      <point x="368" y="778"/>
      <point x="194" y="610"/>
    </contour>
  </outline>
</glyph>
<glyph name="cid40221" format="2">
  <advance height="1000" width="621"/>
  <unicode hex="011E"/>
  <outline>
    <contour>
      <point x="314" y="-24" type="curve" smooth="yes"/>
      <point x="390" y="-24"/>
      <point x="451" y="4"/>
      <point x="501" y="48" type="curve"/>
      <point x="501" y="48"/>
      <point x="560" y="333"/>
      <point x="560" y="333" type="curve"/>
      <point x="560" y="333"/>
      <point x="355" y="333"/>
      <point x="355" y="333" type="curve"/>
      <point x="355" y="333"/>
      <point x="349" y="305"/>
      <point x="349" y="305" type="curve"/>
      <point x="349" y="305"/>
      <point x="521" y="305"/>
      <point x="521" y="305" type="curve"/>
      <point x="521" y="305"/>
      <point x="473" y="63"/>
      <point x="473" y="63" type="curve"/>
      <point x="438" y="30"/>
      <point x="386" y="4"/>
      <point x="316" y="4" type="curve" smooth="yes"/>
      <point x="157" y="4"/>
      <point x="96" y="122"/>
      <point x="96" y="264" type="curve" smooth="yes"/>
      <point x="96" y="449"/>
      <point x="216" y="693"/>
      <point x="429" y="693" type="curve" smooth="yes"/>
      <point x="502" y="693"/>
      <point x="549" y="656"/>
      <point x="578" y="604" type="curve"/>
      <point x="578" y="604"/>
      <point x="602" y="619"/>
      <point x="602" y="619" type="curve"/>
      <point x="573" y="674"/>
      <point x="517" y="721"/>
      <point x="432" y="721" type="curve" smooth="yes"/>
      <point x="194" y="721"/>
      <point x="63" y="470"/>
      <point x="63" y="257" type="curve" smooth="yes"/>
      <point x="63" y="94"/>
      <point x="144" y="-24"/>
    </contour>
    <contour>
      <point x="445" y="765" type="curve" smooth="yes"/>
      <point x="541" y="765"/>
      <point x="597" y="839"/>
      <point x="615" y="898" type="curve"/>
      <point x="615" y="898"/>
      <point x="586" y="902"/>
      <point x="586" y="902" type="curve"/>
      <point x="565" y="846"/>
      <point x="521" y="793"/>
      <point x="451" y="793" type="curve" smooth="yes"/>
      <point x="377" y="793"/>
      <point x="355" y="841"/>
      <point x="355" y="902" type="curve"/>
      <point x="355" y="902"/>
      <point x="327" y="898"/>
      <point x="327" y="898" type="curve"/>
      <point x="327" y="837"/>
      <point x="349" y="765"/>
    </contour>
  </outline>
</glyph>
<glyph name="cid40226" format="2">
  <advance height="1000" width="621"/>
  <unicode hex="0122"/>
  <outline>
    <contour>
      <point x="314" y="-24" type="curve" smooth="yes"/>
      <point x="390" y="-24"/>
      <point x="451" y="4"/>
      <point x="501" y="48" type="curve"/>
      <point x="501" y="48"/>
      <point x="560" y="333"/>
      <point x="560" y="333" type="curve"/>
      <point x="560" y="333"/>
      <point x="355" y="333"/>
      <point x="355" y="333" type="curve"/>
      <point x="355" y="333"/>
      <point x="349" y="305"/>
      <point x="349" y="305" type="curve"/>
      <point x="349" y="305"/>
      <point x="521" y="305"/>
      <point x="521" y="305" type="curve"/>
      <point x="521" y="305"/>
      <point x="473" y="63"/>
      <point x="473" y="63" type="curve"/>
      <point x="438" y="30"/>
      <point x="386" y="4"/>
      <point x="316" y="4" type="curve" smooth="yes"/>
      <point x="157" y="4"/>
      <point x="96" y="122"/>
      <point x="96" y="264" type="curve" smooth="yes"/>
      <point x="96" y="449"/>
      <point x="216" y="693"/>
      <point x="429" y="693" type="curve" smooth="yes"/>
      <point x="502" y="693"/>
      <point x="549" y="656"/>
      <point x="578" y="604" type="curve"/>
      <point x="578" y="604"/>
      <point x="602" y="619"/>
      <point x="602" y="619" type="curve"/>
      <point x="573" y="674"/>
      <point x="517" y="721"/>
      <point x="432" y="721" type="curve" smooth="yes"/>
      <point x="194" y="721"/>
      <point x="63" y="470"/>
      <point x="63" y="257" type="curve" smooth="yes"/>
      <point x="63" y="94"/>
      <point x="144" y="-24"/>
    </contour>
    <contour>
      <point x="185" y="-238" type="curve"/>
      <point x="283" y="-236"/>
      <point x="351" y="-200"/>
      <point x="351" y="-137" type="curve" smooth="yes"/>
      <point x="351" y="-99"/>
      <point x="334" y="-81"/>
      <point x="255" y="-70" type="curve"/>
      <point x="255" y="-70"/>
      <point x="244" y="-96"/>
      <point x="244" y="-96" type="curve"/>
      <point x="293" y="-100"/>
      <point x="318" y="-113"/>
      <point x="318" y="-146" type="curve" smooth="yes"/>
      <point x="318" y="-182"/>
      <point x="273" y="-209"/>
      <point x="183" y="-212" type="curve"/>
      <point x="183" y="-212"/>
      <point x="185" y="-238"/>
    </contour>
  </outline>
</glyph>
<glyph name="cid40232" format="2">
  <advance height="1000" width="652"/>
  <unicode hex="0124"/>
  <outline>
    <contour>
      <point x="44" y="-11" type="curve"/>
      <point x="44" y="-11"/>
      <point x="76" y="-11"/>
      <point x="76" y="-11" type="curve"/>
      <point x="76" y="-11"/>
      <point x="150" y="357"/>
      <point x="150" y="357" type="curve"/>
      <point x="150" y="357"/>
      <point x="538" y="357"/>
      <point x="538" y="357" type="curve"/>
      <point x="538" y="357"/>
      <point x="464" y="-11"/>
      <point x="464" y="-11" type="curve"/>
      <point x="464" y="-11"/>
      <point x="497" y="-11"/>
      <point x="497" y="-11" type="curve"/>
      <point x="497" y="-11"/>
      <point x="641" y="708"/>
      <point x="641" y="708" type="curve"/>
      <point x="641" y="708"/>
      <point x="608" y="708"/>
      <point x="608" y="708" type="curve"/>
      <point x="608" y="708"/>
      <point x="543" y="386"/>
      <point x="543" y="386" type="curve"/>
      <point x="543" y="386"/>
      <point x="155" y="386"/>
      <point x="155" y="386" type="curve"/>
      <point x="155" y="386"/>
      <point x="220" y="708"/>
      <point x="220" y="708" type="curve"/>
      <point x="220" y="708"/>
      <point x="187" y="708"/>
      <point x="187" y="708" type="curve"/>
      <point x="187" y="708"/>
      <point x="44" y="-11"/>
    </contour>
    <contour>
      <point x="264" y="764" type="curve"/>
      <point x="264" y="764"/>
      <point x="301" y="764"/>
      <point x="301" y="764" type="curve"/>
      <point x="301" y="764"/>
      <point x="445" y="862"/>
      <point x="445" y="862" type="curve"/>
      <point x="445" y="862"/>
      <point x="449" y="862"/>
      <point x="449" y="862" type="curve"/>
      <point x="449" y="862"/>
      <point x="547" y="764"/>
      <point x="547" y="764" type="curve"/>
      <point x="547" y="764"/>
      <point x="580" y="764"/>
      <point x="580" y="764" type="curve"/>
      <point x="580" y="764"/>
      <point x="460" y="895"/>
      <point x="460" y="895" type="curve"/>
      <point x="460" y="895"/>
      <point x="438" y="895"/>
      <point x="438" y="895" type="curve"/>
      <point x="438" y="895"/>
      <point x="264" y="764"/>
    </contour>
  </outline>
</glyph>
